LXGWWenKaiLite-Regular.ufo
<glyph name="quotedbl" format="1">
  <advance width="350" height="350"/>
  <unicode hex="0022"/>
  <outline>
    <contour>
      <point x="142" y="492" type="line" smooth="yes"/>
      <point x="142" y="476"/>
      <point x="111" y="476" type="qcurve" smooth="yes"/>
      <point x="100" y="476"/>
      <point x="80" y="484"/>
      <point x="80" y="492" type="qcurve" smooth="yes"/>
      <point x="74" y="703" type="line" smooth="yes"/>
      <point x="74" y="714"/>
      <point x="98" y="725"/>
      <point x="125" y="725"/>
      <point x="148" y="714"/>
      <point x="148" y="703" type="qcurve" smooth="yes"/>
    </contour>
    <contour>
      <point x="270" y="492" type="line" smooth="yes"/>
      <point x="270" y="476"/>
      <point x="239" y="476" type="qcurve" smooth="yes"/>
      <point x="228" y="476"/>
      <point x="208" y="484"/>
      <point x="208" y="492" type="qcurve" smooth="yes"/>
      <point x="202" y="703" type="line" smooth="yes"/>
      <point x="202" y="714"/>
      <point x="226" y="725"/>
      <point x="253" y="725"/>
      <point x="276" y="714"/>
      <point x="276" y="703" type="qcurve" smooth="yes"/>
    </contour>
  </outline>
</glyph>
<glyph name="quotesingle" format="1">
  <advance width="350" height="350"/>
  <unicode hex="0027"/>
  <outline>
    <contour>
      <point x="206" y="492" type="line" smooth="yes"/>
      <point x="206" y="476"/>
      <point x="146" y="476"/>
      <point x="144" y="492" type="qcurve" smooth="yes"/>
      <point x="138" y="703" type="line" smooth="yes"/>
      <point x="138" y="714"/>
      <point x="162" y="725"/>
      <point x="175" y="725" type="qcurve" smooth="yes"/>
      <point x="212" y="725"/>
      <point x="212" y="704" type="qcurve" smooth="yes"/>
      <point x="212" y="703" type="line"/>
    </contour>
  </outline>
</glyph>
<glyph name="bar" format="1">
  <advance width="350" height="350"/>
  <unicode hex="007C"/>
  <outline>
    <contour>
      <point x="140" y="-17" type="line"/>
      <point x="140" y="718" type="line"/>
      <point x="209" y="718" type="line"/>
      <point x="209" y="-17" type="line"/>
    </contour>
  </outline>
</glyph>
<glyph name="uni00AD" format="1">
  <advance width="500" height="500"/>
  <unicode hex="00AD"/>
  <outline>
    <contour>
      <point x="360" y="283" type="line" smooth="yes"/>
      <point x="393" y="283"/>
      <point x="431" y="285" type="qcurve" smooth="yes"/>
      <point x="432" y="285" type="line" smooth="yes"/>
      <point x="440" y="285"/>
      <point x="451" y="257"/>
      <point x="451" y="218"/>
      <point x="437" y="218" type="qcurve" smooth="yes"/>
      <point x="359" y="220" type="line"/>
      <point x="139" y="220" type="line" smooth="yes"/>
      <point x="83" y="220"/>
      <point x="65" y="217" type="qcurve" smooth="yes"/>
      <point x="64" y="217" type="line" smooth="yes"/>
      <point x="56" y="217"/>
      <point x="45" y="245"/>
      <point x="45" y="285"/>
      <point x="60" y="285" type="qcurve" smooth="yes"/>
      <point x="90" y="283"/>
      <point x="140" y="283" type="qcurve" smooth="yes"/>
    </contour>
  </outline>
</glyph>
<glyph name="uni0250" format="1">
  <advance width="575" height="575"/>
  <unicode hex="0250"/>
  <outline>
    <contour>
      <point x="136" y="49" type="qcurve" smooth="yes"/>
      <point x="96" y="105"/>
      <point x="96" y="196" type="qcurve" smooth="yes"/>
      <point x="96" y="273" type="line" smooth="yes"/>
      <point x="96" y="378"/>
      <point x="61" y="433" type="qcurve" smooth="yes"/>
      <point x="59" y="437"/>
      <point x="59" y="450"/>
      <point x="86" y="481"/>
      <point x="102" y="481" type="qcurve" smooth="yes"/>
      <point x="134" y="481"/>
      <point x="149" y="373" type="qcurve"/>
      <point x="169" y="428"/>
      <point x="212" y="455" type="qcurve" smooth="yes"/>
      <point x="262" y="486"/>
      <point x="404" y="486"/>
      <point x="483" y="443"/>
      <point x="519" y="376"/>
      <point x="519" y="298"/>
      <point x="478" y="244"/>
      <point x="423" y="230" type="qcurve" smooth="yes"/>
      <point x="303" y="199"/>
      <point x="164" y="199" type="qcurve"/>
      <point x="166" y="87"/>
      <point x="227" y="56" type="qcurve" smooth="yes"/>
      <point x="255" y="42"/>
      <point x="301" y="42" type="qcurve" smooth="yes"/>
      <point x="413" y="48"/>
      <point x="485" y="125" type="qcurve" smooth="yes"/>
      <point x="498" y="140"/>
      <point x="518" y="140"/>
      <point x="518" y="119"/>
      <point x="489" y="73"/>
      <point x="459" y="46" type="qcurve" smooth="yes"/>
      <point x="392" y="-12"/>
      <point x="293" y="-12" type="qcurve" smooth="yes"/>
      <point x="180" y="-12"/>
    </contour>
    <contour>
      <point x="452" y="341" type="qcurve" smooth="yes"/>
      <point x="452" y="425"/>
      <point x="338" y="425" type="qcurve" smooth="yes"/>
      <point x="276" y="425"/>
      <point x="178" y="338"/>
      <point x="167" y="251" type="qcurve"/>
      <point x="297" y="257"/>
      <point x="386" y="282" type="qcurve" smooth="yes"/>
      <point x="426" y="293"/>
      <point x="452" y="318"/>
    </contour>
  </outline>
</glyph>
<glyph name="uni025C" format="1">
  <advance width="500" height="500"/>
  <unicode hex="025C"/>
  <outline>
    <contour>
      <point x="151" y="242"/>
      <point x="151" y="257" type="qcurve" smooth="yes"/>
      <point x="151" y="275"/>
      <point x="162" y="275" type="qcurve" smooth="yes"/>
      <point x="252" y="278"/>
      <point x="366" y="321"/>
      <point x="366" y="365" type="qcurve" smooth="yes"/>
      <point x="366" y="396"/>
      <point x="310" y="428"/>
      <point x="259" y="428" type="qcurve" smooth="yes"/>
      <point x="191" y="428"/>
      <point x="139" y="379" type="qcurve" smooth="yes"/>
      <point x="123" y="365"/>
      <point x="114" y="365" type="qcurve" smooth="yes"/>
      <point x="104" y="365"/>
      <point x="86" y="399"/>
      <point x="86" y="413" type="qcurve" smooth="yes"/>
      <point x="86" y="431"/>
      <point x="146" y="465"/>
      <point x="229" y="486"/>
      <point x="258" y="486" type="qcurve" smooth="yes"/>
      <point x="341" y="486"/>
      <point x="437" y="418"/>
      <point x="437" y="366" type="qcurve" smooth="yes"/>
      <point x="437" y="326"/>
      <point x="382" y="268"/>
      <point x="341" y="258" type="qcurve"/>
      <point x="386" y="250"/>
      <point x="457" y="182"/>
      <point x="457" y="130" type="qcurve" smooth="yes"/>
      <point x="457" y="63"/>
      <point x="342" y="-18"/>
      <point x="241" y="-18" type="qcurve" smooth="yes"/>
      <point x="194" y="-18"/>
      <point x="107" y="12"/>
      <point x="53" y="53"/>
      <point x="53" y="67" type="qcurve" smooth="yes"/>
      <point x="53" y="75"/>
      <point x="62" y="84"/>
      <point x="78" y="84"/>
      <point x="88" y="78" type="qcurve" smooth="yes"/>
      <point x="122" y="58"/>
      <point x="191" y="42"/>
      <point x="241" y="42" type="qcurve" smooth="yes"/>
      <point x="306" y="42"/>
      <point x="386" y="89"/>
      <point x="386" y="169"/>
      <point x="319" y="220"/>
      <point x="259" y="220" type="qcurve" smooth="yes"/>
      <point x="245" y="220"/>
      <point x="182" y="211" type="qcurve"/>
      <point x="180" y="211" type="line" smooth="yes"/>
      <point x="168" y="211"/>
    </contour>
  </outline>
</glyph>
<glyph name="uni026F" format="1">
  <advance width="816" height="816"/>
  <unicode hex="026F"/>
  <outline>
    <contour>
      <point x="162" y="453" type="qcurve" smooth="yes"/>
      <point x="158" y="365" type="line"/>
      <point x="158" y="177" type="line" smooth="yes"/>
      <point x="158" y="117"/>
      <point x="198" y="44"/>
      <point x="242" y="44" type="qcurve" smooth="yes"/>
      <point x="272" y="44"/>
      <point x="335" y="88"/>
      <point x="378" y="160"/>
      <point x="378" y="202" type="qcurve" smooth="yes"/>
      <point x="378" y="365" type="line"/>
      <point x="373" y="471" type="line" smooth="yes"/>
      <point x="373" y="481"/>
      <point x="409" y="481"/>
      <point x="445" y="466"/>
      <point x="445" y="453" type="qcurve" smooth="yes"/>
      <point x="441" y="365" type="line"/>
      <point x="441" y="177" type="line" smooth="yes"/>
      <point x="441" y="44"/>
      <point x="515" y="44" type="qcurve" smooth="yes"/>
      <point x="567" y="44"/>
      <point x="606" y="90" type="qcurve" smooth="yes"/>
      <point x="653" y="148"/>
      <point x="656" y="260" type="qcurve" smooth="yes"/>
      <point x="658" y="314"/>
      <point x="659" y="365" type="qcurve" smooth="yes"/>
      <point x="654" y="471" type="line" smooth="yes"/>
      <point x="654" y="481"/>
      <point x="690" y="481"/>
      <point x="727" y="466"/>
      <point x="727" y="453" type="qcurve" smooth="yes"/>
      <point x="725" y="365" type="line"/>
      <point x="725" y="114" type="line"/>
      <point x="728" y="-2" type="line" smooth="yes"/>
      <point x="728" y="-12"/>
      <point x="692" y="-12"/>
      <point x="655" y="3"/>
      <point x="655" y="26"/>
      <point x="656" y="53"/>
      <point x="656" y="73" type="qcurve"/>
      <point x="636" y="32"/>
      <point x="559" y="-16"/>
      <point x="459" y="-16"/>
      <point x="401" y="40"/>
      <point x="392" y="77" type="qcurve"/>
      <point x="366" y="31"/>
      <point x="282" y="-16"/>
      <point x="187" y="-16"/>
      <point x="122" y="39"/>
      <point x="92" y="126"/>
      <point x="92" y="173" type="qcurve" smooth="yes"/>
      <point x="92" y="365" type="line"/>
      <point x="89" y="471" type="line" smooth="yes"/>
      <point x="89" y="481"/>
      <point x="125" y="481"/>
      <point x="162" y="466"/>
    </contour>
  </outline>
</glyph>
<glyph name="uni028E" format="1">
  <advance width="500" height="500"/>
  <unicode hex="028E"/>
  <outline>
    <contour>
      <point x="471" y="21" type="qcurve" smooth="yes"/>
      <point x="471" y="5"/>
      <point x="396" y="5"/>
      <point x="390" y="21" type="qcurve" smooth="yes"/>
      <point x="382" y="44"/>
      <point x="362" y="92" type="qcurve" smooth="yes"/>
      <point x="246" y="361" type="line"/>
      <point x="123" y="102" type="line" smooth="yes"/>
      <point x="103" y="63"/>
      <point x="87" y="9" type="qcurve" smooth="yes"/>
      <point x="84" y="0"/>
      <point x="55" y="0"/>
      <point x="21" y="22"/>
      <point x="21" y="44"/>
      <point x="32" y="65"/>
      <point x="54" y="106"/>
      <point x="63" y="124" type="qcurve" smooth="yes"/>
      <point x="274" y="567" type="line" smooth="yes"/>
      <point x="294" y="609"/>
      <point x="345" y="649"/>
      <point x="384" y="649" type="qcurve" smooth="yes"/>
      <point x="394" y="649" type="line" smooth="yes"/>
      <point x="413" y="649"/>
      <point x="461" y="641"/>
      <point x="484" y="622" type="qcurve" smooth="yes"/>
      <point x="489" y="617"/>
      <point x="489" y="595"/>
      <point x="469" y="560"/>
      <point x="449" y="560"/>
      <point x="424" y="586"/>
      <point x="371" y="586"/>
      <point x="340" y="562"/>
      <point x="326" y="531" type="qcurve" smooth="yes"/>
      <point x="282" y="439" type="line"/>
      <point x="428" y="108" type="line" smooth="yes"/>
      <point x="450" y="60"/>
      <point x="471" y="23"/>
    </contour>
  </outline>
</glyph>
<glyph name="uni0295" format="1">
  <advance width="600" height="600"/>
  <unicode hex="0295"/>
  <outline>
    <contour>
      <point x="279" y="105" type="line"/>
      <point x="280" y="254" type="line" smooth="yes"/>
      <point x="280" y="293"/>
      <point x="232" y="350"/>
      <point x="173" y="396"/>
      <point x="116" y="450"/>
      <point x="78" y="522"/>
      <point x="78" y="639"/>
      <point x="168" y="713"/>
      <point x="332" y="713"/>
      <point x="461" y="640"/>
      <point x="508" y="557" type="qcurve" smooth="yes"/>
      <point x="510" y="554"/>
      <point x="510" y="533"/>
      <point x="478" y="506"/>
      <point x="449" y="506"/>
      <point x="445" y="519" type="qcurve" smooth="yes"/>
      <point x="432" y="563"/>
      <point x="381" y="616"/>
      <point x="297" y="654"/>
      <point x="197" y="654"/>
      <point x="151" y="604"/>
      <point x="151" y="568" type="qcurve" smooth="yes"/>
      <point x="151" y="497"/>
      <point x="213" y="442" type="qcurve" smooth="yes"/>
      <point x="240" y="418"/>
      <point x="295" y="371"/>
      <point x="337" y="314"/>
      <point x="342" y="286" type="qcurve" smooth="yes"/>
      <point x="345" y="268"/>
      <point x="346" y="219" type="qcurve" smooth="yes"/>
      <point x="348" y="105" type="line"/>
      <point x="350" y="17" type="line" smooth="yes"/>
      <point x="350" y="5"/>
      <point x="311" y="-10"/>
      <point x="276" y="-10"/>
      <point x="276" y="-1" type="qcurve" smooth="yes"/>
    </contour>
  </outline>
</glyph>
<glyph name="uni0298" format="1">
  <advance width="562" height="562"/>
  <unicode hex="0298"/>
  <outline>
    <contour>
      <point x="334" y="251"/>
      <point x="334" y="210"/>
      <point x="309" y="184"/>
      <point x="261" y="184"/>
      <point x="229" y="225"/>
      <point x="229" y="268"/>
      <point x="259" y="292"/>
      <point x="301" y="292"/>
    </contour>
    <contour>
      <point x="194" y="445" type="qcurve"/>
      <point x="249" y="486"/>
      <point x="369" y="486"/>
      <point x="413" y="457" type="qcurve" smooth="yes"/>
      <point x="506" y="396"/>
      <point x="506" y="245" type="qcurve" smooth="yes"/>
      <point x="506" y="143"/>
      <point x="444" y="66" type="qcurve" smooth="yes"/>
      <point x="378" y="-18"/>
      <point x="167" y="-18"/>
      <point x="56" y="103"/>
      <point x="56" y="207" type="qcurve" smooth="yes"/>
      <point x="56" y="287"/>
      <point x="106" y="374" type="qcurve" smooth="yes"/>
      <point x="126" y="410"/>
      <point x="166" y="454"/>
      <point x="187" y="454"/>
    </contour>
    <contour>
      <point x="267" y="43" type="qcurve" smooth="yes"/>
      <point x="316" y="43"/>
      <point x="393" y="96"/>
      <point x="439" y="188"/>
      <point x="439" y="328"/>
      <point x="374" y="426"/>
      <point x="228" y="426"/>
      <point x="123" y="289"/>
      <point x="123" y="126"/>
      <point x="198" y="43"/>
    </contour>
  </outline>
</glyph>
<glyph name="uni02A1" format="1">
  <advance width="600" height="600"/>
  <unicode hex="02A1"/>
  <outline>
    <contour>
      <point x="117" y="198" type="qcurve" smooth="yes"/>
      <point x="147" y="196"/>
      <point x="176" y="196" type="qcurve" smooth="yes"/>
      <point x="254" y="196" type="line"/>
      <point x="254" y="219" type="line" smooth="yes"/>
      <point x="255" y="268"/>
      <point x="258" y="286" type="qcurve" smooth="yes"/>
      <point x="263" y="314"/>
      <point x="305" y="371"/>
      <point x="360" y="418"/>
      <point x="387" y="442" type="qcurve" smooth="yes"/>
      <point x="449" y="497"/>
      <point x="449" y="568" type="qcurve" smooth="yes"/>
      <point x="449" y="604"/>
      <point x="403" y="654"/>
      <point x="303" y="654"/>
      <point x="219" y="616"/>
      <point x="168" y="563"/>
      <point x="155" y="519" type="qcurve" smooth="yes"/>
      <point x="151" y="506"/>
      <point x="122" y="506"/>
      <point x="90" y="533"/>
      <point x="90" y="554"/>
      <point x="92" y="557" type="qcurve" smooth="yes"/>
      <point x="139" y="640"/>
      <point x="268" y="713"/>
      <point x="432" y="713"/>
      <point x="522" y="639"/>
      <point x="522" y="522"/>
      <point x="484" y="450"/>
      <point x="427" y="396"/>
      <point x="368" y="350"/>
      <point x="320" y="293"/>
      <point x="320" y="254" type="qcurve" smooth="yes"/>
      <point x="320" y="196" type="line"/>
      <point x="405" y="196" type="line" smooth="yes"/>
      <point x="417" y="196"/>
      <point x="455" y="198" type="qcurve" smooth="yes"/>
      <point x="456" y="198" type="line" smooth="yes"/>
      <point x="464" y="198"/>
      <point x="476" y="174"/>
      <point x="476" y="160" type="qcurve" smooth="yes"/>
      <point x="476" y="136"/>
      <point x="461" y="136" type="qcurve" smooth="yes"/>
      <point x="439" y="136"/>
      <point x="405" y="138" type="qcurve" smooth="yes"/>
      <point x="321" y="138" type="line"/>
      <point x="321" y="105" type="line"/>
      <point x="324" y="-1" type="line" smooth="yes"/>
      <point x="324" y="-10"/>
      <point x="289" y="-10"/>
      <point x="250" y="5"/>
      <point x="250" y="17" type="qcurve" smooth="yes"/>
      <point x="252" y="105" type="line"/>
      <point x="253" y="138" type="line"/>
      <point x="176" y="138" type="line"/>
      <point x="152" y="137" type="line"/>
      <point x="122" y="135" type="line"/>
      <point x="121" y="135" type="line" smooth="yes"/>
      <point x="112" y="135"/>
      <point x="101" y="160"/>
      <point x="101" y="174" type="qcurve" smooth="yes"/>
      <point x="101" y="198"/>
    </contour>
  </outline>
</glyph>
<glyph name="uni02A2" format="1">
  <advance width="600" height="600"/>
  <unicode hex="02A2"/>
  <outline>
    <contour>
      <point x="350" y="-1" type="line" smooth="yes"/>
      <point x="350" y="-10"/>
      <point x="315" y="-10"/>
      <point x="276" y="5"/>
      <point x="276" y="17" type="qcurve" smooth="yes"/>
      <point x="277" y="105" type="line"/>
      <point x="277" y="138" type="line"/>
      <point x="199" y="138" type="line"/>
      <point x="175" y="137" type="line"/>
      <point x="145" y="135" type="line"/>
      <point x="144" y="135" type="line" smooth="yes"/>
      <point x="135" y="135"/>
      <point x="124" y="160"/>
      <point x="124" y="174" type="qcurve" smooth="yes"/>
      <point x="124" y="198"/>
      <point x="140" y="198" type="qcurve" smooth="yes"/>
      <point x="170" y="196"/>
      <point x="199" y="196" type="qcurve" smooth="yes"/>
      <point x="278" y="196" type="line"/>
      <point x="279" y="254" type="line" smooth="yes"/>
      <point x="280" y="293"/>
      <point x="232" y="350"/>
      <point x="173" y="396"/>
      <point x="116" y="450"/>
      <point x="78" y="522"/>
      <point x="78" y="639"/>
      <point x="168" y="713"/>
      <point x="332" y="713"/>
      <point x="461" y="640"/>
      <point x="508" y="557" type="qcurve" smooth="yes"/>
      <point x="510" y="554"/>
      <point x="510" y="533"/>
      <point x="478" y="506"/>
      <point x="449" y="506"/>
      <point x="445" y="519" type="qcurve" smooth="yes"/>
      <point x="432" y="563"/>
      <point x="381" y="616"/>
      <point x="297" y="654"/>
      <point x="197" y="654"/>
      <point x="151" y="604"/>
      <point x="151" y="568" type="qcurve" smooth="yes"/>
      <point x="151" y="497"/>
      <point x="213" y="442" type="qcurve" smooth="yes"/>
      <point x="240" y="418"/>
      <point x="295" y="371"/>
      <point x="337" y="314"/>
      <point x="342" y="286" type="qcurve" smooth="yes"/>
      <point x="345" y="268"/>
      <point x="346" y="219" type="qcurve" smooth="yes"/>
      <point x="346" y="196" type="line"/>
      <point x="428" y="196" type="line" smooth="yes"/>
      <point x="440" y="196"/>
      <point x="478" y="198" type="qcurve" smooth="yes"/>
      <point x="479" y="198" type="line" smooth="yes"/>
      <point x="487" y="198"/>
      <point x="499" y="174"/>
      <point x="499" y="160" type="qcurve" smooth="yes"/>
      <point x="499" y="136"/>
      <point x="484" y="136" type="qcurve" smooth="yes"/>
      <point x="462" y="136"/>
      <point x="428" y="138" type="qcurve" smooth="yes"/>
      <point x="347" y="138" type="line"/>
      <point x="348" y="105" type="line"/>
    </contour>
  </outline>
</glyph>
<glyph name="caron" format="1">
  <advance width="588" height="588"/>
  <unicode hex="02C7"/>
  <outline>
    <contour>
      <point x="295" y="637" type="qcurve"/>
      <point x="330" y="660"/>
      <point x="398" y="703"/>
      <point x="428" y="729"/>
      <point x="436" y="729" type="qcurve" smooth="yes"/>
      <point x="454" y="729"/>
      <point x="454" y="696"/>
      <point x="368" y="612" type="qcurve" smooth="yes"/>
      <point x="348" y="593"/>
      <point x="324" y="569"/>
      <point x="265" y="569"/>
      <point x="254" y="578" type="qcurve" smooth="yes"/>
      <point x="184" y="644"/>
      <point x="135" y="708"/>
      <point x="135" y="713" type="qcurve" smooth="yes"/>
      <point x="135" y="729"/>
      <point x="153" y="729" type="qcurve" smooth="yes"/>
      <point x="161" y="729"/>
      <point x="191" y="703"/>
      <point x="260" y="660"/>
    </contour>
  </outline>
</glyph>
<glyph name="uni02CD" format="1">
  <advance width="500" height="500"/>
  <unicode hex="02CD"/>
  <outline>
    <contour>
      <point x="137" y="-185" type="line" smooth="yes"/>
      <point x="126" y="-185"/>
      <point x="114" y="-166"/>
      <point x="114" y="-143"/>
      <point x="126" y="-123"/>
      <point x="138" y="-123" type="qcurve" smooth="yes"/>
      <point x="366" y="-123" type="line" smooth="yes"/>
      <point x="377" y="-123"/>
      <point x="388" y="-142"/>
      <point x="388" y="-165"/>
      <point x="376" y="-185"/>
      <point x="365" y="-185" type="qcurve" smooth="yes"/>
    </contour>
  </outline>
</glyph>
<glyph name="uni02D0" format="1">
  <advance width="350" height="350"/>
  <unicode hex="02D0"/>
  <outline>
    <contour>
      <point x="105" y="-3" type="line"/>
      <point x="176" y="126" type="line"/>
      <point x="245" y="-3" type="line"/>
    </contour>
    <contour>
      <point x="105" y="509" type="line"/>
      <point x="245" y="509" type="line"/>
      <point x="176" y="381" type="line"/>
    </contour>
  </outline>
</glyph>
<glyph name="dotaccent" format="1">
  <advance width="263" height="263"/>
  <unicode hex="02D9"/>
  <outline>
    <contour>
      <point x="180" y="658"/>
      <point x="180" y="617"/>
      <point x="154" y="590"/>
      <point x="112" y="590"/>
      <point x="81" y="629"/>
      <point x="81" y="670"/>
      <point x="106" y="698"/>
      <point x="149" y="698"/>
    </contour>
  </outline>
</glyph>
<glyph name="grave" format="1">
  <advance width="350" height="350"/>
  <unicode hex="0300"/>
  <unicode hex="02CB"/>
  <unicode hex="0060"/>
  <outline>
    <contour>
      <point x="93" y="675" type="line" smooth="yes"/>
      <point x="85" y="682"/>
      <point x="85" y="706"/>
      <point x="115" y="732"/>
      <point x="145" y="732"/>
      <point x="153" y="723" type="qcurve" smooth="yes"/>
      <point x="256" y="617" type="line" smooth="yes"/>
      <point x="263" y="610"/>
      <point x="263" y="587"/>
      <point x="243" y="564"/>
      <point x="220" y="564"/>
      <point x="213" y="571" type="qcurve" smooth="yes"/>
    </contour>
  </outline>
</glyph>
<glyph name="acutecomb" format="1">
  <advance width="0" height="0"/>
  <unicode hex="0301"/>
  <outline>
    <contour>
      <point x="361" y="649" type="qcurve" smooth="yes"/>
      <point x="312" y="631"/>
      <point x="215" y="597"/>
      <point x="175" y="574"/>
      <point x="163" y="574"/>
      <point x="153" y="584"/>
      <point x="153" y="597"/>
      <point x="191" y="637"/>
      <point x="303" y="712" type="qcurve" smooth="yes"/>
      <point x="305" y="713"/>
      <point x="319" y="713"/>
      <point x="332" y="704" type="qcurve" smooth="yes"/>
      <point x="368" y="679"/>
      <point x="368" y="659" type="qcurve" smooth="yes"/>
      <point x="368" y="652"/>
    </contour>
  </outline>
</glyph>
<glyph name="tilde" format="1">
  <advance width="500" height="500"/>
  <unicode hex="0303"/>
  <unicode hex="02DC"/>
  <outline>
    <contour>
      <point x="406" y="676" type="qcurve" smooth="yes"/>
      <point x="399" y="645"/>
      <point x="349" y="589"/>
      <point x="281" y="589"/>
      <point x="241" y="614"/>
      <point x="209" y="640"/>
      <point x="190" y="640" type="qcurve" smooth="yes"/>
      <point x="149" y="640"/>
      <point x="129" y="598" type="qcurve" smooth="yes"/>
      <point x="123" y="586"/>
      <point x="116" y="586" type="qcurve" smooth="yes"/>
      <point x="98" y="586"/>
      <point x="98" y="603" type="qcurve" smooth="yes"/>
      <point x="98" y="617"/>
      <point x="121" y="661"/>
      <point x="164" y="697"/>
      <point x="224" y="697"/>
      <point x="264" y="671"/>
      <point x="296" y="646"/>
      <point x="315" y="646" type="qcurve" smooth="yes"/>
      <point x="356" y="646"/>
      <point x="376" y="688" type="qcurve" smooth="yes"/>
      <point x="382" y="700"/>
      <point x="390" y="700" type="qcurve" smooth="yes"/>
      <point x="407" y="700"/>
      <point x="407" y="683" type="qcurve" smooth="yes"/>
      <point x="407" y="679"/>
    </contour>
  </outline>
</glyph>
<glyph name="macron" format="1">
  <advance width="500" height="500"/>
  <unicode hex="0304"/>
  <unicode hex="02C9"/>
  <unicode hex="00AF"/>
  <outline>
    <contour>
      <point x="137" y="617" type="line" smooth="yes"/>
      <point x="126" y="617"/>
      <point x="114" y="636"/>
      <point x="114" y="659"/>
      <point x="126" y="679"/>
      <point x="138" y="679" type="qcurve" smooth="yes"/>
      <point x="366" y="679" type="line" smooth="yes"/>
      <point x="377" y="679"/>
      <point x="388" y="660"/>
      <point x="388" y="637"/>
      <point x="376" y="617"/>
      <point x="365" y="617" type="qcurve" smooth="yes"/>
    </contour>
  </outline>
</glyph>
<glyph name="uni0307" format="1">
  <advance width="0" height="0"/>
  <unicode hex="0307"/>
  <outline>
    <contour>
      <point x="275" y="592"/>
      <point x="233" y="592"/>
      <point x="199" y="633"/>
      <point x="199" y="675"/>
      <point x="223" y="701"/>
      <point x="265" y="701"/>
      <point x="300" y="662"/>
      <point x="300" y="618"/>
    </contour>
  </outline>
</glyph>
<glyph name="uni0308" format="1">
  <advance width="0" height="0"/>
  <unicode hex="0308"/>
  <outline>
    <contour>
      <point x="185" y="592"/>
      <point x="143" y="592"/>
      <point x="109" y="633"/>
      <point x="109" y="675"/>
      <point x="133" y="701"/>
      <point x="175" y="701"/>
      <point x="210" y="662"/>
      <point x="210" y="618"/>
    </contour>
    <contour>
      <point x="368" y="592"/>
      <point x="326" y="592"/>
      <point x="292" y="633"/>
      <point x="292" y="675"/>
      <point x="316" y="701"/>
      <point x="358" y="701"/>
      <point x="393" y="662"/>
      <point x="393" y="618"/>
    </contour>
  </outline>
</glyph>
<glyph name="ring" format="1">
  <advance width="500" height="500"/>
  <unicode hex="030A"/>
  <unicode hex="02DA"/>
  <outline>
    <contour>
      <point x="297" y="627"/>
      <point x="297" y="666"/>
      <point x="271" y="692"/>
      <point x="232" y="692"/>
      <point x="205" y="666"/>
      <point x="205" y="627"/>
      <point x="232" y="600"/>
      <point x="271" y="600"/>
    </contour>
    <contour>
      <point x="345" y="608"/>
      <point x="289" y="552"/>
      <point x="213" y="552"/>
      <point x="157" y="608"/>
      <point x="157" y="684"/>
      <point x="213" y="740"/>
      <point x="289" y="740"/>
      <point x="345" y="684"/>
    </contour>
  </outline>
</glyph>
<glyph name="uni030D" format="1">
  <advance width="0" height="0"/>
  <unicode hex="030D"/>
  <outline>
    <contour>
      <point x="-260" y="785"/>
      <point x="-247" y="785" type="qcurve" smooth="yes"/>
      <point x="-235" y="785"/>
      <point x="-217" y="775"/>
      <point x="-217" y="766" type="qcurve" smooth="yes"/>
      <point x="-217" y="578" type="line" smooth="yes"/>
      <point x="-217" y="569"/>
      <point x="-235" y="560"/>
      <point x="-248" y="560" type="qcurve" smooth="yes"/>
      <point x="-260" y="560"/>
      <point x="-279" y="570"/>
      <point x="-279" y="579" type="qcurve" smooth="yes"/>
      <point x="-279" y="767" type="line" smooth="yes"/>
      <point x="-279" y="776"/>
    </contour>
  </outline>
</glyph>
<glyph name="cedilla" format="1">
  <advance width="500" height="500"/>
  <unicode hex="0327"/>
  <unicode hex="00B8"/>
  <outline>
    <contour>
      <point x="260" y="-72" type="qcurve" smooth="yes"/>
      <point x="246" y="-72"/>
      <point x="226" y="-76" type="qcurve"/>
      <point x="221" y="-76" type="line" smooth="yes"/>
      <point x="208" y="-76"/>
      <point x="189" y="-58"/>
      <point x="189" y="-41"/>
      <point x="200" y="-12"/>
      <point x="206" y="6" type="qcurve" smooth="yes"/>
      <point x="211" y="23" type="line"/>
      <point x="277" y="18" type="line"/>
      <point x="262" y="-27" type="line"/>
      <point x="267" y="-26"/>
      <point x="277" y="-26"/>
      <point x="282" y="-26" type="qcurve" smooth="yes"/>
      <point x="318" y="-26"/>
      <point x="360" y="-62"/>
      <point x="360" y="-136"/>
      <point x="304" y="-180"/>
      <point x="209" y="-180"/>
      <point x="165" y="-158" type="qcurve" smooth="yes"/>
      <point x="155" y="-152"/>
      <point x="155" y="-121"/>
      <point x="165" y="-97"/>
      <point x="176" y="-97"/>
      <point x="188" y="-105" type="qcurve" smooth="yes"/>
      <point x="216" y="-125"/>
      <point x="275" y="-125"/>
      <point x="297" y="-114"/>
      <point x="297" y="-98" type="qcurve" smooth="yes"/>
      <point x="297" y="-72"/>
    </contour>
  </outline>
</glyph>
<glyph name="underscore" format="1">
  <advance width="500" height="500"/>
  <unicode hex="0332"/>
  <unicode hex="005F"/>
  <outline>
    <contour>
      <point x="495" y="-101" type="line" smooth="yes"/>
      <point x="514" y="-101"/>
      <point x="514" y="-162"/>
      <point x="495" y="-162" type="qcurve" smooth="yes"/>
      <point x="5" y="-162" type="line" smooth="yes"/>
      <point x="-14" y="-162"/>
      <point x="-14" y="-101"/>
      <point x="5" y="-101" type="qcurve" smooth="yes"/>
    </contour>
  </outline>
</glyph>
<glyph name="uni0358" format="1">
  <advance width="0" height="0"/>
  <unicode hex="0358"/>
  <outline>
    <contour>
      <point x="-27" y="495"/>
      <point x="-49" y="495" type="qcurve" smooth="yes"/>
      <point x="-68" y="495"/>
      <point x="-99" y="533"/>
      <point x="-99" y="555" type="qcurve" smooth="yes"/>
      <point x="-99" y="576"/>
      <point x="-73" y="603"/>
      <point x="-49" y="603" type="qcurve" smooth="yes"/>
      <point x="-31" y="603"/>
      <point x="0" y="563"/>
      <point x="0" y="541" type="qcurve" smooth="yes"/>
      <point x="0" y="522"/>
    </contour>
  </outline>
</glyph>
<glyph name="uni0375" format="1">
  <advance width="200" height="200"/>
  <unicode hex="0375"/>
  <outline>
    <contour>
      <point x="60" y="-273"/>
      <point x="23" y="-253"/>
      <point x="23" y="-240" type="qcurve" smooth="yes"/>
      <point x="23" y="-237"/>
      <point x="25" y="-233" type="qcurve" smooth="yes"/>
      <point x="166" y="-10" type="line" smooth="yes"/>
      <point x="170" y="-3"/>
      <point x="180" y="-3" type="qcurve" smooth="yes"/>
      <point x="187" y="-3"/>
      <point x="199" y="-12"/>
      <point x="199" y="-17" type="qcurve" smooth="yes"/>
      <point x="199" y="-20"/>
      <point x="198" y="-21" type="qcurve" smooth="yes"/>
      <point x="104" y="-261" type="line" smooth="yes"/>
      <point x="100" y="-273"/>
    </contour>
  </outline>
</glyph>
<glyph name="uni0FD6" format="1">
  <advance width="1000" height="1000"/>
  <unicode hex="0FD6"/>
  <outline>
    <contour>
      <point x="470" y="-52" type="line"/>
      <point x="470" y="337" type="line"/>
      <point x="141" y="337" type="line"/>
      <point x="141" y="-54" type="line"/>
      <point x="81" y="-54" type="line"/>
      <point x="81" y="397" type="line"/>
      <point x="470" y="397" type="line"/>
      <point x="470" y="726" type="line"/>
      <point x="80" y="726" type="line"/>
      <point x="80" y="786" type="line"/>
      <point x="530" y="786" type="line"/>
      <point x="530" y="397" type="line"/>
      <point x="859" y="397" type="line"/>
      <point x="859" y="788" type="line"/>
      <point x="919" y="788" type="line"/>
      <point x="919" y="337" type="line"/>
      <point x="530" y="337" type="line"/>
      <point x="530" y="8" type="line"/>
      <point x="920" y="8" type="line"/>
      <point x="920" y="-52" type="line"/>
    </contour>
  </outline>
</glyph>
<glyph name="uni1E9E" format="1">
  <advance width="654" height="654"/>
  <unicode hex="1E9E"/>
  <outline>
    <contour>
      <point x="179" y="109" type="line"/>
      <point x="184" y="3" type="line" smooth="yes"/>
      <point x="184" y="-8"/>
      <point x="142" y="-8"/>
      <point x="102" y="8"/>
      <point x="102" y="21" type="qcurve" smooth="yes"/>
      <point x="102" y="22" type="line" smooth="yes"/>
      <point x="103" y="30"/>
      <point x="103" y="40" type="qcurve" smooth="yes"/>
      <point x="103" y="479" type="line" smooth="yes"/>
      <point x="103" y="614"/>
      <point x="176" y="675" type="qcurve" smooth="yes"/>
      <point x="236" y="726"/>
      <point x="417" y="726"/>
      <point x="519" y="640"/>
      <point x="519" y="511"/>
      <point x="431" y="427"/>
      <point x="370" y="410" type="qcurve"/>
      <point x="433" y="410"/>
      <point x="530" y="359"/>
      <point x="587" y="273"/>
      <point x="587" y="156"/>
      <point x="531" y="57"/>
      <point x="431" y="-2"/>
      <point x="299" y="-2"/>
      <point x="183" y="71"/>
      <point x="183" y="95" type="qcurve" smooth="yes"/>
      <point x="183" y="109"/>
      <point x="197" y="109" type="qcurve" smooth="yes"/>
      <point x="207" y="109"/>
      <point x="228" y="93" type="qcurve" smooth="yes"/>
      <point x="272" y="62"/>
      <point x="426" y="62"/>
      <point x="506" y="141"/>
      <point x="506" y="289"/>
      <point x="407" y="368"/>
      <point x="317" y="368" type="qcurve" smooth="yes"/>
      <point x="307" y="368" type="line" smooth="yes"/>
      <point x="275" y="368"/>
      <point x="238" y="358" type="qcurve"/>
      <point x="236" y="358" type="line" smooth="yes"/>
      <point x="224" y="358"/>
      <point x="202" y="397"/>
      <point x="202" y="425"/>
      <point x="211" y="425" type="qcurve" smooth="yes"/>
      <point x="341" y="429"/>
      <point x="407" y="491" type="qcurve" smooth="yes"/>
      <point x="440" y="522"/>
      <point x="440" y="571" type="qcurve" smooth="yes"/>
      <point x="440" y="661"/>
      <point x="331" y="661" type="qcurve" smooth="yes"/>
      <point x="237" y="661"/>
      <point x="200" y="584" type="qcurve" smooth="yes"/>
      <point x="179" y="542"/>
      <point x="179" y="472" type="qcurve" smooth="yes"/>
    </contour>
  </outline>
</glyph>
<glyph name="uni1F73" format="1">
  <advance width="500" height="500"/>
  <unicode hex="1F73"/>
  <outline>
    <contour>
      <point x="144" y="365" type="qcurve" smooth="yes"/>
      <point x="144" y="283"/>
      <point x="348" y="275" type="qcurve" smooth="yes"/>
      <point x="359" y="275"/>
      <point x="359" y="244"/>
      <point x="343" y="211"/>
      <point x="330" y="211" type="qcurve" smooth="yes"/>
      <point x="328" y="211" type="line"/>
      <point x="283" y="220"/>
      <point x="251" y="220" type="qcurve" smooth="yes"/>
      <point x="190" y="220"/>
      <point x="124" y="168"/>
      <point x="124" y="89"/>
      <point x="205" y="42"/>
      <point x="318" y="42"/>
      <point x="387" y="57"/>
      <point x="433" y="84"/>
      <point x="440" y="84" type="qcurve" smooth="yes"/>
      <point x="457" y="84"/>
      <point x="457" y="67" type="qcurve" smooth="yes"/>
      <point x="457" y="54"/>
      <point x="405" y="14"/>
      <point x="320" y="-18"/>
      <point x="269" y="-18" type="qcurve" smooth="yes"/>
      <point x="166" y="-18"/>
      <point x="53" y="65"/>
      <point x="53" y="199"/>
      <point x="116" y="238" type="qcurve" smooth="yes"/>
      <point x="143" y="254"/>
      <point x="169" y="258" type="qcurve"/>
      <point x="131" y="268"/>
      <point x="73" y="324"/>
      <point x="73" y="416"/>
      <point x="166" y="486"/>
      <point x="252" y="486" type="qcurve" smooth="yes"/>
      <point x="301" y="486"/>
      <point x="387" y="453"/>
      <point x="424" y="427"/>
      <point x="424" y="400"/>
      <point x="407" y="365"/>
      <point x="388" y="365"/>
      <point x="371" y="379" type="qcurve" smooth="yes"/>
      <point x="319" y="428"/>
      <point x="251" y="428" type="qcurve" smooth="yes"/>
      <point x="144" y="428"/>
    </contour>
    <contour>
      <point x="365" y="649" type="qcurve" smooth="yes"/>
      <point x="316" y="631"/>
      <point x="219" y="597"/>
      <point x="179" y="574"/>
      <point x="167" y="574"/>
      <point x="157" y="584"/>
      <point x="157" y="597"/>
      <point x="195" y="637"/>
      <point x="307" y="712" type="qcurve" smooth="yes"/>
      <point x="309" y="713"/>
      <point x="323" y="713"/>
      <point x="336" y="704" type="qcurve" smooth="yes"/>
      <point x="372" y="679"/>
      <point x="372" y="659" type="qcurve" smooth="yes"/>
      <point x="372" y="652"/>
    </contour>
  </outline>
</glyph>
<glyph name="uni2010" format="1">
  <advance width="1000" height="1000"/>
  <unicode hex="2010"/>
  <outline>
    <contour>
      <point x="315" y="350" type="line" smooth="yes"/>
      <point x="304" y="350"/>
      <point x="293" y="369"/>
      <point x="293" y="392"/>
      <point x="304" y="411"/>
      <point x="315" y="411" type="qcurve" smooth="yes"/>
      <point x="685" y="411" type="line" smooth="yes"/>
      <point x="696" y="411"/>
      <point x="708" y="392"/>
      <point x="708" y="369"/>
      <point x="696" y="350"/>
      <point x="685" y="350" type="qcurve" smooth="yes"/>
    </contour>
  </outline>
</glyph>
<glyph name="uni0336" format="1">
  <advance width="1000" height="1000"/>
  <unicode hex="2014"/>
  <unicode hex="0336"/>
  <outline>
    <contour>
      <point x="995" y="283" type="line" smooth="yes"/>
      <point x="1014" y="283"/>
      <point x="1014" y="254" type="qcurve" smooth="yes"/>
      <point x="1014" y="244"/>
      <point x="1005" y="225"/>
      <point x="995" y="225" type="qcurve" smooth="yes"/>
      <point x="5" y="225" type="line" smooth="yes"/>
      <point x="-5" y="225"/>
      <point x="-14" y="244"/>
      <point x="-14" y="254" type="qcurve" smooth="yes"/>
      <point x="-14" y="283"/>
      <point x="5" y="283" type="qcurve" smooth="yes"/>
    </contour>
  </outline>
</glyph>
<glyph name="uni2015" format="1">
  <advance width="1000" height="1000"/>
  <unicode hex="2015"/>
  <outline>
    <contour>
      <point x="5" y="349" type="line" smooth="yes"/>
      <point x="-6" y="349"/>
      <point x="-18" y="368"/>
      <point x="-18" y="391"/>
      <point x="-6" y="410"/>
      <point x="5" y="410" type="qcurve" smooth="yes"/>
      <point x="995" y="410" type="line" smooth="yes"/>
      <point x="1006" y="410"/>
      <point x="1018" y="391"/>
      <point x="1018" y="368"/>
      <point x="1006" y="349"/>
      <point x="995" y="349" type="qcurve" smooth="yes"/>
    </contour>
  </outline>
</glyph>
<glyph name="uni2016" format="1">
  <advance width="1000" height="1000"/>
  <unicode hex="2016"/>
  <outline>
    <contour>
      <point x="439" y="-115" type="line" smooth="yes"/>
      <point x="439" y="-134"/>
      <point x="382" y="-134"/>
      <point x="382" y="-115" type="qcurve" smooth="yes"/>
      <point x="382" y="875" type="line" smooth="yes"/>
      <point x="382" y="894"/>
      <point x="439" y="894"/>
      <point x="439" y="875" type="qcurve" smooth="yes"/>
    </contour>
    <contour>
      <point x="618" y="-115" type="line" smooth="yes"/>
      <point x="618" y="-134"/>
      <point x="561" y="-134"/>
      <point x="561" y="-115" type="qcurve" smooth="yes"/>
      <point x="561" y="875" type="line" smooth="yes"/>
      <point x="561" y="894"/>
      <point x="618" y="894"/>
      <point x="618" y="875" type="qcurve" smooth="yes"/>
    </contour>
  </outline>
</glyph>
<glyph name="daggerdbl" format="1">
  <advance width="1000" height="1000"/>
  <unicode hex="2021"/>
  <outline>
    <contour>
      <point x="532" y="-18" type="line" smooth="yes"/>
      <point x="532" y="-34"/>
      <point x="505" y="-34" type="qcurve" smooth="yes"/>
      <point x="491" y="-34"/>
      <point x="466" y="-23"/>
      <point x="466" y="-13" type="qcurve" smooth="yes"/>
      <point x="466" y="-12" type="line" smooth="yes"/>
      <point x="469" y="20"/>
      <point x="469" y="64" type="qcurve" smooth="yes"/>
      <point x="469" y="177" type="line"/>
      <point x="417" y="176" type="line" smooth="yes"/>
      <point x="375" y="176"/>
      <point x="336" y="173" type="qcurve" smooth="yes"/>
      <point x="335" y="173" type="line" smooth="yes"/>
      <point x="327" y="173"/>
      <point x="315" y="200"/>
      <point x="315" y="238"/>
      <point x="331" y="238" type="qcurve" smooth="yes"/>
      <point x="365" y="236"/>
      <point x="418" y="236" type="qcurve" smooth="yes"/>
      <point x="469" y="237" type="line"/>
      <point x="469" y="516" type="line"/>
      <point x="417" y="515" type="line" smooth="yes"/>
      <point x="375" y="515"/>
      <point x="336" y="512" type="qcurve" smooth="yes"/>
      <point x="335" y="512" type="line" smooth="yes"/>
      <point x="327" y="512"/>
      <point x="315" y="539"/>
      <point x="315" y="577"/>
      <point x="331" y="577" type="qcurve" smooth="yes"/>
      <point x="365" y="575"/>
      <point x="418" y="575" type="qcurve" smooth="yes"/>
      <point x="469" y="576" type="line"/>
      <point x="469" y="672" type="line" smooth="yes"/>
      <point x="469" y="729"/>
      <point x="467" y="759" type="qcurve" smooth="yes"/>
      <point x="467" y="775"/>
      <point x="493" y="775" type="qcurve" smooth="yes"/>
      <point x="507" y="775"/>
      <point x="534" y="764"/>
      <point x="534" y="755" type="qcurve" smooth="yes"/>
      <point x="534" y="754" type="line" smooth="yes"/>
      <point x="531" y="718"/>
      <point x="531" y="673" type="qcurve" smooth="yes"/>
      <point x="531" y="577" type="line"/>
      <point x="585" y="578" type="line" smooth="yes"/>
      <point x="595" y="578"/>
      <point x="661" y="581" type="qcurve" smooth="yes"/>
      <point x="662" y="581" type="line" smooth="yes"/>
      <point x="672" y="581"/>
      <point x="684" y="557"/>
      <point x="684" y="545" type="qcurve" smooth="yes"/>
      <point x="684" y="517"/>
      <point x="667" y="517" type="qcurve" smooth="yes"/>
      <point x="584" y="518" type="line"/>
      <point x="531" y="517" type="line"/>
      <point x="531" y="238" type="line"/>
      <point x="585" y="239" type="line" smooth="yes"/>
      <point x="595" y="239"/>
      <point x="661" y="242" type="qcurve" smooth="yes"/>
      <point x="662" y="242" type="line" smooth="yes"/>
      <point x="672" y="242"/>
      <point x="684" y="218"/>
      <point x="684" y="206" type="qcurve" smooth="yes"/>
      <point x="684" y="178"/>
      <point x="667" y="178" type="qcurve" smooth="yes"/>
      <point x="584" y="179" type="line"/>
      <point x="531" y="178" type="line"/>
      <point x="531" y="65" type="line"/>
    </contour>
  </outline>
</glyph>
<glyph name="twodotenleader" format="1">
  <advance width="1000" height="1000"/>
  <unicode hex="2025"/>
  <outline>
    <contour>
      <point x="303" y="393"/>
      <point x="303" y="352"/>
      <point x="278" y="326"/>
      <point x="230" y="326"/>
      <point x="198" y="367"/>
      <point x="198" y="410"/>
      <point x="228" y="434"/>
      <point x="270" y="434"/>
    </contour>
    <contour>
      <point x="802" y="393"/>
      <point x="802" y="352"/>
      <point x="777" y="326"/>
      <point x="729" y="326"/>
      <point x="697" y="367"/>
      <point x="697" y="410"/>
      <point x="727" y="434"/>
      <point x="769" y="434"/>
    </contour>
  </outline>
</glyph>
<glyph name="ellipsis" format="1">
  <advance width="1000" height="1000"/>
  <unicode hex="2026"/>
  <outline>
    <contour>
      <point x="221" y="393"/>
      <point x="221" y="352"/>
      <point x="196" y="326"/>
      <point x="148" y="326"/>
      <point x="116" y="367"/>
      <point x="116" y="410"/>
      <point x="146" y="434"/>
      <point x="188" y="434"/>
    </contour>
    <contour>
      <point x="553" y="393"/>
      <point x="553" y="352"/>
      <point x="528" y="326"/>
      <point x="480" y="326"/>
      <point x="448" y="367"/>
      <point x="448" y="410"/>
      <point x="478" y="434"/>
      <point x="520" y="434"/>
    </contour>
    <contour>
      <point x="885" y="393"/>
      <point x="885" y="352"/>
      <point x="860" y="326"/>
      <point x="812" y="326"/>
      <point x="780" y="367"/>
      <point x="780" y="410"/>
      <point x="810" y="434"/>
      <point x="852" y="434"/>
    </contour>
  </outline>
</glyph>
<glyph name="uni2027" format="1">
  <advance width="1000" height="1000"/>
  <unicode hex="2027"/>
  <outline>
    <contour>
      <point x="517" y="318"/>
      <point x="496" y="318" type="qcurve" smooth="yes"/>
      <point x="474" y="318"/>
      <point x="439" y="361"/>
      <point x="439" y="387" type="qcurve" smooth="yes"/>
      <point x="439" y="410"/>
      <point x="472" y="442"/>
      <point x="496" y="442" type="qcurve" smooth="yes"/>
      <point x="517" y="442"/>
      <point x="554" y="399"/>
      <point x="554" y="373" type="qcurve" smooth="yes"/>
      <point x="554" y="352"/>
    </contour>
  </outline>
</glyph>
<glyph name="exclamdbl" format="1">
  <advance width="1000" height="1000"/>
  <unicode hex="203C"/>
  <outline>
    <contour>
      <point x="393" y="60"/>
      <point x="393" y="17"/>
      <point x="368" y="-9"/>
      <point x="320" y="-9"/>
      <point x="288" y="29"/>
      <point x="288" y="72"/>
      <point x="314" y="101"/>
      <point x="360" y="101"/>
    </contour>
    <contour>
      <point x="724" y="60"/>
      <point x="724" y="17"/>
      <point x="699" y="-9"/>
      <point x="651" y="-9"/>
      <point x="619" y="29"/>
      <point x="619" y="72"/>
      <point x="645" y="101"/>
      <point x="691" y="101"/>
    </contour>
    <contour>
      <point x="302" y="695" type="line" smooth="yes"/>
      <point x="302" y="712"/>
      <point x="346" y="712"/>
      <point x="387" y="694"/>
      <point x="387" y="681" type="qcurve" smooth="yes"/>
      <point x="387" y="680" type="line" smooth="yes"/>
      <point x="386" y="664"/>
      <point x="382" y="631"/>
      <point x="381" y="609" type="qcurve" smooth="yes"/>
      <point x="369" y="223" type="line"/>
      <point x="369" y="173" type="line" smooth="yes"/>
      <point x="369" y="165"/>
      <point x="340" y="165"/>
      <point x="311" y="177"/>
      <point x="311" y="187" type="qcurve" smooth="yes"/>
      <point x="311" y="188" type="line" smooth="yes"/>
      <point x="313" y="204"/>
      <point x="313" y="227" type="qcurve" smooth="yes"/>
      <point x="307" y="614" type="line" smooth="yes"/>
      <point x="307" y="663"/>
      <point x="302" y="693" type="qcurve"/>
    </contour>
    <contour>
      <point x="633" y="695" type="line" smooth="yes"/>
      <point x="633" y="712"/>
      <point x="677" y="712"/>
      <point x="718" y="694"/>
      <point x="718" y="681" type="qcurve" smooth="yes"/>
      <point x="718" y="680" type="line" smooth="yes"/>
      <point x="717" y="664"/>
      <point x="713" y="631"/>
      <point x="712" y="609" type="qcurve" smooth="yes"/>
      <point x="700" y="223" type="line"/>
      <point x="700" y="173" type="line" smooth="yes"/>
      <point x="700" y="165"/>
      <point x="671" y="165"/>
      <point x="642" y="177"/>
      <point x="642" y="187" type="qcurve" smooth="yes"/>
      <point x="642" y="188" type="line" smooth="yes"/>
      <point x="644" y="204"/>
      <point x="644" y="227" type="qcurve" smooth="yes"/>
      <point x="638" y="614" type="line" smooth="yes"/>
      <point x="638" y="663"/>
      <point x="633" y="693" type="qcurve"/>
    </contour>
  </outline>
</glyph>
<glyph name="uni0305" format="1">
  <advance width="0" height="0"/>
  <unicode hex="203E"/>
  <unicode hex="0305"/>
  <outline>
    <contour>
      <point x="495" y="841" type="line" smooth="yes"/>
      <point x="514" y="841"/>
      <point x="514" y="778"/>
      <point x="495" y="778" type="qcurve" smooth="yes"/>
      <point x="5" y="778" type="line" smooth="yes"/>
      <point x="-14" y="778"/>
      <point x="-14" y="841"/>
      <point x="5" y="841" type="qcurve" smooth="yes"/>
    </contour>
  </outline>
</glyph>
<glyph name="uni2048" format="1">
  <advance width="1000" height="1000"/>
  <unicode hex="2048"/>
  <outline>
    <contour>
      <point x="378" y="254" type="qcurve" smooth="yes"/>
      <point x="378" y="236" type="line" smooth="yes"/>
      <point x="378" y="224"/>
      <point x="388" y="184" type="qcurve" smooth="yes"/>
      <point x="388" y="168"/>
      <point x="323" y="168"/>
      <point x="311" y="201"/>
      <point x="311" y="247"/>
      <point x="321" y="314"/>
      <point x="363" y="371"/>
      <point x="418" y="418"/>
      <point x="445" y="442" type="qcurve" smooth="yes"/>
      <point x="507" y="497"/>
      <point x="507" y="568" type="qcurve" smooth="yes"/>
      <point x="507" y="604"/>
      <point x="461" y="654"/>
      <point x="361" y="654"/>
      <point x="277" y="616"/>
      <point x="226" y="563"/>
      <point x="213" y="519" type="qcurve" smooth="yes"/>
      <point x="209" y="506"/>
      <point x="180" y="506"/>
      <point x="148" y="533"/>
      <point x="148" y="554"/>
      <point x="150" y="557" type="qcurve" smooth="yes"/>
      <point x="197" y="640"/>
      <point x="326" y="713"/>
      <point x="490" y="713"/>
      <point x="580" y="639"/>
      <point x="580" y="522"/>
      <point x="542" y="450"/>
      <point x="485" y="396"/>
      <point x="426" y="350"/>
      <point x="378" y="293"/>
    </contour>
    <contour>
      <point x="662" y="695" type="line" smooth="yes"/>
      <point x="662" y="712"/>
      <point x="706" y="712"/>
      <point x="747" y="694"/>
      <point x="747" y="681" type="qcurve" smooth="yes"/>
      <point x="747" y="680" type="line" smooth="yes"/>
      <point x="746" y="664"/>
      <point x="742" y="631"/>
      <point x="741" y="609" type="qcurve" smooth="yes"/>
      <point x="729" y="223" type="line"/>
      <point x="729" y="173" type="line" smooth="yes"/>
      <point x="729" y="165"/>
      <point x="700" y="165"/>
      <point x="671" y="177"/>
      <point x="671" y="187" type="qcurve" smooth="yes"/>
      <point x="671" y="188" type="line" smooth="yes"/>
      <point x="673" y="204"/>
      <point x="673" y="227" type="qcurve" smooth="yes"/>
      <point x="667" y="614" type="line" smooth="yes"/>
      <point x="667" y="663"/>
      <point x="662" y="693" type="qcurve"/>
    </contour>
    <contour>
      <point x="753" y="60"/>
      <point x="753" y="17"/>
      <point x="728" y="-9"/>
      <point x="680" y="-9"/>
      <point x="648" y="29"/>
      <point x="648" y="72"/>
      <point x="674" y="101"/>
      <point x="720" y="101"/>
    </contour>
    <contour>
      <point x="406" y="60"/>
      <point x="406" y="17"/>
      <point x="381" y="-9"/>
      <point x="333" y="-9"/>
      <point x="301" y="29"/>
      <point x="301" y="72"/>
      <point x="327" y="101"/>
      <point x="373" y="101"/>
    </contour>
  </outline>
</glyph>
<glyph name="uni207A" format="1">
  <advance width="600" height="600"/>
  <unicode hex="207A"/>
  <outline>
    <contour>
      <point x="240" y="521" type="qcurve" smooth="yes"/>
      <point x="241" y="545" type="line"/>
      <point x="241" y="627" type="line"/>
      <point x="168" y="627" type="line" smooth="yes"/>
      <point x="154" y="627"/>
      <point x="126" y="625" type="qcurve" smooth="yes"/>
      <point x="96" y="624" type="line"/>
      <point x="94" y="624" type="line" smooth="yes"/>
      <point x="85" y="624"/>
      <point x="71" y="648"/>
      <point x="71" y="662" type="qcurve" smooth="yes"/>
      <point x="71" y="673"/>
      <point x="81" y="687"/>
      <point x="91" y="687" type="qcurve" smooth="yes"/>
      <point x="129" y="685"/>
      <point x="169" y="685" type="qcurve" smooth="yes"/>
      <point x="241" y="685" type="line"/>
      <point x="241" y="752" type="line" smooth="yes"/>
      <point x="241" y="792"/>
      <point x="239" y="830" type="qcurve" smooth="yes"/>
      <point x="239" y="840"/>
      <point x="253" y="850"/>
      <point x="264" y="850" type="qcurve" smooth="yes"/>
      <point x="278" y="850"/>
      <point x="302" y="836"/>
      <point x="302" y="827" type="qcurve" smooth="yes"/>
      <point x="302" y="825" type="line"/>
      <point x="301" y="795" type="line" smooth="yes"/>
      <point x="299" y="767"/>
      <point x="299" y="753" type="qcurve" smooth="yes"/>
      <point x="299" y="685" type="line"/>
      <point x="375" y="685" type="line"/>
      <point x="398" y="686" type="line" smooth="yes"/>
      <point x="424" y="688"/>
      <point x="442" y="688" type="qcurve" smooth="yes"/>
      <point x="443" y="688" type="line" smooth="yes"/>
      <point x="454" y="688"/>
      <point x="468" y="666"/>
      <point x="468" y="652" type="qcurve" smooth="yes"/>
      <point x="468" y="641"/>
      <point x="458" y="626"/>
      <point x="448" y="626" type="qcurve" smooth="yes"/>
      <point x="374" y="627" type="line"/>
      <point x="299" y="627" type="line"/>
      <point x="299" y="546" type="line"/>
      <point x="300" y="472" type="line" smooth="yes"/>
      <point x="300" y="462"/>
      <point x="284" y="452"/>
      <point x="273" y="452" type="qcurve" smooth="yes"/>
      <point x="259" y="452"/>
      <point x="238" y="466"/>
      <point x="238" y="477" type="qcurve" smooth="yes"/>
      <point x="238" y="478" type="line" smooth="yes"/>
      <point x="238" y="495"/>
    </contour>
  </outline>
</glyph>
<glyph name="uni207F" format="1">
  <advance width="408" height="408"/>
  <unicode hex="207F"/>
  <outline>
    <contour>
      <point x="287" y="417" type="line"/>
      <point x="287" y="529" type="line" smooth="yes"/>
      <point x="287" y="581"/>
      <point x="260" y="632"/>
      <point x="186" y="632"/>
      <point x="122" y="580"/>
      <point x="105" y="523" type="qcurve" smooth="yes"/>
      <point x="97" y="497"/>
      <point x="92" y="444"/>
      <point x="92" y="409" type="qcurve" smooth="yes"/>
      <point x="93" y="353" type="line" smooth="yes"/>
      <point x="94" y="342"/>
      <point x="94" y="323" type="qcurve" smooth="yes"/>
      <point x="94" y="318"/>
      <point x="84" y="312"/>
      <point x="76" y="312" type="qcurve" smooth="yes"/>
      <point x="61" y="312"/>
      <point x="31" y="327"/>
      <point x="31" y="338" type="qcurve" smooth="yes"/>
      <point x="32" y="417" type="line"/>
      <point x="32" y="587" type="line"/>
      <point x="30" y="674" type="line" smooth="yes"/>
      <point x="30" y="679"/>
      <point x="40" y="685"/>
      <point x="48" y="685" type="qcurve" smooth="yes"/>
      <point x="63" y="685"/>
      <point x="94" y="670"/>
      <point x="94" y="659" type="qcurve" smooth="yes"/>
      <point x="92" y="625"/>
      <point x="92" y="607" type="qcurve"/>
      <point x="119" y="646"/>
      <point x="188" y="688"/>
      <point x="223" y="688" type="qcurve" smooth="yes"/>
      <point x="346" y="688"/>
      <point x="346" y="533" type="qcurve" smooth="yes"/>
      <point x="346" y="409" type="line"/>
      <point x="348" y="323" type="line" smooth="yes"/>
      <point x="348" y="318"/>
      <point x="338" y="312"/>
      <point x="330" y="312" type="qcurve" smooth="yes"/>
      <point x="314" y="312"/>
      <point x="285" y="326"/>
      <point x="285" y="337" type="qcurve" smooth="yes"/>
      <point x="285" y="338" type="line"/>
    </contour>
  </outline>
</glyph>
<glyph name="peseta" format="1">
  <advance width="1000" height="1000"/>
  <unicode hex="20A7"/>
  <outline>
    <contour>
      <point x="318" y="648" type="qcurve" smooth="yes"/>
      <point x="247" y="648"/>
      <point x="176" y="628" type="qcurve"/>
      <point x="176" y="362" type="line"/>
      <point x="182" y="366"/>
      <point x="189" y="366" type="qcurve" smooth="yes"/>
      <point x="356" y="377"/>
      <point x="503" y="476"/>
      <point x="503" y="541" type="qcurve" smooth="yes"/>
      <point x="503" y="648"/>
    </contour>
    <contour>
      <point x="320" y="711" type="qcurve" smooth="yes"/>
      <point x="575" y="711"/>
      <point x="575" y="542" type="qcurve" smooth="yes"/>
      <point x="575" y="459"/>
      <point x="520" y="407" type="qcurve" smooth="yes"/>
      <point x="427" y="320"/>
      <point x="215" y="320" type="qcurve" smooth="yes"/>
      <point x="200" y="320" type="line" smooth="yes"/>
      <point x="186" y="320"/>
      <point x="176" y="325" type="qcurve"/>
      <point x="176" y="115" type="line"/>
      <point x="179" y="-1" type="line" smooth="yes"/>
      <point x="179" y="-11"/>
      <point x="142" y="-11"/>
      <point x="104" y="4"/>
      <point x="104" y="17" type="qcurve" smooth="yes"/>
      <point x="106" y="116" type="line"/>
      <point x="106" y="618" type="line"/>
      <point x="105" y="618" type="line" smooth="yes"/>
      <point x="90" y="618"/>
      <point x="60" y="654"/>
      <point x="60" y="677"/>
      <point x="69" y="678" type="qcurve" smooth="yes"/>
      <point x="235" y="710"/>
      <point x="293" y="711"/>
    </contour>
    <contour>
      <point x="739" y="617" type="qcurve" smooth="yes"/>
      <point x="737" y="528" type="line"/>
      <point x="737" y="480" type="line"/>
      <point x="765" y="481" type="line" smooth="yes"/>
      <point x="801" y="483"/>
      <point x="841" y="487" type="qcurve"/>
      <point x="842" y="487" type="line" smooth="yes"/>
      <point x="855" y="487"/>
      <point x="874" y="457"/>
      <point x="874" y="429"/>
      <point x="863" y="429" type="qcurve" smooth="yes"/>
      <point x="824" y="429" type="line" smooth="yes"/>
      <point x="796" y="429"/>
      <point x="776" y="428" type="qcurve" smooth="yes"/>
      <point x="737" y="427" type="line"/>
      <point x="737" y="108" type="line" smooth="yes"/>
      <point x="737" y="68"/>
      <point x="751" y="46"/>
      <point x="770" y="46" type="qcurve" smooth="yes"/>
      <point x="812" y="46"/>
      <point x="866" y="87" type="qcurve" smooth="yes"/>
      <point x="883" y="100"/>
      <point x="903" y="100"/>
      <point x="903" y="90" type="qcurve" smooth="yes"/>
      <point x="903" y="69"/>
      <point x="858" y="26" type="qcurve" smooth="yes"/>
      <point x="808" y="-18"/>
      <point x="712" y="-18"/>
      <point x="669" y="46"/>
      <point x="669" y="110" type="qcurve" smooth="yes"/>
      <point x="669" y="424" type="line"/>
      <point x="665" y="424" type="line" smooth="yes"/>
      <point x="663" y="424"/>
      <point x="603" y="420" type="qcurve"/>
      <point x="602" y="420" type="line" smooth="yes"/>
      <point x="590" y="420"/>
      <point x="570" y="451"/>
      <point x="570" y="477"/>
      <point x="582" y="477" type="qcurve" smooth="yes"/>
      <point x="669" y="477" type="line"/>
      <point x="669" y="528" type="line"/>
      <point x="667" y="635" type="line" smooth="yes"/>
      <point x="667" y="645"/>
      <point x="703" y="645"/>
      <point x="739" y="630"/>
    </contour>
  </outline>
</glyph>
<glyph name="uni20DD" format="1">
  <advance width="1000" height="1000"/>
  <unicode hex="20DD"/>
  <outline>
    <contour>
      <point x="619" y="-63"/>
      <point x="815" y="53"/>
      <point x="931" y="248"/>
      <point x="931" y="486"/>
      <point x="815" y="682"/>
      <point x="619" y="798"/>
      <point x="381" y="798"/>
      <point x="185" y="682"/>
      <point x="69" y="486"/>
      <point x="69" y="248"/>
      <point x="185" y="53"/>
      <point x="381" y="-63"/>
    </contour>
    <contour>
      <point x="500" y="-112" type="qcurve" smooth="yes"/>
      <point x="368" y="-112"/>
      <point x="150" y="17"/>
      <point x="20" y="235"/>
      <point x="20" y="367" type="qcurve" smooth="yes"/>
      <point x="20" y="500"/>
      <point x="150" y="717"/>
      <point x="368" y="847"/>
      <point x="500" y="847" type="qcurve" smooth="yes"/>
      <point x="633" y="847"/>
      <point x="850" y="717"/>
      <point x="980" y="500"/>
      <point x="980" y="367" type="qcurve" smooth="yes"/>
      <point x="980" y="235"/>
      <point x="850" y="17"/>
      <point x="633" y="-112"/>
    </contour>
  </outline>
</glyph>
<glyph name="uni2113" format="1">
  <advance width="1000" height="1000"/>
  <unicode hex="2113"/>
  <outline>
    <contour>
      <point x="439" y="217" type="qcurve"/>
      <point x="522" y="294"/>
      <point x="615" y="523"/>
      <point x="615" y="661"/>
      <point x="583" y="661" type="qcurve" smooth="yes"/>
      <point x="527" y="661"/>
      <point x="433" y="441"/>
      <point x="433" y="300" type="qcurve" smooth="yes"/>
      <point x="433" y="259"/>
    </contour>
    <contour>
      <point x="383" y="171" type="qcurve"/>
      <point x="369" y="237"/>
      <point x="369" y="308" type="qcurve" smooth="yes"/>
      <point x="369" y="430"/>
      <point x="429" y="614"/>
      <point x="526" y="718"/>
      <point x="578" y="718" type="qcurve" smooth="yes"/>
      <point x="677" y="718"/>
      <point x="677" y="592" type="qcurve" smooth="yes"/>
      <point x="677" y="506"/>
      <point x="631" y="392" type="qcurve" smooth="yes"/>
      <point x="574" y="251"/>
      <point x="455" y="149" type="qcurve"/>
      <point x="469" y="106"/>
      <point x="510" y="51"/>
      <point x="584" y="51"/>
      <point x="639" y="106"/>
      <point x="663" y="171" type="qcurve" smooth="yes"/>
      <point x="671" y="189"/>
      <point x="684" y="189" type="qcurve" smooth="yes"/>
      <point x="702" y="189"/>
      <point x="702" y="151"/>
      <point x="674" y="77"/>
      <point x="657" y="50" type="qcurve" smooth="yes"/>
      <point x="618" y="-11"/>
      <point x="557" y="-11" type="qcurve" smooth="yes"/>
      <point x="447" y="-11"/>
      <point x="402" y="109" type="qcurve"/>
      <point x="332" y="61"/>
      <point x="299" y="61"/>
      <point x="273" y="96"/>
      <point x="273" y="118"/>
      <point x="281" y="121" type="qcurve" smooth="yes"/>
      <point x="329" y="135"/>
    </contour>
  </outline>
</glyph>
<glyph name="aleph" format="1">
  <advance width="1000" height="1000"/>
  <unicode hex="2135"/>
  <outline>
    <contour>
      <point x="399" y="383" type="line"/>
      <point x="295" y="308"/>
      <point x="295" y="244" type="qcurve" smooth="yes"/>
      <point x="295" y="208"/>
      <point x="321" y="165"/>
      <point x="347" y="124"/>
      <point x="347" y="62"/>
      <point x="310" y="7"/>
      <point x="260" y="-32"/>
      <point x="219" y="-52"/>
      <point x="208" y="-52"/>
      <point x="208" y="-39"/>
      <point x="231" y="-10"/>
      <point x="258" y="31"/>
      <point x="258" y="93"/>
      <point x="231" y="137"/>
      <point x="203" y="180"/>
      <point x="203" y="242"/>
      <point x="257" y="312"/>
      <point x="336" y="379"/>
      <point x="373" y="408" type="qcurve"/>
      <point x="260" y="516"/>
      <point x="207" y="604"/>
      <point x="207" y="664"/>
      <point x="219" y="714"/>
      <point x="228" y="714" type="qcurve" smooth="yes"/>
      <point x="234" y="714"/>
      <point x="236" y="696" type="qcurve" smooth="yes"/>
      <point x="242" y="653"/>
      <point x="294" y="586" type="qcurve" smooth="yes"/>
      <point x="326" y="544"/>
      <point x="525" y="358"/>
      <point x="606" y="282" type="qcurve"/>
      <point x="605" y="336" type="line" smooth="yes"/>
      <point x="605" y="439"/>
      <point x="648" y="506" type="qcurve" smooth="yes"/>
      <point x="660" y="524"/>
      <point x="660" y="550"/>
      <point x="640" y="560" type="qcurve" smooth="yes"/>
      <point x="621" y="571"/>
      <point x="586" y="586"/>
      <point x="562" y="617"/>
      <point x="562" y="650"/>
      <point x="571" y="686"/>
      <point x="585" y="714"/>
      <point x="599" y="714"/>
      <point x="608" y="674"/>
      <point x="633" y="657" type="qcurve" smooth="yes"/>
      <point x="650" y="647"/>
      <point x="691" y="645"/>
      <point x="752" y="638"/>
      <point x="772" y="624" type="qcurve" smooth="yes"/>
      <point x="806" y="601"/>
      <point x="806" y="567" type="qcurve" smooth="yes"/>
      <point x="806" y="551"/>
      <point x="791" y="529"/>
      <point x="781" y="529" type="qcurve" smooth="yes"/>
      <point x="780" y="529" type="line" smooth="yes"/>
      <point x="759" y="532"/>
      <point x="732" y="532"/>
      <point x="681" y="478"/>
      <point x="643" y="374"/>
      <point x="643" y="300" type="qcurve" smooth="yes"/>
      <point x="643" y="275"/>
      <point x="646" y="243" type="qcurve"/>
      <point x="778" y="118"/>
      <point x="790" y="64" type="qcurve" smooth="yes"/>
      <point x="793" y="48"/>
      <point x="793" y="2"/>
      <point x="782" y="-42"/>
      <point x="774" y="-42" type="qcurve" smooth="yes"/>
      <point x="764" y="-42"/>
      <point x="758" y="16"/>
      <point x="673" y="123"/>
      <point x="543" y="249"/>
      <point x="468" y="318" type="qcurve" smooth="yes"/>
    </contour>
  </outline>
</glyph>
<glyph name="threeeighths" format="1">
  <advance width="1000" height="1000"/>
  <unicode hex="215C"/>
  <outline>
    <contour>
      <point x="749" y="158" type="qcurve"/>
      <point x="709" y="130"/>
      <point x="660" y="86"/>
      <point x="660" y="35"/>
      <point x="703" y="-10"/>
      <point x="805" y="-10"/>
      <point x="863" y="31"/>
      <point x="863" y="97"/>
      <point x="800" y="136"/>
    </contour>
    <contour>
      <point x="846" y="291" type="line"/>
      <point x="823" y="333"/>
      <point x="760" y="333" type="qcurve" smooth="yes"/>
      <point x="728" y="333"/>
      <point x="679" y="306"/>
      <point x="679" y="262"/>
      <point x="721" y="231"/>
      <point x="749" y="218" type="qcurve"/>
      <point x="806" y="254"/>
      <point x="851" y="286" type="qcurve"/>
    </contour>
    <contour>
      <point x="801" y="194" type="qcurve"/>
      <point x="855" y="170"/>
      <point x="921" y="114"/>
      <point x="921" y="6"/>
      <point x="836" y="-65"/>
      <point x="683" y="-65"/>
      <point x="601" y="3"/>
      <point x="601" y="108"/>
      <point x="652" y="151" type="qcurve" smooth="yes"/>
      <point x="675" y="170"/>
      <point x="698" y="185" type="qcurve"/>
      <point x="658" y="207"/>
      <point x="621" y="253"/>
      <point x="621" y="324"/>
      <point x="696" y="388"/>
      <point x="752" y="388" type="qcurve" smooth="yes"/>
      <point x="847" y="388"/>
      <point x="891" y="327" type="qcurve" smooth="yes"/>
      <point x="894" y="324"/>
      <point x="894" y="321" type="qcurve"/>
      <point x="896" y="323"/>
      <point x="899" y="323" type="qcurve" smooth="yes"/>
      <point x="904" y="323" type="line" smooth="yes"/>
      <point x="920" y="323"/>
      <point x="920" y="308" type="qcurve" smooth="yes"/>
      <point x="920" y="298"/>
      <point x="863" y="238"/>
    </contour>
    <contour>
      <point x="252" y="547" type="qcurve" smooth="yes"/>
      <point x="240" y="547"/>
      <point x="200" y="539" type="qcurve" smooth="yes"/>
      <point x="187" y="539"/>
      <point x="170" y="566"/>
      <point x="170" y="597"/>
      <point x="185" y="598" type="qcurve" smooth="yes"/>
      <point x="264" y="607"/>
      <point x="302" y="640" type="qcurve" smooth="yes"/>
      <point x="320" y="656"/>
      <point x="320" y="701"/>
      <point x="278" y="726"/>
      <point x="250" y="726" type="qcurve" smooth="yes"/>
      <point x="188" y="726"/>
      <point x="156" y="685" type="qcurve" smooth="yes"/>
      <point x="144" y="670"/>
      <point x="117" y="670"/>
      <point x="100" y="703"/>
      <point x="100" y="727"/>
      <point x="143" y="760"/>
      <point x="210" y="784"/>
      <point x="245" y="784" type="qcurve" smooth="yes"/>
      <point x="306" y="784"/>
      <point x="381" y="728"/>
      <point x="381" y="644"/>
      <point x="337" y="595"/>
      <point x="308" y="585" type="qcurve"/>
      <point x="350" y="579"/>
      <point x="400" y="521"/>
      <point x="400" y="435"/>
      <point x="358" y="370"/>
      <point x="281" y="331"/>
      <point x="182" y="331"/>
      <point x="115" y="354"/>
      <point x="78" y="385"/>
      <point x="78" y="410"/>
      <point x="101" y="438"/>
      <point x="121" y="438"/>
      <point x="129" y="430" type="qcurve" smooth="yes"/>
      <point x="161" y="389"/>
      <point x="227" y="389" type="qcurve" smooth="yes"/>
      <point x="273" y="389"/>
      <point x="339" y="438"/>
      <point x="339" y="507"/>
      <point x="290" y="547"/>
    </contour>
    <contour>
      <point x="180" y="10" type="line" smooth="yes"/>
      <point x="141" y="-29"/>
      <point x="98" y="-81" type="qcurve" smooth="yes"/>
      <point x="92" y="-87"/>
      <point x="74" y="-87"/>
      <point x="54" y="-53"/>
      <point x="54" y="-29"/>
      <point x="59" y="-25" type="qcurve" smooth="yes"/>
      <point x="94" y="3"/>
      <point x="141" y="50" type="qcurve" smooth="yes"/>
      <point x="832" y="745" type="line" smooth="yes"/>
      <point x="892" y="808"/>
      <point x="914" y="836" type="qcurve" smooth="yes"/>
      <point x="920" y="843"/>
      <point x="938" y="843"/>
      <point x="958" y="809"/>
      <point x="958" y="785"/>
      <point x="953" y="781" type="qcurve" smooth="yes"/>
      <point x="935" y="764"/>
      <point x="891" y="725"/>
      <point x="871" y="705" type="qcurve" smooth="yes"/>
    </contour>
  </outline>
</glyph>
<glyph name="uni2160" format="1">
  <advance width="1000" height="1000"/>
  <unicode hex="2160"/>
  <outline>
    <contour>
      <point x="460" y="18" type="qcurve" smooth="yes"/>
      <point x="462" y="107" type="line"/>
      <point x="462" y="589" type="line"/>
      <point x="459" y="695" type="line" smooth="yes"/>
      <point x="459" y="705"/>
      <point x="498" y="705"/>
      <point x="537" y="690"/>
      <point x="537" y="677" type="qcurve" smooth="yes"/>
      <point x="535" y="588" type="line"/>
      <point x="535" y="106" type="line"/>
      <point x="538" y="0" type="line" smooth="yes"/>
      <point x="538" y="-10"/>
      <point x="499" y="-10"/>
      <point x="460" y="5"/>
    </contour>
  </outline>
</glyph>
<glyph name="uni2161" format="1">
  <advance width="1000" height="1000"/>
  <unicode hex="2161"/>
  <outline>
    <contour>
      <point x="319" y="18" type="qcurve" smooth="yes"/>
      <point x="321" y="107" type="line"/>
      <point x="321" y="589" type="line"/>
      <point x="318" y="695" type="line" smooth="yes"/>
      <point x="318" y="705"/>
      <point x="357" y="705"/>
      <point x="396" y="690"/>
      <point x="396" y="677" type="qcurve" smooth="yes"/>
      <point x="394" y="588" type="line"/>
      <point x="394" y="106" type="line"/>
      <point x="397" y="0" type="line" smooth="yes"/>
      <point x="397" y="-10"/>
      <point x="358" y="-10"/>
      <point x="319" y="5"/>
    </contour>
    <contour>
      <point x="604" y="18" type="qcurve" smooth="yes"/>
      <point x="606" y="107" type="line"/>
      <point x="606" y="589" type="line"/>
      <point x="603" y="695" type="line" smooth="yes"/>
      <point x="603" y="705"/>
      <point x="642" y="705"/>
      <point x="681" y="690"/>
      <point x="681" y="677" type="qcurve" smooth="yes"/>
      <point x="679" y="588" type="line"/>
      <point x="679" y="106" type="line"/>
      <point x="682" y="0" type="line" smooth="yes"/>
      <point x="682" y="-10"/>
      <point x="643" y="-10"/>
      <point x="604" y="5"/>
    </contour>
  </outline>
</glyph>
<glyph name="uni2166" format="1">
  <advance width="1000" height="1000"/>
  <unicode hex="2166"/>
  <outline>
    <contour>
      <point x="614" y="18" type="qcurve" smooth="yes"/>
      <point x="616" y="107" type="line"/>
      <point x="616" y="589" type="line"/>
      <point x="613" y="695" type="line" smooth="yes"/>
      <point x="613" y="705"/>
      <point x="651" y="705"/>
      <point x="688" y="690"/>
      <point x="688" y="677" type="qcurve" smooth="yes"/>
      <point x="686" y="588" type="line"/>
      <point x="686" y="106" type="line"/>
      <point x="689" y="0" type="line" smooth="yes"/>
      <point x="689" y="-10"/>
      <point x="652" y="-10"/>
      <point x="614" y="5"/>
    </contour>
    <contour>
      <point x="798" y="18" type="qcurve" smooth="yes"/>
      <point x="800" y="107" type="line"/>
      <point x="800" y="589" type="line"/>
      <point x="797" y="695" type="line" smooth="yes"/>
      <point x="797" y="705"/>
      <point x="835" y="705"/>
      <point x="872" y="690"/>
      <point x="872" y="677" type="qcurve" smooth="yes"/>
      <point x="870" y="588" type="line"/>
      <point x="870" y="106" type="line"/>
      <point x="873" y="0" type="line" smooth="yes"/>
      <point x="873" y="-10"/>
      <point x="836" y="-10"/>
      <point x="798" y="5"/>
    </contour>
    <contour>
      <point x="82" y="688" type="qcurve" smooth="yes"/>
      <point x="82" y="704"/>
      <point x="156" y="704"/>
      <point x="162" y="685" type="qcurve" smooth="yes"/>
      <point x="166" y="672"/>
      <point x="171" y="646"/>
      <point x="269" y="319"/>
      <point x="320" y="102" type="qcurve"/>
      <point x="416" y="455"/>
      <point x="471" y="634"/>
      <point x="485" y="699" type="qcurve" smooth="yes"/>
      <point x="488" y="711"/>
      <point x="514" y="711"/>
      <point x="528" y="704" type="qcurve" smooth="yes"/>
      <point x="560" y="689"/>
      <point x="560" y="670" type="qcurve" smooth="yes"/>
      <point x="560" y="667"/>
      <point x="528" y="599"/>
      <point x="384" y="121"/>
      <point x="365" y="24"/>
      <point x="362" y="10" type="qcurve" smooth="yes"/>
      <point x="357" y="-17"/>
      <point x="332" y="-17" type="qcurve" smooth="yes"/>
      <point x="315" y="-17"/>
      <point x="276" y="16"/>
      <point x="268" y="47" type="qcurve" smooth="yes"/>
      <point x="206" y="301"/>
      <point x="109" y="614" type="qcurve" smooth="yes"/>
      <point x="103" y="635"/>
      <point x="82" y="684"/>
    </contour>
  </outline>
</glyph>
<glyph name="uni216B" format="1">
  <advance width="1000" height="1000"/>
  <unicode hex="216B"/>
  <outline>
    <contour>
      <point x="625" y="18" type="qcurve" smooth="yes"/>
      <point x="627" y="107" type="line"/>
      <point x="627" y="589" type="line"/>
      <point x="624" y="695" type="line" smooth="yes"/>
      <point x="624" y="705"/>
      <point x="662" y="705"/>
      <point x="699" y="690"/>
      <point x="699" y="677" type="qcurve" smooth="yes"/>
      <point x="697" y="588" type="line"/>
      <point x="697" y="106" type="line"/>
      <point x="700" y="0" type="line" smooth="yes"/>
      <point x="700" y="-10"/>
      <point x="663" y="-10"/>
      <point x="625" y="5"/>
    </contour>
    <contour>
      <point x="817" y="18" type="qcurve" smooth="yes"/>
      <point x="819" y="107" type="line"/>
      <point x="819" y="589" type="line"/>
      <point x="816" y="695" type="line" smooth="yes"/>
      <point x="816" y="705"/>
      <point x="854" y="705"/>
      <point x="891" y="690"/>
      <point x="891" y="677" type="qcurve" smooth="yes"/>
      <point x="889" y="588" type="line"/>
      <point x="889" y="106" type="line"/>
      <point x="892" y="0" type="line" smooth="yes"/>
      <point x="892" y="-10"/>
      <point x="855" y="-10"/>
      <point x="817" y="5"/>
    </contour>
    <contour>
      <point x="316" y="304" type="line"/>
      <point x="182" y="85" type="line" smooth="yes"/>
      <point x="170" y="65"/>
      <point x="137" y="0" type="qcurve" smooth="yes"/>
      <point x="133" y="-10"/>
      <point x="93" y="-10"/>
      <point x="56" y="6"/>
      <point x="56" y="17" type="qcurve" smooth="yes"/>
      <point x="56" y="21"/>
      <point x="104" y="83"/>
      <point x="125" y="120" type="qcurve" smooth="yes"/>
      <point x="278" y="370" type="line"/>
      <point x="147" y="591" type="line" smooth="yes"/>
      <point x="121" y="641"/>
      <point x="98" y="671" type="qcurve" smooth="yes"/>
      <point x="95" y="676"/>
      <point x="95" y="679" type="qcurve" smooth="yes"/>
      <point x="95" y="690"/>
      <point x="134" y="707"/>
      <point x="167" y="707"/>
      <point x="170" y="699" type="qcurve" smooth="yes"/>
      <point x="195" y="641"/>
      <point x="206" y="623" type="qcurve" smooth="yes"/>
      <point x="317" y="435" type="line"/>
      <point x="431" y="621" type="line" smooth="yes"/>
      <point x="443" y="640"/>
      <point x="468" y="694" type="qcurve" smooth="yes"/>
      <point x="472" y="704"/>
      <point x="500" y="704"/>
      <point x="540" y="681"/>
      <point x="540" y="669" type="qcurve" smooth="yes"/>
      <point x="540" y="667"/>
      <point x="538" y="663" type="qcurve" smooth="yes"/>
      <point x="528" y="651"/>
      <point x="502" y="606"/>
      <point x="491" y="589" type="qcurve" smooth="yes"/>
      <point x="356" y="369" type="line"/>
      <point x="503" y="120" type="line" smooth="yes"/>
      <point x="534" y="66"/>
      <point x="565" y="25" type="qcurve" smooth="yes"/>
      <point x="567" y="21"/>
      <point x="567" y="20" type="qcurve" smooth="yes"/>
      <point x="567" y="10"/>
      <point x="527" y="-10"/>
      <point x="492" y="-10"/>
      <point x="486" y="0" type="qcurve" smooth="yes"/>
      <point x="460" y="61"/>
      <point x="446" y="85" type="qcurve" smooth="yes"/>
    </contour>
  </outline>
</glyph>
<glyph name="uni2170" format="1">
  <advance width="1000" height="1000"/>
  <unicode hex="2170"/>
  <outline>
    <contour>
      <point x="463" y="17" type="qcurve" smooth="yes"/>
      <point x="465" y="105" type="line"/>
      <point x="465" y="368" type="line"/>
      <point x="462" y="475" type="line" smooth="yes"/>
      <point x="462" y="484"/>
      <point x="498" y="484"/>
      <point x="536" y="469"/>
      <point x="536" y="457" type="qcurve" smooth="yes"/>
      <point x="534" y="368" type="line"/>
      <point x="534" y="105" type="line"/>
      <point x="537" y="-1" type="line" smooth="yes"/>
      <point x="537" y="-10"/>
      <point x="502" y="-10"/>
      <point x="463" y="5"/>
    </contour>
    <contour>
      <point x="548" y="658"/>
      <point x="548" y="617"/>
      <point x="522" y="590"/>
      <point x="480" y="590"/>
      <point x="449" y="629"/>
      <point x="449" y="670"/>
      <point x="474" y="698"/>
      <point x="517" y="698"/>
    </contour>
  </outline>
</glyph>
<glyph name="uni2171" format="1">
  <advance width="1000" height="1000"/>
  <unicode hex="2171"/>
  <outline>
    <contour>
      <point x="330" y="17" type="qcurve" smooth="yes"/>
      <point x="332" y="105" type="line"/>
      <point x="332" y="368" type="line"/>
      <point x="329" y="475" type="line" smooth="yes"/>
      <point x="329" y="484"/>
      <point x="365" y="484"/>
      <point x="403" y="469"/>
      <point x="403" y="457" type="qcurve" smooth="yes"/>
      <point x="401" y="368" type="line"/>
      <point x="401" y="105" type="line"/>
      <point x="404" y="-1" type="line" smooth="yes"/>
      <point x="404" y="-10"/>
      <point x="369" y="-10"/>
      <point x="330" y="5"/>
    </contour>
    <contour>
      <point x="600" y="17" type="qcurve" smooth="yes"/>
      <point x="602" y="105" type="line"/>
      <point x="602" y="368" type="line"/>
      <point x="599" y="475" type="line" smooth="yes"/>
      <point x="599" y="484"/>
      <point x="635" y="484"/>
      <point x="673" y="469"/>
      <point x="673" y="457" type="qcurve" smooth="yes"/>
      <point x="671" y="368" type="line"/>
      <point x="671" y="105" type="line"/>
      <point x="674" y="-1" type="line" smooth="yes"/>
      <point x="674" y="-10"/>
      <point x="639" y="-10"/>
      <point x="600" y="5"/>
    </contour>
    <contour>
      <point x="415" y="658"/>
      <point x="415" y="617"/>
      <point x="389" y="590"/>
      <point x="347" y="590"/>
      <point x="316" y="629"/>
      <point x="316" y="670"/>
      <point x="341" y="698"/>
      <point x="384" y="698"/>
    </contour>
    <contour>
      <point x="685" y="658"/>
      <point x="685" y="617"/>
      <point x="659" y="590"/>
      <point x="617" y="590"/>
      <point x="586" y="629"/>
      <point x="586" y="670"/>
      <point x="611" y="698"/>
      <point x="654" y="698"/>
    </contour>
  </outline>
</glyph>
<glyph name="uni2173" format="1">
  <advance width="1000" height="1000"/>
  <unicode hex="2173"/>
  <outline>
    <contour>
      <point x="255" y="17" type="qcurve" smooth="yes"/>
      <point x="257" y="105" type="line"/>
      <point x="257" y="368" type="line"/>
      <point x="254" y="475" type="line" smooth="yes"/>
      <point x="254" y="484"/>
      <point x="290" y="484"/>
      <point x="328" y="469"/>
      <point x="328" y="457" type="qcurve" smooth="yes"/>
      <point x="326" y="368" type="line"/>
      <point x="326" y="105" type="line"/>
      <point x="329" y="-1" type="line" smooth="yes"/>
      <point x="329" y="-10"/>
      <point x="294" y="-10"/>
      <point x="255" y="5"/>
    </contour>
    <contour>
      <point x="403" y="463" type="qcurve" smooth="yes"/>
      <point x="403" y="481"/>
      <point x="454" y="481" type="qcurve" smooth="yes"/>
      <point x="478" y="481"/>
      <point x="481" y="468" type="qcurve" smooth="yes"/>
      <point x="491" y="425"/>
      <point x="499" y="405" type="qcurve" smooth="yes"/>
      <point x="612" y="90" type="line"/>
      <point x="742" y="405" type="line" smooth="yes"/>
      <point x="754" y="434"/>
      <point x="765" y="476" type="qcurve" smooth="yes"/>
      <point x="768" y="486"/>
      <point x="802" y="486"/>
      <point x="839" y="469"/>
      <point x="839" y="457" type="qcurve" smooth="yes"/>
      <point x="839" y="455"/>
      <point x="812" y="403"/>
      <point x="805" y="386" type="qcurve" smooth="yes"/>
      <point x="669" y="65" type="line" smooth="yes"/>
      <point x="660" y="44"/>
      <point x="647" y="5" type="qcurve" smooth="yes"/>
      <point x="640" y="-18"/>
      <point x="601" y="-18"/>
      <point x="585" y="1" type="qcurve" smooth="yes"/>
      <point x="577" y="9"/>
      <point x="571" y="27"/>
      <point x="563" y="46" type="qcurve" smooth="yes"/>
      <point x="435" y="389" type="line" smooth="yes"/>
      <point x="429" y="406"/>
      <point x="403" y="460"/>
    </contour>
    <contour>
      <point x="340" y="658"/>
      <point x="340" y="617"/>
      <point x="314" y="590"/>
      <point x="272" y="590"/>
      <point x="241" y="629"/>
      <point x="241" y="670"/>
      <point x="266" y="698"/>
      <point x="309" y="698"/>
    </contour>
  </outline>
</glyph>
<glyph name="uni2174" format="1">
  <advance width="1000" height="1000"/>
  <unicode hex="2174"/>
  <outline>
    <contour>
      <point x="284" y="463" type="qcurve" smooth="yes"/>
      <point x="284" y="481"/>
      <point x="334" y="481" type="qcurve" smooth="yes"/>
      <point x="358" y="481"/>
      <point x="365" y="456"/>
      <point x="374" y="421"/>
      <point x="380" y="405" type="qcurve" smooth="yes"/>
      <point x="493" y="90" type="line"/>
      <point x="623" y="405" type="line" smooth="yes"/>
      <point x="635" y="434"/>
      <point x="646" y="476" type="qcurve" smooth="yes"/>
      <point x="649" y="486"/>
      <point x="683" y="486"/>
      <point x="720" y="469"/>
      <point x="720" y="457" type="qcurve" smooth="yes"/>
      <point x="720" y="455"/>
      <point x="693" y="403"/>
      <point x="686" y="386" type="qcurve" smooth="yes"/>
      <point x="550" y="65" type="line" smooth="yes"/>
      <point x="541" y="44"/>
      <point x="528" y="5" type="qcurve" smooth="yes"/>
      <point x="521" y="-18"/>
      <point x="482" y="-18"/>
      <point x="466" y="1" type="qcurve" smooth="yes"/>
      <point x="458" y="9"/>
      <point x="452" y="27"/>
      <point x="444" y="46" type="qcurve" smooth="yes"/>
      <point x="316" y="389" type="line" smooth="yes"/>
      <point x="310" y="406"/>
      <point x="284" y="460"/>
    </contour>
  </outline>
</glyph>
<glyph name="uni2176" format="1">
  <advance width="1000" height="1000"/>
  <unicode hex="2176"/>
  <outline>
    <contour>
      <point x="604" y="17" type="qcurve" smooth="yes"/>
      <point x="606" y="105" type="line"/>
      <point x="606" y="368" type="line"/>
      <point x="603" y="475" type="line" smooth="yes"/>
      <point x="603" y="484"/>
      <point x="639" y="484"/>
      <point x="677" y="469"/>
      <point x="677" y="457" type="qcurve" smooth="yes"/>
      <point x="675" y="368" type="line"/>
      <point x="675" y="105" type="line"/>
      <point x="678" y="-1" type="line" smooth="yes"/>
      <point x="678" y="-10"/>
      <point x="643" y="-10"/>
      <point x="604" y="5"/>
    </contour>
    <contour>
      <point x="777" y="17" type="qcurve" smooth="yes"/>
      <point x="779" y="105" type="line"/>
      <point x="779" y="368" type="line"/>
      <point x="776" y="475" type="line" smooth="yes"/>
      <point x="776" y="484"/>
      <point x="812" y="484"/>
      <point x="850" y="469"/>
      <point x="850" y="457" type="qcurve" smooth="yes"/>
      <point x="848" y="368" type="line"/>
      <point x="848" y="105" type="line"/>
      <point x="851" y="-1" type="line" smooth="yes"/>
      <point x="851" y="-10"/>
      <point x="816" y="-10"/>
      <point x="777" y="5"/>
    </contour>
    <contour>
      <point x="122" y="463" type="qcurve" smooth="yes"/>
      <point x="122" y="481"/>
      <point x="172" y="481" type="qcurve" smooth="yes"/>
      <point x="196" y="481"/>
      <point x="203" y="456"/>
      <point x="212" y="421"/>
      <point x="218" y="405" type="qcurve" smooth="yes"/>
      <point x="331" y="90" type="line"/>
      <point x="461" y="405" type="line" smooth="yes"/>
      <point x="473" y="434"/>
      <point x="484" y="476" type="qcurve" smooth="yes"/>
      <point x="487" y="486"/>
      <point x="521" y="486"/>
      <point x="558" y="469"/>
      <point x="558" y="457" type="qcurve" smooth="yes"/>
      <point x="558" y="455"/>
      <point x="531" y="403"/>
      <point x="524" y="386" type="qcurve" smooth="yes"/>
      <point x="388" y="65" type="line" smooth="yes"/>
      <point x="379" y="44"/>
      <point x="366" y="5" type="qcurve" smooth="yes"/>
      <point x="359" y="-18"/>
      <point x="320" y="-18"/>
      <point x="304" y="1" type="qcurve" smooth="yes"/>
      <point x="296" y="9"/>
      <point x="290" y="27"/>
      <point x="282" y="46" type="qcurve" smooth="yes"/>
      <point x="154" y="389" type="line" smooth="yes"/>
      <point x="148" y="406"/>
      <point x="122" y="460"/>
    </contour>
    <contour>
      <point x="689" y="658"/>
      <point x="689" y="617"/>
      <point x="663" y="590"/>
      <point x="621" y="590"/>
      <point x="590" y="629"/>
      <point x="590" y="670"/>
      <point x="615" y="698"/>
      <point x="658" y="698"/>
    </contour>
    <contour>
      <point x="862" y="658"/>
      <point x="862" y="617"/>
      <point x="836" y="590"/>
      <point x="794" y="590"/>
      <point x="763" y="629"/>
      <point x="763" y="670"/>
      <point x="788" y="698"/>
      <point x="831" y="698"/>
    </contour>
  </outline>
</glyph>
<glyph name="uni217A" format="1">
  <advance width="1000" height="1000"/>
  <unicode hex="217A"/>
  <outline>
    <contour>
      <point x="415" y="194" type="line"/>
      <point x="314" y="56" type="line" smooth="yes"/>
      <point x="305" y="44"/>
      <point x="284" y="10"/>
      <point x="270" y="-11"/>
      <point x="233" y="-11"/>
      <point x="199" y="2"/>
      <point x="199" y="10" type="qcurve" smooth="yes"/>
      <point x="199" y="14"/>
      <point x="222" y="37"/>
      <point x="265" y="90" type="qcurve" smooth="yes"/>
      <point x="378" y="244" type="line"/>
      <point x="271" y="392" type="line" smooth="yes"/>
      <point x="250" y="420"/>
      <point x="216" y="454"/>
      <point x="216" y="456" type="qcurve" smooth="yes"/>
      <point x="216" y="464"/>
      <point x="257" y="479"/>
      <point x="288" y="479"/>
      <point x="292" y="471" type="qcurve" smooth="yes"/>
      <point x="301" y="453"/>
      <point x="322" y="424" type="qcurve" smooth="yes"/>
      <point x="416" y="295" type="line"/>
      <point x="513" y="428" type="line" smooth="yes"/>
      <point x="528" y="447"/>
      <point x="544" y="477" type="qcurve" smooth="yes"/>
      <point x="548" y="483"/>
      <point x="579" y="483"/>
      <point x="617" y="468"/>
      <point x="617" y="460" type="qcurve" smooth="yes"/>
      <point x="617" y="458"/>
      <point x="588" y="429"/>
      <point x="562" y="396" type="qcurve" smooth="yes"/>
      <point x="452" y="245" type="line"/>
      <point x="564" y="92" type="line" smooth="yes"/>
      <point x="576" y="76"/>
      <point x="629" y="17"/>
      <point x="629" y="13" type="qcurve" smooth="yes"/>
      <point x="629" y="4"/>
      <point x="594" y="-9"/>
      <point x="557" y="-9"/>
      <point x="544" y="11"/>
      <point x="522" y="46"/>
      <point x="513" y="58" type="qcurve" smooth="yes"/>
    </contour>
    <contour>
      <point x="707" y="17" type="qcurve" smooth="yes"/>
      <point x="709" y="105" type="line"/>
      <point x="709" y="368" type="line"/>
      <point x="706" y="475" type="line" smooth="yes"/>
      <point x="706" y="484"/>
      <point x="742" y="484"/>
      <point x="780" y="469"/>
      <point x="780" y="457" type="qcurve" smooth="yes"/>
      <point x="778" y="368" type="line"/>
      <point x="778" y="105" type="line"/>
      <point x="781" y="-1" type="line" smooth="yes"/>
      <point x="781" y="-10"/>
      <point x="746" y="-10"/>
      <point x="707" y="5"/>
    </contour>
    <contour>
      <point x="792" y="658"/>
      <point x="792" y="617"/>
      <point x="766" y="590"/>
      <point x="724" y="590"/>
      <point x="693" y="629"/>
      <point x="693" y="670"/>
      <point x="718" y="698"/>
      <point x="761" y="698"/>
    </contour>
  </outline>
</glyph>
<glyph name="arrowdown" format="1">
  <advance width="1000" height="1000"/>
  <unicode hex="2193"/>
  <outline>
    <contour>
      <point x="471" y="789" type="line" smooth="yes"/>
      <point x="471" y="801"/>
      <point x="489" y="812"/>
      <point x="510" y="812"/>
      <point x="529" y="800"/>
      <point x="529" y="789" type="qcurve" smooth="yes"/>
      <point x="529" y="55" type="line"/>
      <point x="580" y="145"/>
      <point x="618" y="190" type="qcurve" smooth="yes"/>
      <point x="624" y="197"/>
      <point x="646" y="197"/>
      <point x="670" y="179"/>
      <point x="670" y="163"/>
      <point x="659" y="147"/>
      <point x="638" y="124"/>
      <point x="622" y="102" type="qcurve" smooth="yes"/>
      <point x="553" y="1"/>
      <point x="526" y="-57" type="qcurve" smooth="yes"/>
      <point x="520" y="-71"/>
      <point x="481" y="-71"/>
      <point x="475" y="-57" type="qcurve" smooth="yes"/>
      <point x="453" y="-8"/>
      <point x="393" y="79"/>
      <point x="362" y="124"/>
      <point x="352" y="136" type="qcurve" smooth="yes"/>
      <point x="330" y="159"/>
      <point x="330" y="179"/>
      <point x="354" y="197"/>
      <point x="376" y="197"/>
      <point x="382" y="190" type="qcurve" smooth="yes"/>
      <point x="420" y="145"/>
      <point x="471" y="55" type="qcurve"/>
    </contour>
  </outline>
</glyph>
<glyph name="arrowupdn" format="1">
  <advance width="1000" height="1000"/>
  <unicode hex="2195"/>
  <outline>
    <contour>
      <point x="333" y="148" type="line" smooth="yes"/>
      <point x="329" y="154"/>
      <point x="329" y="169"/>
      <point x="354" y="187"/>
      <point x="377" y="187"/>
      <point x="385" y="177" type="qcurve" smooth="yes"/>
      <point x="422" y="131"/>
      <point x="471" y="46" type="qcurve"/>
      <point x="471" y="651" type="line"/>
      <point x="424" y="569"/>
      <point x="382" y="516" type="qcurve" smooth="yes"/>
      <point x="377" y="510"/>
      <point x="354" y="510"/>
      <point x="329" y="528"/>
      <point x="329" y="543"/>
      <point x="333" y="549" type="qcurve" smooth="yes"/>
      <point x="367" y="590" type="line" smooth="yes"/>
      <point x="393" y="627"/>
      <point x="454" y="714"/>
      <point x="476" y="763" type="qcurve" smooth="yes"/>
      <point x="482" y="777"/>
      <point x="520" y="777"/>
      <point x="534" y="746"/>
      <point x="599" y="629"/>
      <point x="668" y="549" type="qcurve" smooth="yes"/>
      <point x="672" y="543"/>
      <point x="672" y="528"/>
      <point x="647" y="510"/>
      <point x="624" y="510"/>
      <point x="616" y="520" type="qcurve" smooth="yes"/>
      <point x="575" y="571"/>
      <point x="529" y="651" type="qcurve"/>
      <point x="529" y="46" type="line"/>
      <point x="574" y="123"/>
      <point x="619" y="181" type="qcurve" smooth="yes"/>
      <point x="624" y="187"/>
      <point x="647" y="187"/>
      <point x="672" y="169"/>
      <point x="672" y="154"/>
      <point x="668" y="148" type="qcurve" smooth="yes"/>
      <point x="570" y="31"/>
      <point x="526" y="-66" type="qcurve" smooth="yes"/>
      <point x="520" y="-80"/>
      <point x="482" y="-80"/>
      <point x="476" y="-66" type="qcurve" smooth="yes"/>
      <point x="454" y="-17"/>
      <point x="393" y="69"/>
      <point x="367" y="107" type="qcurve"/>
    </contour>
  </outline>
</glyph>
<glyph name="uni2196" format="1">
  <advance width="1000" height="1000"/>
  <unicode hex="2196"/>
  <outline>
    <contour>
      <point x="267" y="562" type="line"/>
      <point x="291" y="474"/>
      <point x="299" y="403" type="qcurve"/>
      <point x="299" y="402" type="line" smooth="yes"/>
      <point x="299" y="390"/>
      <point x="276" y="376"/>
      <point x="266" y="376" type="qcurve" smooth="yes"/>
      <point x="244" y="376"/>
      <point x="242" y="391" type="qcurve" smooth="yes"/>
      <point x="223" y="560"/>
      <point x="190" y="644" type="qcurve" smooth="yes"/>
      <point x="189" y="646"/>
      <point x="189" y="663"/>
      <point x="206" y="680"/>
      <point x="222" y="680"/>
      <point x="241" y="673" type="qcurve" smooth="yes"/>
      <point x="319" y="644"/>
      <point x="478" y="627" type="qcurve" smooth="yes"/>
      <point x="493" y="626"/>
      <point x="493" y="594"/>
      <point x="479" y="570"/>
      <point x="467" y="570" type="qcurve" smooth="yes"/>
      <point x="466" y="570" type="line"/>
      <point x="407" y="577"/>
      <point x="307" y="602" type="qcurve"/>
      <point x="839" y="72" type="line" smooth="yes"/>
      <point x="846" y="65"/>
      <point x="846" y="45"/>
      <point x="825" y="24"/>
      <point x="806" y="24"/>
      <point x="801" y="29" type="qcurve" smooth="yes"/>
    </contour>
  </outline>
</glyph>
<glyph name="uni2197" format="1">
  <advance width="1000" height="1000"/>
  <unicode hex="2197"/>
  <outline>
    <contour>
      <point x="691" y="604" type="line"/>
      <point x="591" y="579"/>
      <point x="532" y="572" type="qcurve"/>
      <point x="531" y="572" type="line" smooth="yes"/>
      <point x="519" y="572"/>
      <point x="505" y="596"/>
      <point x="505" y="628"/>
      <point x="520" y="629" type="qcurve" smooth="yes"/>
      <point x="677" y="647"/>
      <point x="773" y="681" type="qcurve" smooth="yes"/>
      <point x="775" y="682"/>
      <point x="791" y="682"/>
      <point x="809" y="665"/>
      <point x="809" y="649"/>
      <point x="802" y="630" type="qcurve" smooth="yes"/>
      <point x="773" y="552"/>
      <point x="756" y="393" type="qcurve" smooth="yes"/>
      <point x="754" y="378"/>
      <point x="722" y="378"/>
      <point x="699" y="392"/>
      <point x="699" y="404" type="qcurve" smooth="yes"/>
      <point x="699" y="405" type="line"/>
      <point x="706" y="464"/>
      <point x="731" y="564" type="qcurve"/>
      <point x="201" y="32" type="line" smooth="yes"/>
      <point x="194" y="25"/>
      <point x="174" y="25"/>
      <point x="153" y="46"/>
      <point x="153" y="65"/>
      <point x="158" y="70" type="qcurve" smooth="yes"/>
    </contour>
  </outline>
</glyph>
<glyph name="uni21B6" format="1">
  <advance width="1000" height="1000"/>
  <unicode hex="21B6"/>
  <outline>
    <contour>
      <point x="172" y="310" type="qcurve"/>
      <point x="172" y="370" type="line" smooth="yes"/>
      <point x="172" y="475"/>
      <point x="274" y="646"/>
      <point x="445" y="748"/>
      <point x="550" y="748" type="qcurve" smooth="yes"/>
      <point x="654" y="748"/>
      <point x="826" y="646"/>
      <point x="928" y="475"/>
      <point x="928" y="370" type="qcurve"/>
      <point x="873" y="370" type="line"/>
      <point x="873" y="505"/>
      <point x="685" y="693"/>
      <point x="415" y="693"/>
      <point x="227" y="505"/>
      <point x="227" y="370" type="qcurve" smooth="yes"/>
      <point x="227" y="310" type="line"/>
      <point x="275" y="395"/>
      <point x="311" y="437" type="qcurve" smooth="yes"/>
      <point x="317" y="444"/>
      <point x="337" y="444"/>
      <point x="360" y="427"/>
      <point x="360" y="408"/>
      <point x="339" y="386" type="qcurve" smooth="yes"/>
      <point x="330" y="375"/>
      <point x="301" y="333"/>
      <point x="244" y="250"/>
      <point x="223" y="204" type="qcurve" smooth="yes"/>
      <point x="217" y="191"/>
      <point x="181" y="191"/>
      <point x="175" y="204" type="qcurve" smooth="yes"/>
      <point x="149" y="259"/>
      <point x="84" y="354" type="qcurve" smooth="yes"/>
      <point x="69" y="375"/>
      <point x="49" y="397"/>
      <point x="39" y="412"/>
      <point x="39" y="427"/>
      <point x="62" y="444"/>
      <point x="82" y="444"/>
      <point x="88" y="437" type="qcurve" smooth="yes"/>
      <point x="124" y="395"/>
    </contour>
  </outline>
</glyph>
<glyph name="uni21B7" format="1">
  <advance width="1000" height="1000"/>
  <unicode hex="21B7"/>
  <outline>
    <contour>
      <point x="773" y="370" type="line" smooth="yes"/>
      <point x="773" y="505"/>
      <point x="585" y="693"/>
      <point x="315" y="693"/>
      <point x="127" y="505"/>
      <point x="127" y="370" type="qcurve"/>
      <point x="72" y="370" type="line"/>
      <point x="72" y="475"/>
      <point x="174" y="646"/>
      <point x="346" y="748"/>
      <point x="450" y="748" type="qcurve" smooth="yes"/>
      <point x="555" y="748"/>
      <point x="726" y="646"/>
      <point x="828" y="475"/>
      <point x="828" y="370" type="qcurve" smooth="yes"/>
      <point x="828" y="310" type="line"/>
      <point x="876" y="395"/>
      <point x="912" y="437" type="qcurve" smooth="yes"/>
      <point x="918" y="444"/>
      <point x="938" y="444"/>
      <point x="961" y="427"/>
      <point x="961" y="412"/>
      <point x="951" y="397"/>
      <point x="931" y="375"/>
      <point x="916" y="354" type="qcurve" smooth="yes"/>
      <point x="851" y="259"/>
      <point x="825" y="204" type="qcurve" smooth="yes"/>
      <point x="819" y="191"/>
      <point x="783" y="191"/>
      <point x="777" y="204" type="qcurve" smooth="yes"/>
      <point x="756" y="250"/>
      <point x="699" y="333"/>
      <point x="670" y="375"/>
      <point x="661" y="386" type="qcurve" smooth="yes"/>
      <point x="640" y="408"/>
      <point x="640" y="427"/>
      <point x="663" y="444"/>
      <point x="683" y="444"/>
      <point x="689" y="437" type="qcurve" smooth="yes"/>
      <point x="725" y="395"/>
      <point x="773" y="310" type="qcurve"/>
    </contour>
  </outline>
</glyph>
<glyph name="uni21B8" format="1">
  <advance width="1000" height="1000"/>
  <unicode hex="21B8"/>
  <outline>
    <contour>
      <point x="815" y="810" type="line" smooth="yes"/>
      <point x="828" y="810"/>
      <point x="891" y="813" type="qcurve" smooth="yes"/>
      <point x="892" y="813" type="line" smooth="yes"/>
      <point x="902" y="813"/>
      <point x="914" y="788"/>
      <point x="914" y="776" type="qcurve" smooth="yes"/>
      <point x="914" y="747"/>
      <point x="897" y="747" type="qcurve" smooth="yes"/>
      <point x="814" y="748" type="line"/>
      <point x="187" y="742" type="line" smooth="yes"/>
      <point x="124" y="742"/>
      <point x="106" y="739" type="qcurve" smooth="yes"/>
      <point x="105" y="739" type="line" smooth="yes"/>
      <point x="96" y="739"/>
      <point x="85" y="767"/>
      <point x="85" y="806"/>
      <point x="101" y="806" type="qcurve" smooth="yes"/>
      <point x="131" y="804"/>
      <point x="188" y="804" type="qcurve" smooth="yes"/>
    </contour>
    <contour>
      <point x="267" y="562" type="line"/>
      <point x="291" y="474"/>
      <point x="299" y="403" type="qcurve"/>
      <point x="299" y="402" type="line" smooth="yes"/>
      <point x="299" y="390"/>
      <point x="276" y="376"/>
      <point x="266" y="376" type="qcurve" smooth="yes"/>
      <point x="244" y="376"/>
      <point x="242" y="391" type="qcurve" smooth="yes"/>
      <point x="223" y="560"/>
      <point x="190" y="644" type="qcurve" smooth="yes"/>
      <point x="189" y="646"/>
      <point x="189" y="663"/>
      <point x="206" y="680"/>
      <point x="222" y="680"/>
      <point x="241" y="673" type="qcurve" smooth="yes"/>
      <point x="319" y="644"/>
      <point x="478" y="627" type="qcurve" smooth="yes"/>
      <point x="493" y="626"/>
      <point x="493" y="594"/>
      <point x="479" y="570"/>
      <point x="467" y="570" type="qcurve" smooth="yes"/>
      <point x="466" y="570" type="line"/>
      <point x="407" y="577"/>
      <point x="307" y="602" type="qcurve"/>
      <point x="839" y="72" type="line" smooth="yes"/>
      <point x="846" y="65"/>
      <point x="846" y="45"/>
      <point x="825" y="24"/>
      <point x="806" y="24"/>
      <point x="801" y="29" type="qcurve" smooth="yes"/>
    </contour>
  </outline>
</glyph>
<glyph name="uni21CB" format="1">
  <advance width="1000" height="1000"/>
  <unicode hex="21CB"/>
  <outline>
    <contour>
      <point x="912" y="235" type="line" smooth="yes"/>
      <point x="944" y="235"/>
      <point x="944" y="207" type="qcurve" smooth="yes"/>
      <point x="944" y="193"/>
      <point x="922" y="182" type="qcurve" smooth="yes"/>
      <point x="843" y="142"/>
      <point x="746" y="69"/>
      <point x="707" y="39" type="qcurve" smooth="yes"/>
      <point x="701" y="35"/>
      <point x="686" y="35"/>
      <point x="664" y="61"/>
      <point x="664" y="74" type="qcurve" smooth="yes"/>
      <point x="664" y="96"/>
      <point x="805" y="177" type="qcurve"/>
      <point x="78" y="177" type="line" smooth="yes"/>
      <point x="66" y="177"/>
      <point x="54" y="196"/>
      <point x="54" y="218"/>
      <point x="65" y="235"/>
      <point x="75" y="235" type="qcurve" smooth="yes"/>
    </contour>
    <contour>
      <point x="88" y="530" type="line" smooth="yes"/>
      <point x="56" y="530"/>
      <point x="56" y="558" type="qcurve" smooth="yes"/>
      <point x="56" y="572"/>
      <point x="78" y="583" type="qcurve" smooth="yes"/>
      <point x="170" y="630"/>
      <point x="252" y="692" type="qcurve"/>
      <point x="293" y="726" type="line" smooth="yes"/>
      <point x="299" y="730"/>
      <point x="314" y="730"/>
      <point x="336" y="704"/>
      <point x="336" y="691" type="qcurve" smooth="yes"/>
      <point x="336" y="669"/>
      <point x="195" y="588" type="qcurve"/>
      <point x="922" y="588" type="line" smooth="yes"/>
      <point x="934" y="588"/>
      <point x="946" y="569"/>
      <point x="946" y="558" type="qcurve" smooth="yes"/>
      <point x="946" y="530"/>
      <point x="925" y="530" type="qcurve" smooth="yes"/>
    </contour>
  </outline>
</glyph>
<glyph name="uni21CC" format="1">
  <advance width="1000" height="1000"/>
  <unicode hex="21CC"/>
  <outline>
    <contour>
      <point x="924" y="235" type="line" smooth="yes"/>
      <point x="945" y="235"/>
      <point x="945" y="207" type="qcurve" smooth="yes"/>
      <point x="945" y="196"/>
      <point x="933" y="177"/>
      <point x="921" y="177" type="qcurve" smooth="yes"/>
      <point x="194" y="177" type="line"/>
      <point x="335" y="96"/>
      <point x="335" y="74" type="qcurve" smooth="yes"/>
      <point x="335" y="61"/>
      <point x="313" y="35"/>
      <point x="298" y="35"/>
      <point x="292" y="39" type="qcurve" smooth="yes"/>
      <point x="196" y="113"/>
      <point x="123" y="159"/>
      <point x="77" y="182" type="qcurve" smooth="yes"/>
      <point x="55" y="193"/>
      <point x="55" y="207" type="qcurve" smooth="yes"/>
      <point x="55" y="235"/>
      <point x="87" y="235" type="qcurve" smooth="yes"/>
    </contour>
    <contour>
      <point x="804" y="588" type="line"/>
      <point x="663" y="669"/>
      <point x="663" y="691" type="qcurve" smooth="yes"/>
      <point x="663" y="704"/>
      <point x="685" y="730"/>
      <point x="700" y="730"/>
      <point x="706" y="726" type="qcurve" smooth="yes"/>
      <point x="747" y="692" type="line"/>
      <point x="829" y="630"/>
      <point x="921" y="583" type="qcurve" smooth="yes"/>
      <point x="943" y="572"/>
      <point x="943" y="558" type="qcurve" smooth="yes"/>
      <point x="943" y="530"/>
      <point x="911" y="530" type="qcurve" smooth="yes"/>
      <point x="74" y="530" type="line" smooth="yes"/>
      <point x="64" y="530"/>
      <point x="53" y="548"/>
      <point x="53" y="569"/>
      <point x="65" y="588"/>
      <point x="77" y="588" type="qcurve" smooth="yes"/>
    </contour>
  </outline>
</glyph>
<glyph name="arrowdblleft" format="1">
  <advance width="1000" height="1000"/>
  <unicode hex="21D0"/>
  <outline>
    <contour>
      <point x="926" y="254" type="line" smooth="yes"/>
      <point x="947" y="254"/>
      <point x="947" y="224" type="qcurve" smooth="yes"/>
      <point x="947" y="213"/>
      <point x="937" y="193"/>
      <point x="926" y="193" type="qcurve" smooth="yes"/>
      <point x="291" y="193" type="line"/>
      <point x="401" y="83" type="line" smooth="yes"/>
      <point x="409" y="75"/>
      <point x="409" y="54"/>
      <point x="388" y="34"/>
      <point x="364" y="34"/>
      <point x="357" y="41" type="qcurve" smooth="yes"/>
      <point x="50" y="347" type="line" smooth="yes"/>
      <point x="42" y="355"/>
      <point x="42" y="378"/>
      <point x="51" y="387" type="qcurve" smooth="yes"/>
      <point x="358" y="694" type="line" smooth="yes"/>
      <point x="365" y="701"/>
      <point x="388" y="701"/>
      <point x="408" y="681"/>
      <point x="408" y="659"/>
      <point x="401" y="652" type="qcurve" smooth="yes"/>
      <point x="291" y="541" type="line"/>
      <point x="926" y="541" type="line" smooth="yes"/>
      <point x="947" y="541"/>
      <point x="947" y="511" type="qcurve" smooth="yes"/>
      <point x="947" y="500"/>
      <point x="937" y="480"/>
      <point x="926" y="480" type="qcurve" smooth="yes"/>
      <point x="228" y="480" type="line"/>
      <point x="114" y="368" type="line"/>
      <point x="228" y="254" type="line"/>
    </contour>
  </outline>
</glyph>
<glyph name="arrowdblright" format="1">
  <advance width="1000" height="1000"/>
  <unicode hex="21D2"/>
  <outline>
    <contour>
      <point x="623" y="41" type="line" smooth="yes"/>
      <point x="616" y="34"/>
      <point x="592" y="34"/>
      <point x="571" y="54"/>
      <point x="571" y="75"/>
      <point x="579" y="83" type="qcurve" smooth="yes"/>
      <point x="689" y="193" type="line"/>
      <point x="94" y="193" type="line" smooth="yes"/>
      <point x="84" y="193"/>
      <point x="73" y="213"/>
      <point x="73" y="235"/>
      <point x="84" y="254"/>
      <point x="94" y="254" type="qcurve" smooth="yes"/>
      <point x="752" y="254" type="line"/>
      <point x="866" y="368" type="line"/>
      <point x="752" y="480" type="line"/>
      <point x="94" y="480" type="line" smooth="yes"/>
      <point x="84" y="480"/>
      <point x="73" y="500"/>
      <point x="73" y="522"/>
      <point x="84" y="541"/>
      <point x="94" y="541" type="qcurve" smooth="yes"/>
      <point x="689" y="541" type="line"/>
      <point x="579" y="652" type="line" smooth="yes"/>
      <point x="572" y="659"/>
      <point x="572" y="681"/>
      <point x="592" y="701"/>
      <point x="615" y="701"/>
      <point x="622" y="694" type="qcurve" smooth="yes"/>
      <point x="929" y="387" type="line" smooth="yes"/>
      <point x="938" y="378"/>
      <point x="938" y="355"/>
      <point x="930" y="347" type="qcurve" smooth="yes"/>
    </contour>
  </outline>
</glyph>
<glyph name="arrowdblboth" format="1">
  <advance width="1000" height="1000"/>
  <unicode hex="21D4"/>
  <outline>
    <contour>
      <point x="734" y="499" type="line"/>
      <point x="270" y="499" type="line"/>
      <point x="138" y="368" type="line"/>
      <point x="261" y="244" type="line"/>
      <point x="742" y="244" type="line"/>
      <point x="866" y="368" type="line"/>
    </contour>
    <contour>
      <point x="645" y="63" type="line" smooth="yes"/>
      <point x="637" y="55"/>
      <point x="614" y="55"/>
      <point x="594" y="74"/>
      <point x="594" y="98"/>
      <point x="602" y="106" type="qcurve" smooth="yes"/>
      <point x="680" y="184" type="line"/>
      <point x="323" y="184" type="line"/>
      <point x="400" y="106" type="line" smooth="yes"/>
      <point x="408" y="98"/>
      <point x="408" y="74"/>
      <point x="390" y="55"/>
      <point x="367" y="55"/>
      <point x="358" y="64" type="qcurve" smooth="yes"/>
      <point x="80" y="342" type="line" smooth="yes"/>
      <point x="68" y="356"/>
      <point x="68" y="380"/>
      <point x="80" y="392" type="qcurve" smooth="yes"/>
      <point x="359" y="671" type="line" smooth="yes"/>
      <point x="366" y="678"/>
      <point x="389" y="678"/>
      <point x="408" y="659"/>
      <point x="408" y="637"/>
      <point x="401" y="630" type="qcurve" smooth="yes"/>
      <point x="331" y="559" type="line"/>
      <point x="672" y="559" type="line"/>
      <point x="602" y="630" type="line" smooth="yes"/>
      <point x="595" y="637"/>
      <point x="595" y="660"/>
      <point x="614" y="679"/>
      <point x="634" y="679"/>
      <point x="644" y="671" type="qcurve" smooth="yes"/>
      <point x="922" y="393" type="line" smooth="yes"/>
      <point x="933" y="380"/>
      <point x="933" y="352"/>
      <point x="921" y="340" type="qcurve" smooth="yes"/>
    </contour>
  </outline>
</glyph>
<glyph name="uni21E7" format="1">
  <advance width="1000" height="1000"/>
  <unicode hex="21E7"/>
  <outline>
    <contour>
      <point x="584" y="514" type="line"/>
      <point x="711" y="514" type="line"/>
      <point x="499" y="765" type="line"/>
      <point x="288" y="514" type="line"/>
      <point x="413" y="514" type="line"/>
      <point x="413" y="30" type="line"/>
      <point x="584" y="30" type="line"/>
    </contour>
    <contour>
      <point x="368" y="-15" type="line"/>
      <point x="368" y="469" type="line"/>
      <point x="190" y="469" type="line"/>
      <point x="499" y="833" type="line"/>
      <point x="807" y="469" type="line"/>
      <point x="629" y="469" type="line"/>
      <point x="629" y="-15" type="line"/>
    </contour>
  </outline>
</glyph>
<glyph name="uni21E8" format="1">
  <advance width="1000" height="1000"/>
  <unicode hex="21E8"/>
  <outline>
    <contour>
      <point x="639" y="591" type="line"/>
      <point x="639" y="465" type="line"/>
      <point x="155" y="465" type="line"/>
      <point x="155" y="294" type="line"/>
      <point x="639" y="294" type="line"/>
      <point x="639" y="169" type="line"/>
      <point x="889" y="380" type="line"/>
    </contour>
    <contour>
      <point x="594" y="71" type="line"/>
      <point x="594" y="249" type="line"/>
      <point x="110" y="249" type="line"/>
      <point x="110" y="510" type="line"/>
      <point x="594" y="510" type="line"/>
      <point x="594" y="688" type="line"/>
      <point x="958" y="380" type="line"/>
    </contour>
  </outline>
</glyph>
<glyph name="universal" format="1">
  <advance width="1000" height="1000"/>
  <unicode hex="2200"/>
  <outline>
    <contour>
      <point x="685" y="476" type="line"/>
      <point x="313" y="476" type="line"/>
      <point x="501" y="113" type="line"/>
    </contour>
    <contour>
      <point x="130" y="706" type="line" smooth="yes"/>
      <point x="127" y="711"/>
      <point x="127" y="725"/>
      <point x="148" y="738"/>
      <point x="178" y="738"/>
      <point x="186" y="723" type="qcurve" smooth="yes"/>
      <point x="282" y="535" type="line"/>
      <point x="716" y="535" type="line"/>
      <point x="811" y="723" type="line" smooth="yes"/>
      <point x="819" y="739"/>
      <point x="836" y="739" type="qcurve" smooth="yes"/>
      <point x="871" y="739"/>
      <point x="871" y="718" type="qcurve" smooth="yes"/>
      <point x="871" y="713"/>
      <point x="868" y="707" type="qcurve" smooth="yes"/>
      <point x="522" y="35" type="line" smooth="yes"/>
      <point x="514" y="18"/>
      <point x="487" y="18"/>
      <point x="479" y="34" type="qcurve" smooth="yes"/>
    </contour>
  </outline>
</glyph>
<glyph name="partialdiff" format="1">
  <advance width="1000" height="1000"/>
  <unicode hex="2202"/>
  <outline>
    <contour>
      <point x="696" y="303" type="qcurve"/>
      <point x="580" y="360"/>
      <point x="468" y="360" type="qcurve" smooth="yes"/>
      <point x="407" y="360"/>
      <point x="342" y="312"/>
      <point x="342" y="171"/>
      <point x="451" y="48"/>
      <point x="515" y="48" type="qcurve" smooth="yes"/>
      <point x="602" y="48"/>
      <point x="656" y="171" type="qcurve" smooth="yes"/>
      <point x="682" y="229"/>
    </contour>
    <contour>
      <point x="797" y="253" type="qcurve" smooth="yes"/>
      <point x="792" y="253"/>
      <point x="759" y="271" type="qcurve"/>
      <point x="721" y="93"/>
      <point x="624" y="20" type="qcurve" smooth="yes"/>
      <point x="575" y="-17"/>
      <point x="524" y="-17" type="qcurve" smooth="yes"/>
      <point x="430" y="-17"/>
      <point x="273" y="150"/>
      <point x="273" y="240" type="qcurve" smooth="yes"/>
      <point x="273" y="425"/>
      <point x="470" y="425" type="qcurve" smooth="yes"/>
      <point x="582" y="425"/>
      <point x="704" y="354" type="qcurve"/>
      <point x="709" y="392"/>
      <point x="709" y="494"/>
      <point x="700" y="542" type="qcurve" smooth="yes"/>
      <point x="679" y="650"/>
      <point x="501" y="650"/>
      <point x="435" y="608" type="qcurve" smooth="yes"/>
      <point x="412" y="594"/>
      <point x="403" y="585"/>
      <point x="380" y="585"/>
      <point x="353" y="622"/>
      <point x="353" y="647"/>
      <point x="359" y="651" type="qcurve" smooth="yes"/>
      <point x="451" y="714"/>
      <point x="595" y="714" type="qcurve" smooth="yes"/>
      <point x="656" y="714"/>
      <point x="737" y="640"/>
      <point x="777" y="519"/>
      <point x="777" y="378"/>
      <point x="767" y="314" type="qcurve"/>
      <point x="796" y="291"/>
      <point x="811" y="274"/>
      <point x="811" y="266" type="qcurve" smooth="yes"/>
      <point x="811" y="253"/>
    </contour>
  </outline>
</glyph>
<glyph name="emptyset" format="1">
  <advance width="1000" height="1000"/>
  <unicode hex="2205"/>
  <outline>
    <contour>
      <point x="292" y="122" type="line"/>
      <point x="382" y="47"/>
      <point x="500" y="47" type="qcurve" smooth="yes"/>
      <point x="635" y="47"/>
      <point x="729" y="141" type="qcurve" smooth="yes"/>
      <point x="773" y="185"/>
      <point x="823" y="303"/>
      <point x="823" y="366" type="qcurve" smooth="yes"/>
      <point x="823" y="488"/>
      <point x="748" y="578" type="qcurve"/>
    </contour>
    <contour>
      <point x="710" y="616" type="line"/>
      <point x="623" y="693"/>
      <point x="500" y="693" type="qcurve" smooth="yes"/>
      <point x="433" y="693"/>
      <point x="315" y="643"/>
      <point x="271" y="599" type="qcurve" smooth="yes"/>
      <point x="177" y="505"/>
      <point x="177" y="370" type="qcurve" smooth="yes"/>
      <point x="177" y="252"/>
      <point x="253" y="159" type="qcurve"/>
    </contour>
    <contour>
      <point x="500" y="748" type="qcurve" smooth="yes"/>
      <point x="643" y="748"/>
      <point x="749" y="655" type="qcurve"/>
      <point x="817" y="723" type="line" smooth="yes"/>
      <point x="820" y="726"/>
      <point x="836" y="726"/>
      <point x="858" y="704"/>
      <point x="858" y="688"/>
      <point x="855" y="685" type="qcurve" smooth="yes"/>
      <point x="786" y="617" type="line"/>
      <point x="878" y="512"/>
      <point x="878" y="370" type="qcurve" smooth="yes"/>
      <point x="878" y="292"/>
      <point x="819" y="155"/>
      <point x="715" y="51"/>
      <point x="578" y="-8"/>
      <point x="500" y="-8" type="qcurve" smooth="yes"/>
      <point x="359" y="-8"/>
      <point x="253" y="83" type="qcurve"/>
      <point x="185" y="15" type="line" smooth="yes"/>
      <point x="182" y="12"/>
      <point x="167" y="12"/>
      <point x="144" y="35"/>
      <point x="144" y="50"/>
      <point x="147" y="53" type="qcurve" smooth="yes"/>
      <point x="215" y="121" type="line"/>
      <point x="122" y="229"/>
      <point x="122" y="370" type="qcurve" smooth="yes"/>
      <point x="122" y="448"/>
      <point x="181" y="585"/>
      <point x="285" y="689"/>
      <point x="422" y="748"/>
    </contour>
  </outline>
</glyph>
<glyph name="Delta" format="1">
  <advance width="1000" height="1000"/>
  <unicode hex="2206"/>
  <outline>
    <contour>
      <point x="490" y="573" type="line"/>
      <point x="254" y="66" type="line"/>
      <point x="720" y="66" type="line"/>
    </contour>
    <contour>
      <point x="815" y="31" type="qcurve" smooth="yes"/>
      <point x="815" y="20"/>
      <point x="798" y="6"/>
      <point x="784" y="6" type="qcurve" smooth="yes"/>
      <point x="224" y="6" type="line" smooth="yes"/>
      <point x="210" y="6"/>
      <point x="193" y="20"/>
      <point x="193" y="31" type="qcurve" smooth="yes"/>
      <point x="193" y="38"/>
      <point x="198" y="50" type="qcurve" smooth="yes"/>
      <point x="488" y="672" type="line" smooth="yes"/>
      <point x="495" y="687"/>
      <point x="508" y="687" type="qcurve" smooth="yes"/>
      <point x="513" y="687"/>
      <point x="524" y="680"/>
      <point x="527" y="673" type="qcurve" smooth="yes"/>
      <point x="810" y="50" type="line" smooth="yes"/>
      <point x="815" y="38"/>
    </contour>
  </outline>
</glyph>
<glyph name="element" format="1">
  <advance width="1000" height="1000"/>
  <unicode hex="2208"/>
  <outline>
    <contour>
      <point x="820" y="75"/>
      <point x="800" y="75" type="qcurve" smooth="yes"/>
      <point x="437" y="75" type="line" smooth="yes"/>
      <point x="358" y="75"/>
      <point x="234" y="151"/>
      <point x="163" y="283"/>
      <point x="163" y="450"/>
      <point x="234" y="581"/>
      <point x="358" y="657"/>
      <point x="437" y="657" type="qcurve" smooth="yes"/>
      <point x="800" y="657" type="line" smooth="yes"/>
      <point x="820" y="657"/>
      <point x="820" y="595"/>
      <point x="800" y="595" type="qcurve" smooth="yes"/>
      <point x="440" y="595" type="line" smooth="yes"/>
      <point x="389" y="595"/>
      <point x="301" y="549"/>
      <point x="241" y="461"/>
      <point x="232" y="399" type="qcurve"/>
      <point x="800" y="399" type="line" smooth="yes"/>
      <point x="820" y="399"/>
      <point x="820" y="337"/>
      <point x="800" y="337" type="qcurve" smooth="yes"/>
      <point x="232" y="337" type="line"/>
      <point x="240" y="274"/>
      <point x="300" y="184"/>
      <point x="389" y="137"/>
      <point x="440" y="137" type="qcurve" smooth="yes"/>
      <point x="800" y="137" type="line" smooth="yes"/>
      <point x="820" y="137"/>
    </contour>
  </outline>
</glyph>
<glyph name="suchthat" format="1">
  <advance width="1000" height="1000"/>
  <unicode hex="220B"/>
  <outline>
    <contour>
      <point x="200" y="75" type="line" smooth="yes"/>
      <point x="190" y="75"/>
      <point x="180" y="95"/>
      <point x="180" y="118"/>
      <point x="190" y="137"/>
      <point x="200" y="137" type="qcurve" smooth="yes"/>
      <point x="560" y="137" type="line" smooth="yes"/>
      <point x="669" y="137"/>
      <point x="730" y="229" type="qcurve" smooth="yes"/>
      <point x="760" y="274"/>
      <point x="768" y="337" type="qcurve"/>
      <point x="200" y="337" type="line" smooth="yes"/>
      <point x="190" y="337"/>
      <point x="180" y="357"/>
      <point x="180" y="380"/>
      <point x="190" y="399"/>
      <point x="200" y="399" type="qcurve" smooth="yes"/>
      <point x="768" y="399" type="line"/>
      <point x="759" y="461"/>
      <point x="699" y="549"/>
      <point x="611" y="595"/>
      <point x="560" y="595" type="qcurve" smooth="yes"/>
      <point x="200" y="595" type="line" smooth="yes"/>
      <point x="190" y="595"/>
      <point x="180" y="615"/>
      <point x="180" y="638"/>
      <point x="190" y="657"/>
      <point x="200" y="657" type="qcurve" smooth="yes"/>
      <point x="563" y="657" type="line" smooth="yes"/>
      <point x="643" y="657"/>
      <point x="766" y="581"/>
      <point x="837" y="450"/>
      <point x="837" y="283"/>
      <point x="766" y="151"/>
      <point x="642" y="75"/>
      <point x="563" y="75" type="qcurve" smooth="yes"/>
    </contour>
  </outline>
</glyph>
<glyph name="product" format="1">
  <advance width="1000" height="1000"/>
  <unicode hex="220F"/>
  <outline>
    <contour>
      <point x="375" y="627" type="line"/>
      <point x="375" y="106" type="line" smooth="yes"/>
      <point x="375" y="80"/>
      <point x="377" y="38" type="qcurve" smooth="yes"/>
      <point x="378" y="0" type="line" smooth="yes"/>
      <point x="378" y="-11"/>
      <point x="355" y="-11" type="qcurve" smooth="yes"/>
      <point x="336" y="-11"/>
      <point x="301" y="5"/>
      <point x="301" y="18" type="qcurve" smooth="yes"/>
      <point x="301" y="34"/>
      <point x="302" y="46" type="qcurve" smooth="yes"/>
      <point x="303" y="107" type="line"/>
      <point x="303" y="625" type="line"/>
      <point x="256" y="619" type="line" smooth="yes"/>
      <point x="250" y="618"/>
      <point x="238" y="616"/>
      <point x="232" y="616" type="qcurve" smooth="yes"/>
      <point x="231" y="616" type="line" smooth="yes"/>
      <point x="219" y="616"/>
      <point x="198" y="652"/>
      <point x="198" y="669" type="qcurve" smooth="yes"/>
      <point x="198" y="687"/>
      <point x="211" y="687" type="qcurve" smooth="yes"/>
      <point x="218" y="687"/>
      <point x="253" y="685"/>
      <point x="282" y="685" type="qcurve" smooth="yes"/>
      <point x="314" y="686" type="line"/>
      <point x="686" y="704" type="line" smooth="yes"/>
      <point x="747" y="708"/>
      <point x="769" y="712" type="qcurve"/>
      <point x="771" y="712" type="line" smooth="yes"/>
      <point x="783" y="712"/>
      <point x="802" y="676"/>
      <point x="802" y="659" type="qcurve" smooth="yes"/>
      <point x="802" y="641"/>
      <point x="790" y="641" type="qcurve" smooth="yes"/>
      <point x="777" y="641"/>
      <point x="768" y="642" type="qcurve" smooth="yes"/>
      <point x="740" y="644"/>
      <point x="720" y="644" type="qcurve" smooth="yes"/>
      <point x="698" y="643" type="line"/>
      <point x="698" y="106" type="line" smooth="yes"/>
      <point x="698" y="80"/>
      <point x="700" y="38" type="qcurve" smooth="yes"/>
      <point x="701" y="0" type="line" smooth="yes"/>
      <point x="701" y="-11"/>
      <point x="678" y="-11" type="qcurve" smooth="yes"/>
      <point x="659" y="-11"/>
      <point x="624" y="5"/>
      <point x="624" y="18" type="qcurve" smooth="yes"/>
      <point x="624" y="34"/>
      <point x="625" y="46" type="qcurve" smooth="yes"/>
      <point x="626" y="107" type="line"/>
      <point x="626" y="640" type="line"/>
    </contour>
  </outline>
</glyph>
<glyph name="uni2213" format="1">
  <advance width="1000" height="1000"/>
  <unicode hex="2213"/>
  <outline>
    <contour>
      <point x="735" y="311" type="line" smooth="yes"/>
      <point x="748" y="311"/>
      <point x="811" y="314" type="qcurve" smooth="yes"/>
      <point x="812" y="314" type="line" smooth="yes"/>
      <point x="822" y="314"/>
      <point x="834" y="289"/>
      <point x="834" y="277" type="qcurve" smooth="yes"/>
      <point x="834" y="248"/>
      <point x="817" y="248" type="qcurve" smooth="yes"/>
      <point x="734" y="249" type="line"/>
      <point x="531" y="246" type="line"/>
      <point x="531" y="121" type="line"/>
      <point x="532" y="38" type="line" smooth="yes"/>
      <point x="532" y="22"/>
      <point x="505" y="22" type="qcurve" smooth="yes"/>
      <point x="491" y="22"/>
      <point x="466" y="33"/>
      <point x="466" y="43" type="qcurve" smooth="yes"/>
      <point x="466" y="44" type="line" smooth="yes"/>
      <point x="469" y="76"/>
      <point x="469" y="120" type="qcurve" smooth="yes"/>
      <point x="469" y="245" type="line"/>
      <point x="267" y="243" type="line" smooth="yes"/>
      <point x="204" y="243"/>
      <point x="186" y="240" type="qcurve" smooth="yes"/>
      <point x="185" y="240" type="line" smooth="yes"/>
      <point x="176" y="240"/>
      <point x="165" y="268"/>
      <point x="165" y="307"/>
      <point x="181" y="307" type="qcurve" smooth="yes"/>
      <point x="211" y="305"/>
      <point x="268" y="305" type="qcurve" smooth="yes"/>
      <point x="469" y="308" type="line"/>
      <point x="469" y="419" type="line" smooth="yes"/>
      <point x="469" y="476"/>
      <point x="467" y="506" type="qcurve" smooth="yes"/>
      <point x="467" y="522"/>
      <point x="493" y="522" type="qcurve" smooth="yes"/>
      <point x="507" y="522"/>
      <point x="534" y="511"/>
      <point x="534" y="502" type="qcurve" smooth="yes"/>
      <point x="534" y="501" type="line" smooth="yes"/>
      <point x="531" y="465"/>
      <point x="531" y="420" type="qcurve" smooth="yes"/>
      <point x="531" y="308" type="line"/>
    </contour>
    <contour>
      <point x="735" y="670" type="line" smooth="yes"/>
      <point x="748" y="670"/>
      <point x="811" y="673" type="qcurve" smooth="yes"/>
      <point x="812" y="673" type="line" smooth="yes"/>
      <point x="822" y="673"/>
      <point x="834" y="648"/>
      <point x="834" y="636" type="qcurve" smooth="yes"/>
      <point x="834" y="607"/>
      <point x="817" y="607" type="qcurve" smooth="yes"/>
      <point x="734" y="608" type="line"/>
      <point x="267" y="602" type="line" smooth="yes"/>
      <point x="204" y="602"/>
      <point x="186" y="599" type="qcurve" smooth="yes"/>
      <point x="185" y="599" type="line" smooth="yes"/>
      <point x="176" y="599"/>
      <point x="165" y="627"/>
      <point x="165" y="666"/>
      <point x="181" y="666" type="qcurve" smooth="yes"/>
      <point x="211" y="664"/>
      <point x="268" y="664" type="qcurve" smooth="yes"/>
    </contour>
  </outline>
</glyph>
<glyph name="proportional" format="1">
  <advance width="1000" height="1000"/>
  <unicode hex="221D"/>
  <outline>
    <contour>
      <point x="458" y="389" type="line" smooth="yes"/>
      <point x="435" y="451"/>
      <point x="378" y="510"/>
      <point x="277" y="510"/>
      <point x="204" y="459"/>
      <point x="160" y="380"/>
      <point x="160" y="330" type="qcurve" smooth="yes"/>
      <point x="160" y="224"/>
      <point x="280" y="224" type="qcurve" smooth="yes"/>
      <point x="369" y="224"/>
      <point x="423" y="290" type="qcurve" smooth="yes"/>
      <point x="445" y="316"/>
      <point x="466" y="359"/>
      <point x="467" y="363" type="qcurve" smooth="yes"/>
    </contour>
    <contour>
      <point x="497" y="299" type="qcurve"/>
      <point x="449" y="218"/>
      <point x="374" y="182" type="qcurve" smooth="yes"/>
      <point x="332" y="163"/>
      <point x="280" y="163" type="qcurve" smooth="yes"/>
      <point x="196" y="163"/>
      <point x="96" y="256"/>
      <point x="96" y="428"/>
      <point x="233" y="573"/>
      <point x="398" y="573"/>
      <point x="478" y="493"/>
      <point x="500" y="431" type="qcurve"/>
      <point x="549" y="515"/>
      <point x="626" y="552" type="qcurve" smooth="yes"/>
      <point x="668" y="573"/>
      <point x="778" y="573"/>
      <point x="870" y="528"/>
      <point x="886" y="483" type="qcurve" smooth="yes"/>
      <point x="887" y="481"/>
      <point x="887" y="463"/>
      <point x="858" y="434"/>
      <point x="840" y="434"/>
      <point x="837" y="442" type="qcurve" smooth="yes"/>
      <point x="823" y="489"/>
      <point x="759" y="512"/>
      <point x="719" y="512" type="qcurve" smooth="yes"/>
      <point x="656" y="512"/>
      <point x="565" y="438"/>
      <point x="537" y="378" type="qcurve" smooth="yes"/>
      <point x="533" y="369"/>
      <point x="531" y="365" type="qcurve" smooth="yes"/>
      <point x="537" y="353"/>
      <point x="541" y="337" type="qcurve" smooth="yes"/>
      <point x="562" y="270"/>
      <point x="646" y="212"/>
      <point x="692" y="212" type="qcurve" smooth="yes"/>
      <point x="759" y="212"/>
      <point x="808" y="259" type="qcurve" smooth="yes"/>
      <point x="816" y="267"/>
      <point x="825" y="267" type="qcurve" smooth="yes"/>
      <point x="838" y="267"/>
      <point x="838" y="240"/>
      <point x="795" y="197"/>
      <point x="722" y="163"/>
      <point x="621" y="163"/>
      <point x="522" y="227"/>
    </contour>
  </outline>
</glyph>
<glyph name="infinity" format="1">
  <advance width="1000" height="1000"/>
  <unicode hex="221E"/>
  <outline>
    <contour>
      <point x="465" y="372" type="qcurve"/>
      <point x="451" y="416"/>
      <point x="417" y="482"/>
      <point x="365" y="519"/>
      <point x="279" y="519"/>
      <point x="205" y="467"/>
      <point x="160" y="388"/>
      <point x="160" y="347" type="qcurve" smooth="yes"/>
      <point x="160" y="235"/>
      <point x="280" y="235" type="qcurve" smooth="yes"/>
      <point x="369" y="235"/>
      <point x="428" y="310" type="qcurve" smooth="yes"/>
      <point x="453" y="342"/>
    </contour>
    <contour>
      <point x="541" y="348" type="line" smooth="yes"/>
      <point x="556" y="311"/>
      <point x="572" y="286" type="qcurve" smooth="yes"/>
      <point x="605" y="235"/>
      <point x="680" y="235" type="qcurve" smooth="yes"/>
      <point x="722" y="235"/>
      <point x="795" y="284"/>
      <point x="840" y="363"/>
      <point x="840" y="463"/>
      <point x="777" y="519"/>
      <point x="658" y="519"/>
      <point x="557" y="436"/>
      <point x="532" y="373" type="qcurve"/>
    </contour>
    <contour>
      <point x="496" y="294" type="qcurve"/>
      <point x="465" y="245"/>
      <point x="356" y="170"/>
      <point x="193" y="170"/>
      <point x="94" y="262"/>
      <point x="94" y="441"/>
      <point x="230" y="584"/>
      <point x="397" y="584"/>
      <point x="478" y="513"/>
      <point x="501" y="454" type="qcurve"/>
      <point x="535" y="506"/>
      <point x="645" y="584"/>
      <point x="805" y="584"/>
      <point x="906" y="491"/>
      <point x="906" y="314"/>
      <point x="775" y="170"/>
      <point x="680" y="170" type="qcurve" smooth="yes"/>
      <point x="604" y="170"/>
      <point x="516" y="242"/>
    </contour>
  </outline>
</glyph>
<glyph name="uni2225" format="1">
  <advance width="1000" height="1000"/>
  <unicode hex="2225"/>
  <outline>
    <contour>
      <point x="481" y="-102" type="qcurve" smooth="yes"/>
      <point x="468" y="-102"/>
      <point x="442" y="-79"/>
      <point x="442" y="-64" type="qcurve" smooth="yes"/>
      <point x="442" y="-58"/>
      <point x="445" y="-51" type="qcurve" smooth="yes"/>
      <point x="461" y="-18"/>
      <point x="469" y="10" type="qcurve" smooth="yes"/>
      <point x="688" y="736"/>
      <point x="695" y="767" type="qcurve" smooth="yes"/>
      <point x="699" y="783"/>
      <point x="707" y="811"/>
      <point x="725" y="811"/>
      <point x="746" y="796"/>
      <point x="761" y="777"/>
      <point x="761" y="769" type="qcurve" smooth="yes"/>
      <point x="761" y="766"/>
      <point x="760" y="765" type="qcurve" smooth="yes"/>
      <point x="747" y="736"/>
      <point x="736" y="700" type="qcurve" smooth="yes"/>
      <point x="515" y="-29"/>
      <point x="504" y="-69"/>
      <point x="498" y="-89" type="qcurve" smooth="yes"/>
      <point x="492" y="-102"/>
    </contour>
    <contour>
      <point x="231" y="-102" type="qcurve" smooth="yes"/>
      <point x="218" y="-102"/>
      <point x="192" y="-79"/>
      <point x="192" y="-64" type="qcurve" smooth="yes"/>
      <point x="192" y="-58"/>
      <point x="195" y="-51" type="qcurve" smooth="yes"/>
      <point x="208" y="-26"/>
      <point x="215" y="-1" type="qcurve" smooth="yes"/>
      <point x="219" y="10" type="line"/>
      <point x="438" y="736"/>
      <point x="445" y="767" type="qcurve" smooth="yes"/>
      <point x="449" y="783"/>
      <point x="457" y="811"/>
      <point x="475" y="811"/>
      <point x="496" y="796"/>
      <point x="511" y="777"/>
      <point x="511" y="769" type="qcurve" smooth="yes"/>
      <point x="511" y="766"/>
      <point x="510" y="765" type="qcurve" smooth="yes"/>
      <point x="497" y="736"/>
      <point x="486" y="700" type="qcurve" smooth="yes"/>
      <point x="265" y="-29"/>
      <point x="254" y="-69"/>
      <point x="248" y="-89" type="qcurve" smooth="yes"/>
      <point x="242" y="-102"/>
    </contour>
  </outline>
</glyph>
<glyph name="logicaland" format="1">
  <advance width="1000" height="1000"/>
  <unicode hex="2227"/>
  <outline>
    <contour>
      <point x="500" y="609" type="line"/>
      <point x="194" y="64" type="line" smooth="yes"/>
      <point x="189" y="53"/>
      <point x="164" y="53"/>
      <point x="142" y="71"/>
      <point x="142" y="90"/>
      <point x="145" y="96" type="qcurve" smooth="yes"/>
      <point x="479" y="688" type="line" smooth="yes"/>
      <point x="486" y="702"/>
      <point x="516" y="702"/>
      <point x="523" y="689" type="qcurve" smooth="yes"/>
      <point x="856" y="96" type="line" smooth="yes"/>
      <point x="860" y="91"/>
      <point x="860" y="71"/>
      <point x="837" y="53"/>
      <point x="813" y="53"/>
      <point x="807" y="64" type="qcurve" smooth="yes"/>
    </contour>
  </outline>
</glyph>
<glyph name="logicalor" format="1">
  <advance width="1000" height="1000"/>
  <unicode hex="2228"/>
  <outline>
    <contour>
      <point x="145" y="667" type="line" smooth="yes"/>
      <point x="142" y="673"/>
      <point x="142" y="692"/>
      <point x="164" y="710"/>
      <point x="189" y="710"/>
      <point x="194" y="699" type="qcurve" smooth="yes"/>
      <point x="500" y="154" type="line"/>
      <point x="807" y="699" type="line" smooth="yes"/>
      <point x="813" y="710"/>
      <point x="837" y="710"/>
      <point x="860" y="692"/>
      <point x="860" y="672"/>
      <point x="856" y="667" type="qcurve" smooth="yes"/>
      <point x="523" y="74" type="line" smooth="yes"/>
      <point x="515" y="58"/>
      <point x="488" y="58"/>
      <point x="479" y="75" type="qcurve" smooth="yes"/>
    </contour>
  </outline>
</glyph>
<glyph name="intersection" format="1">
  <advance width="1000" height="1000"/>
  <unicode hex="2229"/>
  <outline>
    <contour>
      <point x="726" y="455" type="line" smooth="yes"/>
      <point x="726" y="520"/>
      <point x="661" y="611"/>
      <point x="558" y="660"/>
      <point x="443" y="660"/>
      <point x="337" y="612"/>
      <point x="270" y="520"/>
      <point x="270" y="455" type="qcurve" smooth="yes"/>
      <point x="270" y="57" type="line" smooth="yes"/>
      <point x="270" y="47"/>
      <point x="251" y="37"/>
      <point x="228" y="37"/>
      <point x="208" y="47"/>
      <point x="208" y="57" type="qcurve" smooth="yes"/>
      <point x="208" y="460" type="line" smooth="yes"/>
      <point x="208" y="539"/>
      <point x="287" y="659"/>
      <point x="420" y="727"/>
      <point x="489" y="727" type="qcurve" smooth="yes"/>
      <point x="619" y="727"/>
      <point x="788" y="576"/>
      <point x="788" y="460" type="qcurve" smooth="yes"/>
      <point x="788" y="57" type="line" smooth="yes"/>
      <point x="788" y="47"/>
      <point x="769" y="37"/>
      <point x="746" y="37"/>
      <point x="726" y="47"/>
      <point x="726" y="57" type="qcurve" smooth="yes"/>
    </contour>
  </outline>
</glyph>
<glyph name="integral" format="1">
  <advance width="1000" height="1000"/>
  <unicode hex="222B"/>
  <outline>
    <contour>
      <point x="447" y="-49"/>
      <point x="418" y="-49" type="qcurve" smooth="yes"/>
      <point x="370" y="-49"/>
      <point x="329" y="-17" type="qcurve" smooth="yes"/>
      <point x="322" y="-11"/>
      <point x="322" y="19"/>
      <point x="334" y="48"/>
      <point x="342" y="48" type="qcurve" smooth="yes"/>
      <point x="346" y="48"/>
      <point x="384" y="12"/>
      <point x="423" y="12"/>
      <point x="432" y="16" type="qcurve" smooth="yes"/>
      <point x="451" y="26"/>
      <point x="465" y="173"/>
      <point x="465" y="497"/>
      <point x="476" y="661"/>
      <point x="503" y="749"/>
      <point x="548" y="782"/>
      <point x="577" y="782" type="qcurve" smooth="yes"/>
      <point x="625" y="782"/>
      <point x="666" y="750" type="qcurve" smooth="yes"/>
      <point x="673" y="744"/>
      <point x="673" y="714"/>
      <point x="661" y="685"/>
      <point x="653" y="685" type="qcurve" smooth="yes"/>
      <point x="649" y="685"/>
      <point x="638" y="696" type="qcurve" smooth="yes"/>
      <point x="613" y="721"/>
      <point x="584" y="721" type="qcurve" smooth="yes"/>
      <point x="572" y="721"/>
      <point x="563" y="716" type="qcurve" smooth="yes"/>
      <point x="543" y="707"/>
      <point x="530" y="560"/>
      <point x="530" y="230"/>
      <point x="519" y="65"/>
      <point x="492" y="-20"/>
    </contour>
  </outline>
</glyph>
<glyph name="therefore" format="1">
  <advance width="1000" height="1000"/>
  <unicode hex="2234"/>
  <outline>
    <contour>
      <point x="278" y="151"/>
      <point x="278" y="110"/>
      <point x="253" y="84"/>
      <point x="205" y="84"/>
      <point x="173" y="125"/>
      <point x="173" y="168"/>
      <point x="203" y="192"/>
      <point x="245" y="192"/>
    </contour>
    <contour>
      <point x="824" y="151"/>
      <point x="824" y="110"/>
      <point x="799" y="84"/>
      <point x="751" y="84"/>
      <point x="719" y="125"/>
      <point x="719" y="168"/>
      <point x="749" y="192"/>
      <point x="791" y="192"/>
    </contour>
    <contour>
      <point x="552" y="630"/>
      <point x="552" y="589"/>
      <point x="527" y="563"/>
      <point x="479" y="563"/>
      <point x="447" y="604"/>
      <point x="447" y="647"/>
      <point x="477" y="671"/>
      <point x="519" y="671"/>
    </contour>
  </outline>
</glyph>
<glyph name="uni2237" format="1">
  <advance width="1000" height="1000"/>
  <unicode hex="2237"/>
  <outline>
    <contour>
      <point x="804" y="131"/>
      <point x="804" y="90"/>
      <point x="779" y="64"/>
      <point x="731" y="64"/>
      <point x="699" y="105"/>
      <point x="699" y="148"/>
      <point x="729" y="172"/>
      <point x="771" y="172"/>
    </contour>
    <contour>
      <point x="298" y="131"/>
      <point x="298" y="90"/>
      <point x="273" y="64"/>
      <point x="225" y="64"/>
      <point x="193" y="105"/>
      <point x="193" y="148"/>
      <point x="223" y="172"/>
      <point x="265" y="172"/>
    </contour>
    <contour>
      <point x="804" y="637"/>
      <point x="804" y="596"/>
      <point x="779" y="570"/>
      <point x="731" y="570"/>
      <point x="699" y="611"/>
      <point x="699" y="654"/>
      <point x="729" y="678"/>
      <point x="771" y="678"/>
    </contour>
    <contour>
      <point x="298" y="637"/>
      <point x="298" y="596"/>
      <point x="273" y="570"/>
      <point x="225" y="570"/>
      <point x="193" y="611"/>
      <point x="193" y="654"/>
      <point x="223" y="678"/>
      <point x="265" y="678"/>
    </contour>
  </outline>
</glyph>
<glyph name="uni223D" format="1">
  <advance width="1000" height="1000"/>
  <unicode hex="223D"/>
  <outline>
    <contour>
      <point x="390" y="541"/>
      <point x="390" y="505"/>
      <point x="378" y="505" type="qcurve" smooth="yes"/>
      <point x="376" y="505" type="line" smooth="yes"/>
      <point x="360" y="508"/>
      <point x="342" y="508" type="qcurve" smooth="yes"/>
      <point x="293" y="508"/>
      <point x="210" y="463"/>
      <point x="160" y="386"/>
      <point x="160" y="285"/>
      <point x="216" y="226"/>
      <point x="268" y="226" type="qcurve" smooth="yes"/>
      <point x="359" y="226"/>
      <point x="419" y="293" type="qcurve" smooth="yes"/>
      <point x="458" y="337"/>
      <point x="541" y="501"/>
      <point x="649" y="573"/>
      <point x="802" y="573"/>
      <point x="904" y="479"/>
      <point x="904" y="331"/>
      <point x="834" y="227"/>
      <point x="722" y="168"/>
      <point x="659" y="168" type="qcurve" smooth="yes"/>
      <point x="651" y="168" type="line" smooth="yes"/>
      <point x="621" y="170"/>
      <point x="621" y="186" type="qcurve" smooth="yes"/>
      <point x="621" y="191"/>
      <point x="634" y="203"/>
      <point x="646" y="204" type="qcurve" smooth="yes"/>
      <point x="741" y="218"/>
      <point x="840" y="325"/>
      <point x="840" y="398" type="qcurve" smooth="yes"/>
      <point x="840" y="448"/>
      <point x="780" y="510"/>
      <point x="656" y="510"/>
      <point x="587" y="451"/>
      <point x="534" y="350"/>
      <point x="469" y="241"/>
      <point x="349" y="163"/>
      <point x="194" y="163"/>
      <point x="96" y="256"/>
      <point x="96" y="338" type="qcurve" smooth="yes"/>
      <point x="96" y="374"/>
      <point x="126" y="456"/>
      <point x="158" y="492" type="qcurve" smooth="yes"/>
      <point x="231" y="572"/>
      <point x="362" y="572" type="qcurve" smooth="yes"/>
      <point x="376" y="572"/>
    </contour>
  </outline>
</glyph>
<glyph name="approxequal" format="1">
  <advance width="1000" height="1000"/>
  <unicode hex="2248"/>
  <outline>
    <contour>
      <point x="680" y="155" type="qcurve" smooth="yes"/>
      <point x="592" y="155"/>
      <point x="482" y="200" type="qcurve" smooth="yes"/>
      <point x="389" y="240"/>
      <point x="315" y="240" type="qcurve" smooth="yes"/>
      <point x="233" y="240"/>
      <point x="176" y="202" type="qcurve" smooth="yes"/>
      <point x="166" y="195"/>
      <point x="157" y="195" type="qcurve" smooth="yes"/>
      <point x="145" y="195"/>
      <point x="144" y="209" type="qcurve" smooth="yes"/>
      <point x="144" y="218"/>
      <point x="152" y="228" type="qcurve" smooth="yes"/>
      <point x="176" y="256"/>
      <point x="265" y="304"/>
      <point x="316" y="304" type="qcurve" smooth="yes"/>
      <point x="412" y="304"/>
      <point x="514" y="259" type="qcurve" smooth="yes"/>
      <point x="602" y="219"/>
      <point x="681" y="219" type="qcurve" smooth="yes"/>
      <point x="764" y="219"/>
      <point x="820" y="257" type="qcurve" smooth="yes"/>
      <point x="830" y="264"/>
      <point x="839" y="264" type="qcurve" smooth="yes"/>
      <point x="851" y="264"/>
      <point x="852" y="251" type="qcurve" smooth="yes"/>
      <point x="852" y="242"/>
      <point x="844" y="231" type="qcurve" smooth="yes"/>
      <point x="822" y="204"/>
      <point x="731" y="155"/>
    </contour>
    <contour>
      <point x="680" y="395" type="qcurve" smooth="yes"/>
      <point x="592" y="395"/>
      <point x="482" y="440" type="qcurve" smooth="yes"/>
      <point x="389" y="480"/>
      <point x="315" y="480" type="qcurve" smooth="yes"/>
      <point x="233" y="480"/>
      <point x="176" y="442" type="qcurve" smooth="yes"/>
      <point x="166" y="435"/>
      <point x="157" y="435" type="qcurve" smooth="yes"/>
      <point x="145" y="435"/>
      <point x="144" y="449" type="qcurve" smooth="yes"/>
      <point x="144" y="458"/>
      <point x="152" y="468" type="qcurve" smooth="yes"/>
      <point x="176" y="496"/>
      <point x="265" y="544"/>
      <point x="316" y="544" type="qcurve" smooth="yes"/>
      <point x="412" y="544"/>
      <point x="514" y="499" type="qcurve" smooth="yes"/>
      <point x="602" y="459"/>
      <point x="681" y="459" type="qcurve" smooth="yes"/>
      <point x="764" y="459"/>
      <point x="820" y="497" type="qcurve" smooth="yes"/>
      <point x="830" y="504"/>
      <point x="839" y="504" type="qcurve" smooth="yes"/>
      <point x="851" y="504"/>
      <point x="852" y="491" type="qcurve" smooth="yes"/>
      <point x="852" y="482"/>
      <point x="844" y="471" type="qcurve" smooth="yes"/>
      <point x="822" y="444"/>
      <point x="731" y="395"/>
    </contour>
  </outline>
</glyph>
<glyph name="notequal" format="1">
  <advance width="1000" height="1000"/>
  <unicode hex="2260"/>
  <outline>
    <contour>
      <point x="735" y="279" type="line" smooth="yes"/>
      <point x="748" y="279"/>
      <point x="811" y="282" type="qcurve" smooth="yes"/>
      <point x="812" y="282" type="line" smooth="yes"/>
      <point x="822" y="282"/>
      <point x="834" y="257"/>
      <point x="834" y="245" type="qcurve" smooth="yes"/>
      <point x="834" y="216"/>
      <point x="817" y="216" type="qcurve" smooth="yes"/>
      <point x="734" y="217" type="line"/>
      <point x="447" y="213" type="line"/>
      <point x="407" y="142" type="line" smooth="yes"/>
      <point x="397" y="124"/>
      <point x="383" y="96" type="qcurve" smooth="yes"/>
      <point x="356" y="42" type="line" smooth="yes"/>
      <point x="352" y="35"/>
      <point x="331" y="35"/>
      <point x="298" y="68"/>
      <point x="298" y="85"/>
      <point x="300" y="89" type="qcurve" smooth="yes"/>
      <point x="317" y="112"/>
      <point x="350" y="168" type="qcurve" smooth="yes"/>
      <point x="375" y="212" type="line"/>
      <point x="267" y="211" type="line" smooth="yes"/>
      <point x="204" y="211"/>
      <point x="186" y="208" type="qcurve" smooth="yes"/>
      <point x="185" y="208" type="line" smooth="yes"/>
      <point x="176" y="208"/>
      <point x="165" y="236"/>
      <point x="165" y="275"/>
      <point x="181" y="275" type="qcurve" smooth="yes"/>
      <point x="211" y="273"/>
      <point x="268" y="273" type="qcurve" smooth="yes"/>
      <point x="409" y="275" type="line"/>
      <point x="491" y="422" type="line"/>
      <point x="267" y="419" type="line" smooth="yes"/>
      <point x="204" y="419"/>
      <point x="186" y="416" type="qcurve" smooth="yes"/>
      <point x="185" y="416" type="line" smooth="yes"/>
      <point x="176" y="416"/>
      <point x="165" y="444"/>
      <point x="165" y="483"/>
      <point x="181" y="483" type="qcurve" smooth="yes"/>
      <point x="211" y="481"/>
      <point x="268" y="481" type="qcurve" smooth="yes"/>
      <point x="526" y="484" type="line"/>
      <point x="570" y="564" type="line" smooth="yes"/>
      <point x="583" y="586"/>
      <point x="618" y="663" type="qcurve" smooth="yes"/>
      <point x="621" y="669"/>
      <point x="636" y="669"/>
      <point x="648" y="660" type="qcurve" smooth="yes"/>
      <point x="676" y="638"/>
      <point x="676" y="618" type="qcurve" smooth="yes"/>
      <point x="676" y="616"/>
      <point x="644" y="568"/>
      <point x="629" y="540" type="qcurve" smooth="yes"/>
      <point x="598" y="485" type="line"/>
      <point x="735" y="487" type="line" smooth="yes"/>
      <point x="748" y="487"/>
      <point x="811" y="490" type="qcurve" smooth="yes"/>
      <point x="812" y="490" type="line" smooth="yes"/>
      <point x="822" y="490"/>
      <point x="834" y="465"/>
      <point x="834" y="453" type="qcurve" smooth="yes"/>
      <point x="834" y="424"/>
      <point x="817" y="424" type="qcurve" smooth="yes"/>
      <point x="734" y="425" type="line"/>
      <point x="563" y="423" type="line"/>
      <point x="482" y="276" type="line"/>
    </contour>
  </outline>
</glyph>
<glyph name="equivalence" format="1">
  <advance width="1000" height="1000"/>
  <unicode hex="2261"/>
  <outline>
    <contour>
      <point x="735" y="234" type="line" smooth="yes"/>
      <point x="748" y="234"/>
      <point x="811" y="237" type="qcurve" smooth="yes"/>
      <point x="812" y="237" type="line" smooth="yes"/>
      <point x="822" y="237"/>
      <point x="834" y="213"/>
      <point x="834" y="202" type="qcurve" smooth="yes"/>
      <point x="834" y="174"/>
      <point x="817" y="174" type="qcurve" smooth="yes"/>
      <point x="734" y="175" type="line"/>
      <point x="267" y="169" type="line" smooth="yes"/>
      <point x="204" y="169"/>
      <point x="186" y="166" type="qcurve" smooth="yes"/>
      <point x="185" y="166" type="line" smooth="yes"/>
      <point x="176" y="166"/>
      <point x="165" y="193"/>
      <point x="165" y="206" type="qcurve" smooth="yes"/>
      <point x="165" y="230"/>
      <point x="181" y="230" type="qcurve" smooth="yes"/>
      <point x="211" y="228"/>
      <point x="268" y="228" type="qcurve" smooth="yes"/>
    </contour>
    <contour>
      <point x="735" y="402" type="line" smooth="yes"/>
      <point x="748" y="402"/>
      <point x="811" y="405" type="qcurve" smooth="yes"/>
      <point x="812" y="405" type="line" smooth="yes"/>
      <point x="822" y="405"/>
      <point x="834" y="381"/>
      <point x="834" y="370" type="qcurve" smooth="yes"/>
      <point x="834" y="342"/>
      <point x="817" y="342" type="qcurve" smooth="yes"/>
      <point x="734" y="343" type="line"/>
      <point x="267" y="337" type="line" smooth="yes"/>
      <point x="204" y="337"/>
      <point x="186" y="334" type="qcurve" smooth="yes"/>
      <point x="185" y="334" type="line" smooth="yes"/>
      <point x="176" y="334"/>
      <point x="165" y="361"/>
      <point x="165" y="374" type="qcurve" smooth="yes"/>
      <point x="165" y="398"/>
      <point x="181" y="398" type="qcurve" smooth="yes"/>
      <point x="211" y="396"/>
      <point x="268" y="396" type="qcurve" smooth="yes"/>
    </contour>
    <contour>
      <point x="735" y="568" type="line" smooth="yes"/>
      <point x="748" y="568"/>
      <point x="811" y="571" type="qcurve" smooth="yes"/>
      <point x="812" y="571" type="line" smooth="yes"/>
      <point x="822" y="571"/>
      <point x="834" y="547"/>
      <point x="834" y="536" type="qcurve" smooth="yes"/>
      <point x="834" y="508"/>
      <point x="817" y="508" type="qcurve" smooth="yes"/>
      <point x="734" y="509" type="line"/>
      <point x="267" y="503" type="line" smooth="yes"/>
      <point x="204" y="503"/>
      <point x="186" y="500" type="qcurve" smooth="yes"/>
      <point x="185" y="500" type="line" smooth="yes"/>
      <point x="176" y="500"/>
      <point x="165" y="527"/>
      <point x="165" y="540" type="qcurve" smooth="yes"/>
      <point x="165" y="564"/>
      <point x="181" y="564" type="qcurve" smooth="yes"/>
      <point x="211" y="562"/>
      <point x="268" y="562" type="qcurve" smooth="yes"/>
    </contour>
  </outline>
</glyph>
<glyph name="uni226E" format="1">
  <advance width="1000" height="1000"/>
  <unicode hex="226E"/>
  <outline>
    <contour>
      <point x="501" y="-134" type="qcurve" smooth="yes"/>
      <point x="471" y="-134"/>
      <point x="471" y="-115" type="qcurve" smooth="yes"/>
      <point x="471" y="200" type="line"/>
      <point x="427" y="225"/>
      <point x="377" y="253" type="qcurve" smooth="yes"/>
      <point x="252" y="323"/>
      <point x="238" y="326" type="qcurve" smooth="yes"/>
      <point x="230" y="327"/>
      <point x="214" y="337"/>
      <point x="204" y="368"/>
      <point x="204" y="381" type="qcurve" smooth="yes"/>
      <point x="204" y="390"/>
      <point x="207" y="397" type="qcurve" smooth="yes"/>
      <point x="214" y="406"/>
      <point x="233" y="412" type="qcurve" smooth="yes"/>
      <point x="255" y="420"/>
      <point x="381" y="491" type="qcurve" smooth="yes"/>
      <point x="430" y="519"/>
      <point x="471" y="542" type="qcurve"/>
      <point x="471" y="875" type="line" smooth="yes"/>
      <point x="471" y="894"/>
      <point x="501" y="894" type="qcurve" smooth="yes"/>
      <point x="530" y="894"/>
      <point x="530" y="875" type="qcurve" smooth="yes"/>
      <point x="530" y="576" type="line"/>
      <point x="617" y="626"/>
      <point x="662" y="654" type="qcurve" smooth="yes"/>
      <point x="699" y="677"/>
      <point x="735" y="706" type="qcurve" smooth="yes"/>
      <point x="739" y="709"/>
      <point x="742" y="709" type="qcurve" smooth="yes"/>
      <point x="752" y="709"/>
      <point x="763" y="678"/>
      <point x="763" y="662" type="qcurve" smooth="yes"/>
      <point x="763" y="644"/>
      <point x="755" y="636" type="qcurve" smooth="yes"/>
      <point x="690" y="599" type="line"/>
      <point x="566" y="527" type="line" smooth="yes"/>
      <point x="548" y="517"/>
      <point x="530" y="507" type="qcurve"/>
      <point x="530" y="235" type="line"/>
      <point x="549" y="224"/>
      <point x="570" y="213" type="qcurve" smooth="yes"/>
      <point x="662" y="161"/>
      <point x="713" y="131" type="qcurve" smooth="yes"/>
      <point x="755" y="107" type="line" smooth="yes"/>
      <point x="764" y="98"/>
      <point x="764" y="75" type="qcurve" smooth="yes"/>
      <point x="764" y="60"/>
      <point x="755" y="32"/>
      <point x="747" y="32" type="qcurve" smooth="yes"/>
      <point x="746" y="32"/>
      <point x="742" y="33"/>
      <point x="713" y="53" type="qcurve" smooth="yes"/>
      <point x="690" y="70"/>
      <point x="669" y="84" type="qcurve" smooth="yes"/>
      <point x="615" y="118"/>
      <point x="530" y="166" type="qcurve"/>
      <point x="530" y="-115" type="line" smooth="yes"/>
      <point x="530" y="-127"/>
      <point x="515" y="-132" type="qcurve" smooth="yes"/>
      <point x="508" y="-134"/>
    </contour>
    <contour>
      <point x="471" y="268" type="qcurve"/>
      <point x="471" y="473" type="line"/>
      <point x="354" y="408"/>
      <point x="281" y="370" type="qcurve"/>
      <point x="352" y="333"/>
    </contour>
  </outline>
</glyph>
<glyph name="circlemultiply" format="1">
  <advance width="1000" height="1000"/>
  <unicode hex="2297"/>
  <outline>
    <contour>
      <point x="500" y="329" type="line"/>
      <point x="331" y="161" type="line" smooth="yes"/>
      <point x="328" y="158"/>
      <point x="313" y="158"/>
      <point x="289" y="182"/>
      <point x="289" y="197"/>
      <point x="292" y="200" type="qcurve" smooth="yes"/>
      <point x="461" y="368" type="line"/>
      <point x="292" y="536" type="line" smooth="yes"/>
      <point x="289" y="539"/>
      <point x="289" y="555"/>
      <point x="313" y="578"/>
      <point x="328" y="578"/>
      <point x="331" y="575" type="qcurve" smooth="yes"/>
      <point x="500" y="407" type="line"/>
      <point x="669" y="575" type="line" smooth="yes"/>
      <point x="672" y="578"/>
      <point x="688" y="578"/>
      <point x="711" y="555"/>
      <point x="711" y="539"/>
      <point x="708" y="536" type="qcurve" smooth="yes"/>
      <point x="539" y="368" type="line"/>
      <point x="708" y="200" type="line" smooth="yes"/>
      <point x="711" y="197"/>
      <point x="711" y="182"/>
      <point x="688" y="158"/>
      <point x="672" y="158"/>
      <point x="669" y="161" type="qcurve" smooth="yes"/>
    </contour>
    <contour>
      <point x="635" y="693"/>
      <point x="500" y="693" type="qcurve" smooth="yes"/>
      <point x="433" y="693"/>
      <point x="315" y="643"/>
      <point x="271" y="599" type="qcurve" smooth="yes"/>
      <point x="177" y="505"/>
      <point x="177" y="370" type="qcurve" smooth="yes"/>
      <point x="177" y="303"/>
      <point x="227" y="185"/>
      <point x="315" y="97"/>
      <point x="433" y="47"/>
      <point x="500" y="47" type="qcurve" smooth="yes"/>
      <point x="635" y="47"/>
      <point x="823" y="235"/>
      <point x="823" y="505"/>
    </contour>
    <contour>
      <point x="878" y="292"/>
      <point x="819" y="155"/>
      <point x="715" y="51"/>
      <point x="578" y="-8"/>
      <point x="422" y="-8"/>
      <point x="285" y="51"/>
      <point x="181" y="155"/>
      <point x="122" y="292"/>
      <point x="122" y="448"/>
      <point x="181" y="585"/>
      <point x="285" y="689"/>
      <point x="422" y="748"/>
      <point x="578" y="748"/>
      <point x="715" y="689"/>
      <point x="819" y="585"/>
      <point x="878" y="448"/>
    </contour>
  </outline>
</glyph>
<glyph name="uni229D" format="1">
  <advance width="1000" height="1000"/>
  <unicode hex="229D"/>
  <outline>
    <contour>
      <point x="770" y="341" type="qcurve" smooth="yes"/>
      <point x="230" y="341" type="line" smooth="yes"/>
      <point x="220" y="341"/>
      <point x="216" y="355" type="qcurve" smooth="yes"/>
      <point x="215" y="368" type="line" smooth="yes"/>
      <point x="215" y="395"/>
      <point x="230" y="395" type="qcurve" smooth="yes"/>
      <point x="770" y="395" type="line" smooth="yes"/>
      <point x="786" y="395"/>
      <point x="786" y="341"/>
    </contour>
    <contour>
      <point x="635" y="47"/>
      <point x="823" y="235"/>
      <point x="823" y="505"/>
      <point x="635" y="693"/>
      <point x="365" y="693"/>
      <point x="177" y="505"/>
      <point x="177" y="235"/>
      <point x="365" y="47"/>
    </contour>
    <contour>
      <point x="500" y="-8" type="qcurve" smooth="yes"/>
      <point x="396" y="-8"/>
      <point x="224" y="94"/>
      <point x="122" y="266"/>
      <point x="122" y="370" type="qcurve" smooth="yes"/>
      <point x="122" y="475"/>
      <point x="224" y="646"/>
      <point x="396" y="748"/>
      <point x="500" y="748" type="qcurve" smooth="yes"/>
      <point x="605" y="748"/>
      <point x="776" y="646"/>
      <point x="878" y="475"/>
      <point x="878" y="370" type="qcurve" smooth="yes"/>
      <point x="878" y="266"/>
      <point x="776" y="94"/>
      <point x="605" y="-8"/>
    </contour>
  </outline>
</glyph>
<glyph name="uni229E" format="1">
  <advance width="1000" height="1000"/>
  <unicode hex="229E"/>
  <outline>
    <contour>
      <point x="477" y="-23" type="line"/>
      <point x="477" y="347" type="line"/>
      <point x="107" y="347" type="line"/>
      <point x="107" y="-23" type="line"/>
    </contour>
    <contour>
      <point x="891" y="-23" type="line"/>
      <point x="891" y="347" type="line"/>
      <point x="521" y="347" type="line"/>
      <point x="521" y="-23" type="line"/>
    </contour>
    <contour>
      <point x="477" y="391" type="line"/>
      <point x="477" y="761" type="line"/>
      <point x="107" y="761" type="line"/>
      <point x="107" y="391" type="line"/>
    </contour>
    <contour>
      <point x="891" y="391" type="line"/>
      <point x="891" y="761" type="line"/>
      <point x="521" y="761" type="line"/>
      <point x="521" y="391" type="line"/>
    </contour>
    <contour>
      <point x="936" y="-66" type="line"/>
      <point x="62" y="-66" type="line"/>
      <point x="62" y="806" type="line"/>
      <point x="936" y="806" type="line"/>
    </contour>
  </outline>
</glyph>
<glyph name="uni22A0" format="1">
  <advance width="1000" height="1000"/>
  <unicode hex="22A0"/>
  <outline>
    <contour>
      <point x="500" y="328" type="line"/>
      <point x="302" y="131" type="line" smooth="yes"/>
      <point x="299" y="128"/>
      <point x="284" y="128"/>
      <point x="260" y="152"/>
      <point x="260" y="167"/>
      <point x="263" y="170" type="qcurve" smooth="yes"/>
      <point x="461" y="368" type="line"/>
      <point x="262" y="567" type="line" smooth="yes"/>
      <point x="259" y="570"/>
      <point x="259" y="586"/>
      <point x="283" y="610"/>
      <point x="298" y="610"/>
      <point x="301" y="607" type="qcurve" smooth="yes"/>
      <point x="500" y="408" type="line"/>
      <point x="699" y="606" type="line" smooth="yes"/>
      <point x="704" y="609"/>
      <point x="719" y="609"/>
      <point x="743" y="586"/>
      <point x="743" y="570"/>
      <point x="739" y="566" type="qcurve" smooth="yes"/>
      <point x="540" y="368" type="line"/>
      <point x="735" y="172" type="line" smooth="yes"/>
      <point x="738" y="169"/>
      <point x="738" y="154"/>
      <point x="714" y="130"/>
      <point x="698" y="130"/>
      <point x="695" y="133" type="qcurve" smooth="yes"/>
    </contour>
    <contour>
      <point x="872" y="740" type="line"/>
      <point x="129" y="740" type="line"/>
      <point x="129" y="-3" type="line"/>
      <point x="872" y="-3" type="line"/>
    </contour>
    <contour>
      <point x="69" y="-63" type="line"/>
      <point x="69" y="800" type="line"/>
      <point x="932" y="800" type="line"/>
      <point x="932" y="-63" type="line"/>
    </contour>
  </outline>
</glyph>
<glyph name="perpendicular" format="1">
  <advance width="1000" height="1000"/>
  <unicode hex="22A5"/>
  <outline>
    <contour>
      <point x="731" y="113" type="line" smooth="yes"/>
      <point x="744" y="113"/>
      <point x="807" y="116" type="qcurve" smooth="yes"/>
      <point x="808" y="116" type="line" smooth="yes"/>
      <point x="818" y="116"/>
      <point x="830" y="92"/>
      <point x="830" y="80" type="qcurve" smooth="yes"/>
      <point x="830" y="52"/>
      <point x="813" y="52" type="qcurve" smooth="yes"/>
      <point x="730" y="53" type="line"/>
      <point x="278" y="47" type="line" smooth="yes"/>
      <point x="216" y="47"/>
      <point x="197" y="44" type="qcurve" smooth="yes"/>
      <point x="196" y="44" type="line" smooth="yes"/>
      <point x="188" y="44"/>
      <point x="176" y="70"/>
      <point x="176" y="109"/>
      <point x="192" y="109" type="qcurve" smooth="yes"/>
      <point x="222" y="107"/>
      <point x="279" y="107" type="qcurve" smooth="yes"/>
      <point x="470" y="110" type="line"/>
      <point x="470" y="600" type="line" smooth="yes"/>
      <point x="470" y="657"/>
      <point x="468" y="687" type="qcurve" smooth="yes"/>
      <point x="468" y="703"/>
      <point x="507" y="703"/>
      <point x="535" y="691"/>
      <point x="535" y="683" type="qcurve" smooth="yes"/>
      <point x="535" y="682" type="line" smooth="yes"/>
      <point x="532" y="643"/>
      <point x="532" y="601" type="qcurve" smooth="yes"/>
      <point x="532" y="110" type="line"/>
    </contour>
  </outline>
</glyph>
<glyph name="uni22C4" format="1">
  <advance width="1000" height="1000"/>
  <unicode hex="22C4"/>
  <outline>
    <contour>
      <point x="573" y="378" type="line"/>
      <point x="500" y="451" type="line"/>
      <point x="425" y="377" type="line"/>
      <point x="499" y="303" type="line"/>
    </contour>
    <contour>
      <point x="361" y="377" type="line"/>
      <point x="500" y="515" type="line"/>
      <point x="637" y="378" type="line"/>
      <point x="499" y="239" type="line"/>
    </contour>
  </outline>
</glyph>
<glyph name="uni22EF" format="1">
  <advance width="1000" height="1000"/>
  <unicode hex="22EF"/>
  <outline>
    <contour>
      <point x="169" y="326" type="qcurve" smooth="yes"/>
      <point x="148" y="326"/>
      <point x="116" y="367"/>
      <point x="116" y="386" type="qcurve" smooth="yes"/>
      <point x="116" y="410"/>
      <point x="146" y="434"/>
      <point x="169" y="434" type="qcurve" smooth="yes"/>
      <point x="188" y="434"/>
      <point x="221" y="393"/>
      <point x="221" y="372" type="qcurve" smooth="yes"/>
      <point x="221" y="352"/>
      <point x="196" y="326"/>
    </contour>
    <contour>
      <point x="501" y="326" type="qcurve" smooth="yes"/>
      <point x="480" y="326"/>
      <point x="448" y="367"/>
      <point x="448" y="386" type="qcurve" smooth="yes"/>
      <point x="448" y="410"/>
      <point x="478" y="434"/>
      <point x="501" y="434" type="qcurve" smooth="yes"/>
      <point x="520" y="434"/>
      <point x="553" y="393"/>
      <point x="553" y="372" type="qcurve" smooth="yes"/>
      <point x="553" y="352"/>
      <point x="528" y="326"/>
    </contour>
    <contour>
      <point x="833" y="326" type="qcurve" smooth="yes"/>
      <point x="812" y="326"/>
      <point x="780" y="367"/>
      <point x="780" y="386" type="qcurve" smooth="yes"/>
      <point x="780" y="410"/>
      <point x="810" y="434"/>
      <point x="833" y="434" type="qcurve" smooth="yes"/>
      <point x="852" y="434"/>
      <point x="885" y="393"/>
      <point x="885" y="372" type="qcurve" smooth="yes"/>
      <point x="885" y="352"/>
      <point x="860" y="326"/>
    </contour>
  </outline>
</glyph>
<glyph name="uni2312" format="1">
  <advance width="1000" height="1000"/>
  <unicode hex="2312"/>
  <outline>
    <contour>
      <point x="114" y="623" type="qcurve" smooth="yes"/>
      <point x="97" y="623"/>
      <point x="97" y="640" type="qcurve" smooth="yes"/>
      <point x="97" y="649"/>
      <point x="116" y="671" type="qcurve" smooth="yes"/>
      <point x="163" y="726"/>
      <point x="250" y="770" type="qcurve" smooth="yes"/>
      <point x="358" y="827"/>
      <point x="473" y="827" type="qcurve" smooth="yes"/>
      <point x="616" y="827"/>
      <point x="735" y="768" type="qcurve" smooth="yes"/>
      <point x="832" y="721"/>
      <point x="878" y="668" type="qcurve" smooth="yes"/>
      <point x="897" y="646"/>
      <point x="897" y="638" type="qcurve" smooth="yes"/>
      <point x="897" y="621"/>
      <point x="882" y="621" type="qcurve" smooth="yes"/>
      <point x="874" y="621"/>
      <point x="866" y="628" type="qcurve" smooth="yes"/>
      <point x="781" y="703"/>
      <point x="617" y="738" type="qcurve" smooth="yes"/>
      <point x="543" y="753"/>
      <point x="418" y="753"/>
      <point x="352" y="738" type="qcurve" smooth="yes"/>
      <point x="202" y="705"/>
      <point x="128" y="629" type="qcurve" smooth="yes"/>
      <point x="122" y="623"/>
    </contour>
  </outline>
</glyph>
<glyph name="uni2318" format="1">
  <advance width="1000" height="1000"/>
  <unicode hex="2318"/>
  <outline>
    <contour>
      <point x="615" y="535" type="line"/>
      <point x="615" y="630" type="line" smooth="yes"/>
      <point x="615" y="691"/>
      <point x="701" y="777"/>
      <point x="823" y="777"/>
      <point x="909" y="691"/>
      <point x="909" y="569"/>
      <point x="823" y="483"/>
      <point x="762" y="483" type="qcurve" smooth="yes"/>
      <point x="667" y="483" type="line"/>
      <point x="667" y="256" type="line"/>
      <point x="762" y="256" type="line" smooth="yes"/>
      <point x="823" y="256"/>
      <point x="909" y="170"/>
      <point x="909" y="108" type="qcurve" smooth="yes"/>
      <point x="909" y="48"/>
      <point x="823" y="-39"/>
      <point x="701" y="-39"/>
      <point x="615" y="48"/>
      <point x="615" y="108" type="qcurve" smooth="yes"/>
      <point x="615" y="204" type="line"/>
      <point x="386" y="204" type="line"/>
      <point x="386" y="108" type="line" smooth="yes"/>
      <point x="386" y="48"/>
      <point x="300" y="-39"/>
      <point x="178" y="-39"/>
      <point x="92" y="48"/>
      <point x="92" y="108" type="qcurve" smooth="yes"/>
      <point x="92" y="170"/>
      <point x="178" y="256"/>
      <point x="239" y="256" type="qcurve" smooth="yes"/>
      <point x="334" y="256" type="line"/>
      <point x="334" y="483" type="line"/>
      <point x="239" y="483" type="line" smooth="yes"/>
      <point x="178" y="483"/>
      <point x="92" y="569"/>
      <point x="92" y="691"/>
      <point x="178" y="777"/>
      <point x="300" y="777"/>
      <point x="386" y="691"/>
      <point x="386" y="630" type="qcurve" smooth="yes"/>
      <point x="386" y="535" type="line"/>
    </contour>
    <contour>
      <point x="334" y="204" type="line"/>
      <point x="239" y="204" type="line" smooth="yes"/>
      <point x="199" y="204"/>
      <point x="144" y="148"/>
      <point x="144" y="68"/>
      <point x="199" y="13"/>
      <point x="278" y="13"/>
      <point x="334" y="68"/>
      <point x="334" y="108" type="qcurve" smooth="yes"/>
    </contour>
    <contour>
      <point x="615" y="483" type="line"/>
      <point x="386" y="483" type="line"/>
      <point x="386" y="256" type="line"/>
      <point x="615" y="256" type="line"/>
    </contour>
    <contour>
      <point x="667" y="535" type="line"/>
      <point x="762" y="535" type="line" smooth="yes"/>
      <point x="802" y="535"/>
      <point x="857" y="590"/>
      <point x="857" y="670"/>
      <point x="802" y="725"/>
      <point x="723" y="725"/>
      <point x="667" y="670"/>
      <point x="667" y="630" type="qcurve" smooth="yes"/>
    </contour>
    <contour>
      <point x="334" y="535" type="line"/>
      <point x="334" y="630" type="line" smooth="yes"/>
      <point x="334" y="670"/>
      <point x="278" y="725"/>
      <point x="199" y="725"/>
      <point x="144" y="670"/>
      <point x="144" y="590"/>
      <point x="199" y="535"/>
      <point x="239" y="535" type="qcurve" smooth="yes"/>
    </contour>
    <contour>
      <point x="667" y="204" type="line"/>
      <point x="667" y="108" type="line" smooth="yes"/>
      <point x="667" y="68"/>
      <point x="723" y="13"/>
      <point x="802" y="13"/>
      <point x="857" y="68"/>
      <point x="857" y="148"/>
      <point x="802" y="204"/>
      <point x="762" y="204" type="qcurve" smooth="yes"/>
    </contour>
  </outline>
</glyph>
<glyph name="uni2325" format="1">
  <advance width="1000" height="1000"/>
  <unicode hex="2325"/>
  <outline>
    <contour>
      <point x="619" y="-2" type="line" smooth="yes"/>
      <point x="597" y="-2"/>
      <point x="594" y="11" type="qcurve" smooth="yes"/>
      <point x="587" y="36"/>
      <point x="578" y="61" type="qcurve" smooth="yes"/>
      <point x="354" y="672" type="line"/>
      <point x="198" y="672" type="line" smooth="yes"/>
      <point x="137" y="672"/>
      <point x="120" y="669" type="qcurve" smooth="yes"/>
      <point x="119" y="669" type="line" smooth="yes"/>
      <point x="111" y="669"/>
      <point x="100" y="696"/>
      <point x="100" y="734"/>
      <point x="115" y="734" type="qcurve" smooth="yes"/>
      <point x="144" y="732"/>
      <point x="199" y="732" type="qcurve" smooth="yes"/>
      <point x="383" y="732" type="line" smooth="yes"/>
      <point x="405" y="732"/>
      <point x="408" y="719" type="qcurve" smooth="yes"/>
      <point x="413" y="700"/>
      <point x="419" y="682" type="qcurve" smooth="yes"/>
      <point x="648" y="58" type="line"/>
      <point x="808" y="58" type="line" smooth="yes"/>
      <point x="869" y="58"/>
      <point x="886" y="61" type="qcurve" smooth="yes"/>
      <point x="887" y="61" type="line" smooth="yes"/>
      <point x="895" y="61"/>
      <point x="906" y="34"/>
      <point x="906" y="-4"/>
      <point x="891" y="-4" type="qcurve" smooth="yes"/>
      <point x="862" y="-2"/>
      <point x="807" y="-2" type="qcurve" smooth="yes"/>
    </contour>
    <contour>
      <point x="808" y="732" type="line" smooth="yes"/>
      <point x="869" y="732"/>
      <point x="886" y="735" type="qcurve" smooth="yes"/>
      <point x="887" y="735" type="line" smooth="yes"/>
      <point x="895" y="735"/>
      <point x="906" y="708"/>
      <point x="906" y="670"/>
      <point x="891" y="670" type="qcurve" smooth="yes"/>
      <point x="862" y="672"/>
      <point x="807" y="672" type="qcurve" smooth="yes"/>
      <point x="668" y="672" type="line" smooth="yes"/>
      <point x="607" y="672"/>
      <point x="590" y="669" type="qcurve" smooth="yes"/>
      <point x="589" y="669" type="line" smooth="yes"/>
      <point x="581" y="669"/>
      <point x="570" y="696"/>
      <point x="570" y="734"/>
      <point x="585" y="734" type="qcurve" smooth="yes"/>
      <point x="614" y="732"/>
      <point x="669" y="732" type="qcurve" smooth="yes"/>
    </contour>
  </outline>
</glyph>
<glyph name="uni2326" format="1">
  <advance width="1000" height="1000"/>
  <unicode hex="2326"/>
  <outline>
    <contour>
      <point x="657" y="117" type="qcurve"/>
      <point x="662" y="121"/>
      <point x="669" y="126" type="qcurve" smooth="yes"/>
      <point x="699" y="150"/>
      <point x="728" y="180" type="qcurve" smooth="yes"/>
      <point x="851" y="310" type="line" smooth="yes"/>
      <point x="878" y="337"/>
      <point x="878" y="378"/>
      <point x="851" y="405" type="qcurve" smooth="yes"/>
      <point x="723" y="536" type="line" smooth="yes"/>
      <point x="680" y="580"/>
      <point x="657" y="600" type="qcurve"/>
      <point x="189" y="600" type="line"/>
      <point x="189" y="114" type="line"/>
      <point x="625" y="116" type="line" smooth="yes"/>
      <point x="640" y="117"/>
    </contour>
    <contour>
      <point x="331" y="204"/>
      <point x="314" y="227"/>
      <point x="314" y="238" type="qcurve" smooth="yes"/>
      <point x="314" y="250"/>
      <point x="322" y="256" type="qcurve" smooth="yes"/>
      <point x="329" y="263"/>
      <point x="344" y="277"/>
      <point x="348" y="281" type="qcurve" smooth="yes"/>
      <point x="426" y="359" type="line"/>
      <point x="335" y="451" type="line" smooth="yes"/>
      <point x="327" y="457"/>
      <point x="322" y="461" type="qcurve" smooth="yes"/>
      <point x="314" y="468"/>
      <point x="314" y="479" type="qcurve" smooth="yes"/>
      <point x="314" y="489"/>
      <point x="329" y="514"/>
      <point x="343" y="514" type="qcurve" smooth="yes"/>
      <point x="352" y="514"/>
      <point x="359" y="507" type="qcurve" smooth="yes"/>
      <point x="371" y="494" type="line" smooth="yes"/>
      <point x="375" y="490"/>
      <point x="383" y="482"/>
      <point x="466" y="398" type="qcurve"/>
      <point x="572" y="504" type="line" smooth="yes"/>
      <point x="579" y="511"/>
      <point x="587" y="511" type="qcurve" smooth="yes"/>
      <point x="600" y="511"/>
      <point x="616" y="487"/>
      <point x="616" y="465"/>
      <point x="608" y="458" type="qcurve" smooth="yes"/>
      <point x="600" y="452"/>
      <point x="582" y="434" type="qcurve" smooth="yes"/>
      <point x="506" y="358" type="line"/>
      <point x="579" y="284" type="line"/>
      <point x="605" y="261" type="line" smooth="yes"/>
      <point x="613" y="255"/>
      <point x="613" y="243" type="qcurve" smooth="yes"/>
      <point x="613" y="232"/>
      <point x="596" y="208"/>
      <point x="584" y="208" type="qcurve" smooth="yes"/>
      <point x="574" y="208"/>
      <point x="568" y="215" type="qcurve" smooth="yes"/>
      <point x="542" y="243" type="line"/>
      <point x="466" y="319" type="line"/>
      <point x="359" y="212" type="line" smooth="yes"/>
      <point x="355" y="204"/>
    </contour>
    <contour>
      <point x="682" y="655" type="qcurve" smooth="yes"/>
      <point x="694" y="654"/>
      <point x="700" y="647" type="qcurve" smooth="yes"/>
      <point x="719" y="625"/>
      <point x="754" y="583"/>
      <point x="771" y="565" type="qcurve" smooth="yes"/>
      <point x="912" y="423" type="line" smooth="yes"/>
      <point x="948" y="387"/>
      <point x="948" y="328"/>
      <point x="912" y="292" type="qcurve" smooth="yes"/>
      <point x="785" y="160" type="line" smooth="yes"/>
      <point x="726" y="98"/>
      <point x="703" y="72" type="qcurve" smooth="yes"/>
      <point x="699" y="66"/>
      <point x="694" y="64" type="qcurve" smooth="yes"/>
      <point x="690" y="62"/>
      <point x="686" y="62" type="qcurve" smooth="yes"/>
      <point x="202" y="62" type="line" smooth="yes"/>
      <point x="182" y="62"/>
      <point x="164" y="59" type="qcurve" smooth="yes"/>
      <point x="158" y="58" type="line" smooth="yes"/>
      <point x="146" y="58"/>
      <point x="120" y="83"/>
      <point x="120" y="95" type="qcurve" smooth="yes"/>
      <point x="121" y="108" type="line" smooth="yes"/>
      <point x="124" y="134"/>
      <point x="124" y="158" type="qcurve" smooth="yes"/>
      <point x="124" y="567" type="line" smooth="yes"/>
      <point x="124" y="587"/>
      <point x="118" y="616"/>
      <point x="118" y="626" type="qcurve" smooth="yes"/>
      <point x="118" y="641"/>
      <point x="136" y="653"/>
      <point x="166" y="653" type="qcurve" smooth="yes"/>
      <point x="583" y="653"/>
      <point x="642" y="655" type="qcurve" smooth="yes"/>
      <point x="672" y="655" type="line" smooth="yes"/>
      <point x="676" y="655"/>
    </contour>
  </outline>
</glyph>
<glyph name="uni23A0" format="1">
  <advance width="1000" height="1000"/>
  <unicode hex="23A0"/>
  <outline>
    <contour>
      <point x="544" y="880" type="line"/>
      <point x="544" y="572"/>
      <point x="400" y="299" type="qcurve" smooth="yes"/>
      <point x="332" y="170"/>
      <point x="150" y="-39"/>
      <point x="45" y="-111" type="qcurve" smooth="yes"/>
      <point x="33" y="-119"/>
      <point x="22" y="-119" type="qcurve" smooth="yes"/>
      <point x="3" y="-119"/>
      <point x="3" y="-101" type="qcurve" smooth="yes"/>
      <point x="3" y="-88"/>
      <point x="17" y="-77" type="qcurve" smooth="yes"/>
      <point x="211" y="84"/>
      <point x="460" y="594"/>
      <point x="460" y="880" type="qcurve"/>
    </contour>
  </outline>
</glyph>
<glyph name="uni23A4" format="1">
  <advance width="1000" height="1000"/>
  <unicode hex="23A4"/>
  <outline>
    <contour>
      <point x="534" y="625" type="qcurve" smooth="yes"/>
      <point x="531" y="562" type="line"/>
      <point x="531" y="-120" type="line"/>
      <point x="469" y="-120" type="line"/>
      <point x="469" y="602" type="line"/>
      <point x="217" y="602" type="line"/>
      <point x="85" y="600" type="line" smooth="yes"/>
      <point x="73" y="600"/>
      <point x="57" y="630"/>
      <point x="57" y="661"/>
      <point x="70" y="661" type="qcurve" smooth="yes"/>
      <point x="153" y="659" type="line"/>
      <point x="195" y="659" type="line"/>
      <point x="374" y="658" type="line" smooth="yes"/>
      <point x="486" y="658"/>
      <point x="498" y="660" type="qcurve" smooth="yes"/>
      <point x="502" y="660" type="line" smooth="yes"/>
      <point x="515" y="660"/>
      <point x="534" y="636"/>
    </contour>
  </outline>
</glyph>
<glyph name="uni23A7" format="1">
  <advance width="1000" height="1000"/>
  <unicode hex="23A7"/>
  <outline>
    <contour>
      <point x="531" y="194" type="line" smooth="yes"/>
      <point x="531" y="38"/>
      <point x="533" y="-120" type="qcurve"/>
      <point x="470" y="-120" type="line"/>
      <point x="469" y="-42"/>
      <point x="468" y="120"/>
      <point x="467" y="268"/>
      <point x="466" y="387"/>
      <point x="465" y="460"/>
      <point x="465" y="465" type="qcurve" smooth="yes"/>
      <point x="465" y="507"/>
      <point x="522" y="580"/>
      <point x="590" y="612" type="qcurve" smooth="yes"/>
      <point x="596" y="615"/>
      <point x="602" y="615" type="qcurve" smooth="yes"/>
      <point x="618" y="615"/>
      <point x="618" y="599" type="qcurve" smooth="yes"/>
      <point x="618" y="589"/>
      <point x="607" y="583" type="qcurve" smooth="yes"/>
      <point x="530" y="541"/>
      <point x="530" y="463" type="qcurve" smooth="yes"/>
      <point x="530" y="423" type="line"/>
    </contour>
  </outline>
</glyph>
<glyph name="uni23A8" format="1">
  <advance width="1000" height="1000"/>
  <unicode hex="23A8"/>
  <outline>
    <contour>
      <point x="536" y="268" type="qcurve" smooth="yes"/>
      <point x="536" y="135"/>
      <point x="530" y="-120" type="qcurve"/>
      <point x="468" y="-120" type="line"/>
      <point x="468" y="-120"/>
      <point x="470" y="35" type="qcurve" smooth="yes"/>
      <point x="472" y="128"/>
      <point x="472" y="212" type="qcurve" smooth="yes"/>
      <point x="472" y="264" type="line" smooth="yes"/>
      <point x="472" y="326"/>
      <point x="444" y="360" type="qcurve" smooth="yes"/>
      <point x="427" y="380"/>
      <point x="392" y="382" type="qcurve" smooth="yes"/>
      <point x="379" y="383"/>
      <point x="362" y="410"/>
      <point x="362" y="444"/>
      <point x="379" y="444" type="qcurve" smooth="yes"/>
      <point x="380" y="444" type="line"/>
      <point x="395" y="443" type="line" smooth="yes"/>
      <point x="439" y="443"/>
      <point x="471" y="492"/>
      <point x="471" y="547" type="qcurve" smooth="yes"/>
      <point x="471" y="715" type="line" smooth="yes"/>
      <point x="471" y="787"/>
      <point x="470" y="880" type="qcurve"/>
      <point x="533" y="880" type="line"/>
      <point x="536" y="604"/>
      <point x="536" y="503"/>
      <point x="511" y="434"/>
      <point x="465" y="408" type="qcurve"/>
      <point x="511" y="395"/>
      <point x="528" y="324" type="qcurve" smooth="yes"/>
      <point x="536" y="295"/>
    </contour>
  </outline>
</glyph>
<glyph name="uni23AB" format="1">
  <advance width="1000" height="1000"/>
  <unicode hex="23AB"/>
  <outline>
    <contour>
      <point x="543" y="460" type="qcurve" smooth="yes"/>
      <point x="532" y="-120" type="line"/>
      <point x="470" y="-120" type="line"/>
      <point x="475" y="119"/>
      <point x="479" y="460" type="qcurve" smooth="yes"/>
      <point x="479" y="503"/>
      <point x="436" y="561"/>
      <point x="394" y="585" type="qcurve" smooth="yes"/>
      <point x="382" y="592"/>
      <point x="382" y="615"/>
      <point x="397" y="615" type="qcurve" smooth="yes"/>
      <point x="403" y="615"/>
      <point x="448" y="602"/>
      <point x="476" y="585" type="qcurve" smooth="yes"/>
      <point x="543" y="543"/>
    </contour>
  </outline>
</glyph>
<glyph name="uni23AC" format="1">
  <advance width="1000" height="1000"/>
  <unicode hex="23AC"/>
  <outline>
    <contour>
      <point x="529" y="138" type="line"/>
      <point x="530" y="-120" type="line"/>
      <point x="467" y="-120" type="line"/>
      <point x="464" y="271" type="line" smooth="yes"/>
      <point x="464" y="312"/>
      <point x="489" y="383"/>
      <point x="535" y="408" type="qcurve"/>
      <point x="489" y="423"/>
      <point x="472" y="492" type="qcurve" smooth="yes"/>
      <point x="464" y="521"/>
      <point x="464" y="547" type="qcurve" smooth="yes"/>
      <point x="470" y="880" type="line"/>
      <point x="532" y="880" type="line"/>
      <point x="528" y="632"/>
      <point x="528" y="530"/>
      <point x="539" y="476"/>
      <point x="574" y="436"/>
      <point x="608" y="434" type="qcurve" smooth="yes"/>
      <point x="622" y="433"/>
      <point x="638" y="407"/>
      <point x="638" y="372"/>
      <point x="621" y="372" type="qcurve" smooth="yes"/>
      <point x="620" y="372" type="line"/>
      <point x="606" y="373" type="line" smooth="yes"/>
      <point x="562" y="373"/>
      <point x="529" y="324"/>
      <point x="529" y="268" type="qcurve" smooth="yes"/>
    </contour>
  </outline>
</glyph>
<glyph name="uni23AD" format="1">
  <advance width="1000" height="1000"/>
  <unicode hex="23AD"/>
  <outline>
    <contour>
      <point x="398" y="145" type="qcurve" smooth="yes"/>
      <point x="383" y="145"/>
      <point x="383" y="163" type="qcurve" smooth="yes"/>
      <point x="383" y="171"/>
      <point x="393" y="177" type="qcurve" smooth="yes"/>
      <point x="470" y="220"/>
      <point x="470" y="297" type="qcurve" smooth="yes"/>
      <point x="470" y="337" type="line"/>
      <point x="469" y="566" type="line" smooth="yes"/>
      <point x="469" y="722"/>
      <point x="467" y="880" type="qcurve"/>
      <point x="530" y="880" type="line"/>
      <point x="531" y="802"/>
      <point x="532" y="640"/>
      <point x="533" y="492"/>
      <point x="534" y="373"/>
      <point x="535" y="300"/>
      <point x="535" y="295" type="qcurve" smooth="yes"/>
      <point x="535" y="253"/>
      <point x="478" y="180"/>
      <point x="410" y="148" type="qcurve" smooth="yes"/>
      <point x="404" y="145"/>
    </contour>
  </outline>
</glyph>
<glyph name="uni2423" format="1">
  <advance width="500" height="500"/>
  <unicode hex="2423"/>
  <outline>
    <contour>
      <point x="132" y="-62" type="line" smooth="yes"/>
      <point x="112" y="-62"/>
      <point x="83" y="-68"/>
      <point x="73" y="-68" type="qcurve" smooth="yes"/>
      <point x="58" y="-68"/>
      <point x="46" y="-50"/>
      <point x="46" y="-22" type="qcurve" smooth="yes"/>
      <point x="46" y="11"/>
      <point x="44" y="70" type="qcurve" smooth="yes"/>
      <point x="44" y="100" type="line" smooth="yes"/>
      <point x="44" y="112"/>
      <point x="68" y="130"/>
      <point x="81" y="130" type="qcurve" smooth="yes"/>
      <point x="99" y="130"/>
      <point x="99" y="116" type="qcurve" smooth="yes"/>
      <point x="99" y="-1" type="line"/>
      <point x="401" y="-1" type="line"/>
      <point x="399" y="53" type="line" smooth="yes"/>
      <point x="398" y="73"/>
      <point x="398" y="96" type="qcurve" smooth="yes"/>
      <point x="398" y="108"/>
      <point x="423" y="127"/>
      <point x="436" y="127" type="qcurve" smooth="yes"/>
      <point x="453" y="127"/>
      <point x="453" y="114" type="qcurve" smooth="yes"/>
      <point x="453" y="10" type="line" smooth="yes"/>
      <point x="453" y="-10"/>
      <point x="456" y="-22" type="qcurve" smooth="yes"/>
      <point x="457" y="-28" type="line" smooth="yes"/>
      <point x="457" y="-40"/>
      <point x="432" y="-66"/>
      <point x="420" y="-66" type="qcurve" smooth="yes"/>
      <point x="407" y="-65" type="line" smooth="yes"/>
      <point x="381" y="-62"/>
      <point x="357" y="-62" type="qcurve" smooth="yes"/>
    </contour>
  </outline>
</glyph>
<glyph name="uni2462" format="1">
  <advance width="1000" height="1000"/>
  <unicode hex="2462"/>
  <outline>
    <contour>
      <point x="551" y="369"/>
      <point x="460" y="369"/>
      <point x="435" y="362" type="qcurve"/>
      <point x="431" y="362" type="line" smooth="yes"/>
      <point x="419" y="362"/>
      <point x="403" y="387"/>
      <point x="403" y="411"/>
      <point x="413" y="412" type="qcurve" smooth="yes"/>
      <point x="474" y="416"/>
      <point x="571" y="451"/>
      <point x="627" y="503"/>
      <point x="627" y="530" type="qcurve" smooth="yes"/>
      <point x="627" y="613"/>
      <point x="500" y="613" type="qcurve" smooth="yes"/>
      <point x="417" y="613"/>
      <point x="354" y="546" type="qcurve" smooth="yes"/>
      <point x="343" y="535"/>
      <point x="328" y="535"/>
      <point x="309" y="560"/>
      <point x="309" y="581"/>
      <point x="318" y="588" type="qcurve" smooth="yes"/>
      <point x="387" y="661"/>
      <point x="599" y="661"/>
      <point x="683" y="590"/>
      <point x="683" y="540" type="qcurve" smooth="yes"/>
      <point x="683" y="435"/>
      <point x="560" y="401" type="qcurve"/>
      <point x="598" y="401"/>
      <point x="666" y="366"/>
      <point x="709" y="303"/>
      <point x="709" y="260" type="qcurve" smooth="yes"/>
      <point x="709" y="163"/>
      <point x="578" y="69"/>
      <point x="362" y="69"/>
      <point x="286" y="141" type="qcurve" smooth="yes"/>
      <point x="280" y="147"/>
      <point x="280" y="172"/>
      <point x="297" y="201"/>
      <point x="312" y="201"/>
      <point x="316" y="196" type="qcurve" smooth="yes"/>
      <point x="378" y="120"/>
      <point x="550" y="120"/>
      <point x="652" y="193"/>
      <point x="652" y="260" type="qcurve" smooth="yes"/>
      <point x="652" y="293"/>
      <point x="613" y="342"/>
    </contour>
    <contour>
      <point x="931" y="456"/>
      <point x="864" y="612"/>
      <point x="745" y="731"/>
      <point x="589" y="798"/>
      <point x="411" y="798"/>
      <point x="255" y="731"/>
      <point x="136" y="612"/>
      <point x="69" y="456"/>
      <point x="69" y="278"/>
      <point x="136" y="122"/>
      <point x="255" y="4"/>
      <point x="411" y="-63"/>
      <point x="589" y="-63"/>
      <point x="745" y="4"/>
      <point x="864" y="122"/>
      <point x="931" y="278"/>
    </contour>
    <contour>
      <point x="980" y="268"/>
      <point x="905" y="94"/>
      <point x="773" y="-38"/>
      <point x="599" y="-112"/>
      <point x="401" y="-112"/>
      <point x="227" y="-38"/>
      <point x="95" y="94"/>
      <point x="20" y="268"/>
      <point x="20" y="466"/>
      <point x="95" y="640"/>
      <point x="227" y="772"/>
      <point x="401" y="847"/>
      <point x="599" y="847"/>
      <point x="773" y="772"/>
      <point x="905" y="640"/>
      <point x="980" y="466"/>
    </contour>
  </outline>
</glyph>
<glyph name="uni2466" format="1">
  <advance width="1000" height="1000"/>
  <unicode hex="2466"/>
  <outline>
    <contour>
      <point x="625" y="649" type="line"/>
      <point x="658" y="654" type="line"/>
      <point x="661" y="654" type="line" smooth="yes"/>
      <point x="672" y="653"/>
      <point x="697" y="629"/>
      <point x="697" y="618" type="qcurve" smooth="yes"/>
      <point x="697" y="615" type="line" smooth="yes"/>
      <point x="694" y="605"/>
      <point x="680" y="584"/>
      <point x="565" y="371"/>
      <point x="478" y="182"/>
      <point x="453" y="90" type="qcurve" smooth="yes"/>
      <point x="450" y="77"/>
      <point x="430" y="77" type="qcurve" smooth="yes"/>
      <point x="427" y="77"/>
      <point x="424" y="77" type="qcurve" smooth="yes"/>
      <point x="391" y="77"/>
      <point x="391" y="98" type="qcurve" smooth="yes"/>
      <point x="391" y="103"/>
      <point x="394" y="111"/>
      <point x="410" y="167"/>
      <point x="537" y="437"/>
      <point x="626" y="600" type="qcurve"/>
      <point x="359" y="579" type="line" smooth="yes"/>
      <point x="353" y="578"/>
      <point x="340" y="575"/>
      <point x="322" y="575"/>
      <point x="304" y="594"/>
      <point x="294" y="618"/>
      <point x="294" y="631"/>
      <point x="299" y="631" type="qcurve" smooth="yes"/>
      <point x="328" y="629" type="line"/>
    </contour>
    <contour>
      <point x="931" y="456"/>
      <point x="864" y="612"/>
      <point x="745" y="731"/>
      <point x="589" y="798"/>
      <point x="411" y="798"/>
      <point x="255" y="731"/>
      <point x="136" y="612"/>
      <point x="69" y="456"/>
      <point x="69" y="278"/>
      <point x="136" y="122"/>
      <point x="255" y="4"/>
      <point x="411" y="-63"/>
      <point x="589" y="-63"/>
      <point x="745" y="4"/>
      <point x="864" y="122"/>
      <point x="931" y="278"/>
    </contour>
    <contour>
      <point x="980" y="268"/>
      <point x="905" y="94"/>
      <point x="773" y="-38"/>
      <point x="599" y="-112"/>
      <point x="401" y="-112"/>
      <point x="227" y="-38"/>
      <point x="95" y="94"/>
      <point x="20" y="268"/>
      <point x="20" y="466"/>
      <point x="95" y="640"/>
      <point x="227" y="772"/>
      <point x="401" y="847"/>
      <point x="599" y="847"/>
      <point x="773" y="772"/>
      <point x="905" y="640"/>
      <point x="980" y="466"/>
    </contour>
  </outline>
</glyph>
<glyph name="uni2468" format="1">
  <advance width="1000" height="1000"/>
  <unicode hex="2468"/>
  <outline>
    <contour>
      <point x="637" y="554" type="line"/>
      <point x="625" y="550" type="line" smooth="yes"/>
      <point x="618" y="550"/>
      <point x="606" y="576"/>
      <point x="552" y="612"/>
      <point x="450" y="612"/>
      <point x="366" y="559"/>
      <point x="323" y="483"/>
      <point x="323" y="442" type="qcurve" smooth="yes"/>
      <point x="323" y="349"/>
      <point x="436" y="349" type="qcurve" smooth="yes"/>
      <point x="506" y="349"/>
      <point x="601" y="440"/>
      <point x="627" y="515" type="qcurve"/>
    </contour>
    <contour>
      <point x="565" y="75" type="line" smooth="yes"/>
      <point x="544" y="75"/>
      <point x="544" y="93" type="qcurve" smooth="yes"/>
      <point x="544" y="97"/>
      <point x="552" y="130"/>
      <point x="574" y="238"/>
      <point x="598" y="369"/>
      <point x="600" y="375" type="qcurve"/>
      <point x="572" y="340"/>
      <point x="480" y="296"/>
      <point x="437" y="296" type="qcurve" smooth="yes"/>
      <point x="350" y="296"/>
      <point x="267" y="373"/>
      <point x="267" y="498"/>
      <point x="326" y="598"/>
      <point x="434" y="662"/>
      <point x="574" y="662"/>
      <point x="621" y="626" type="qcurve" smooth="yes"/>
      <point x="640" y="612"/>
      <point x="646" y="600" type="qcurve"/>
      <point x="650" y="617"/>
      <point x="650" y="639"/>
      <point x="662" y="639" type="qcurve" smooth="yes"/>
      <point x="663" y="639" type="line" smooth="yes"/>
      <point x="674" y="638"/>
      <point x="706" y="619"/>
      <point x="706" y="608" type="qcurve" smooth="yes"/>
      <point x="706" y="606" type="line"/>
      <point x="686" y="560"/>
      <point x="613" y="164"/>
      <point x="606" y="93" type="qcurve" smooth="yes"/>
      <point x="604" y="77"/>
      <point x="569" y="75" type="qcurve" smooth="yes"/>
    </contour>
    <contour>
      <point x="931" y="456"/>
      <point x="864" y="612"/>
      <point x="745" y="731"/>
      <point x="589" y="798"/>
      <point x="411" y="798"/>
      <point x="255" y="731"/>
      <point x="136" y="612"/>
      <point x="69" y="456"/>
      <point x="69" y="278"/>
      <point x="136" y="122"/>
      <point x="255" y="4"/>
      <point x="411" y="-63"/>
      <point x="589" y="-63"/>
      <point x="745" y="4"/>
      <point x="864" y="122"/>
      <point x="931" y="278"/>
    </contour>
    <contour>
      <point x="980" y="268"/>
      <point x="905" y="94"/>
      <point x="773" y="-38"/>
      <point x="599" y="-112"/>
      <point x="401" y="-112"/>
      <point x="227" y="-38"/>
      <point x="95" y="94"/>
      <point x="20" y="268"/>
      <point x="20" y="466"/>
      <point x="95" y="640"/>
      <point x="227" y="772"/>
      <point x="401" y="847"/>
      <point x="599" y="847"/>
      <point x="773" y="772"/>
      <point x="905" y="640"/>
      <point x="980" y="466"/>
    </contour>
  </outline>
</glyph>
<glyph name="uni2469" format="1">
  <advance width="1000" height="1000"/>
  <unicode hex="2469"/>
  <outline>
    <contour>
      <point x="560" y="126"/>
      <point x="647" y="126"/>
      <point x="672" y="160" type="qcurve" smooth="yes"/>
      <point x="720" y="224"/>
      <point x="720" y="368" type="qcurve" smooth="yes"/>
      <point x="720" y="606"/>
      <point x="614" y="606" type="qcurve" smooth="yes"/>
      <point x="591" y="606"/>
      <point x="536" y="550"/>
      <point x="497" y="440"/>
      <point x="497" y="298"/>
      <point x="513" y="191"/>
    </contour>
    <contour>
      <point x="276" y="100" type="qcurve" smooth="yes"/>
      <point x="277" y="171" type="line"/>
      <point x="277" y="568" type="line"/>
      <point x="258" y="555"/>
      <point x="209" y="541" type="qcurve"/>
      <point x="204" y="540" type="line" smooth="yes"/>
      <point x="194" y="540"/>
      <point x="173" y="553"/>
      <point x="173" y="566"/>
      <point x="181" y="569" type="qcurve" smooth="yes"/>
      <point x="224" y="587"/>
      <point x="268" y="623" type="qcurve" smooth="yes"/>
      <point x="272" y="626"/>
      <point x="291" y="651"/>
      <point x="308" y="651"/>
      <point x="332" y="631"/>
      <point x="332" y="620" type="qcurve" smooth="yes"/>
      <point x="328" y="564" type="line"/>
      <point x="328" y="175" type="line" smooth="yes"/>
      <point x="328" y="119"/>
      <point x="330" y="87" type="qcurve" smooth="yes"/>
      <point x="330" y="78"/>
      <point x="303" y="78"/>
      <point x="276" y="90"/>
    </contour>
    <contour>
      <point x="516" y="613" type="qcurve" smooth="yes"/>
      <point x="524" y="613"/>
      <point x="532" y="603" type="qcurve"/>
      <point x="572" y="656"/>
      <point x="669" y="656"/>
      <point x="703" y="619" type="qcurve" smooth="yes"/>
      <point x="771" y="545"/>
      <point x="771" y="200"/>
      <point x="698" y="118" type="qcurve" smooth="yes"/>
      <point x="662" y="76"/>
      <point x="548" y="76"/>
      <point x="512" y="114" type="qcurve" smooth="yes"/>
      <point x="446" y="187"/>
      <point x="446" y="357" type="qcurve" smooth="yes"/>
      <point x="446" y="427"/>
      <point x="471" y="543"/>
      <point x="504" y="613"/>
    </contour>
    <contour>
      <point x="931" y="456"/>
      <point x="864" y="612"/>
      <point x="745" y="731"/>
      <point x="589" y="798"/>
      <point x="411" y="798"/>
      <point x="255" y="731"/>
      <point x="136" y="612"/>
      <point x="69" y="456"/>
      <point x="69" y="278"/>
      <point x="136" y="122"/>
      <point x="255" y="4"/>
      <point x="411" y="-63"/>
      <point x="589" y="-63"/>
      <point x="745" y="4"/>
      <point x="864" y="122"/>
      <point x="931" y="278"/>
    </contour>
    <contour>
      <point x="980" y="268"/>
      <point x="905" y="94"/>
      <point x="773" y="-38"/>
      <point x="599" y="-112"/>
      <point x="401" y="-112"/>
      <point x="227" y="-38"/>
      <point x="95" y="94"/>
      <point x="20" y="268"/>
      <point x="20" y="466"/>
      <point x="95" y="640"/>
      <point x="227" y="772"/>
      <point x="401" y="847"/>
      <point x="599" y="847"/>
      <point x="773" y="772"/>
      <point x="905" y="640"/>
      <point x="980" y="466"/>
    </contour>
  </outline>
</glyph>
